<?xml version="1.0" standalone="no"?>
<!DOCTYPE svg PUBLIC "-//W3C//DTD SVG 1.1//EN" "http://www.w3.org/Graphics/SVG/1.1/DTD/svg11.dtd" >
<svg xmlns="http://www.w3.org/2000/svg" xmlns:xlink="http://www.w3.org/1999/xlink" version="1.1">
<metadata>
Created by FontForge 20170910 at Tue Jan 30 18:13:11 2018
 By Jimmy Wärting
Copyright \(c\) 2016 by Fontfabric LLC. All rights reserved.
</metadata>
<defs>
<font id="Akrobat-ExtraLight" horiz-adv-x="0" >
  <font-face 
    font-family="Akrobat ExtraLight"
    font-weight="300"
    font-stretch="normal"
    units-per-em="1000"
    panose-1="0 0 4 0 0 0 0 0 0 0"
    ascent="800"
    descent="-200"
    x-height="521"
    cap-height="700"
    bbox="-331.98 -225.562 785.659 933.21"
    underline-thickness="50"
    underline-position="-100"
    stemh="29"
    stemv="31"
    unicode-range="U+0020-25CA"
  />
<missing-glyph horiz-adv-x="500" 
d="M410 800v-1000h-317v1000h317zM333 733h-165v-33h65v-37h-66v-33h166v33h-66v37h66v33zM267 604h-100v-104h166v34h-66v70zM233 570v-36h-33v36h33zM333 473h-166v-33h66v-37h-66v-33h100v70h66v33zM333 413h-33v-66h-133v-34h166v100zM333 291h-100v-56h34v23h33v-47
h-100v80h-33v-113h166v113zM333 118h-166v-113h166v113zM300 85v-47h-100v47h100zM333 -18h-166v-33h70l-70 -47v-33h166v33h-102l70 47h32v33z" />
    <glyph glyph-name=".notdef" horiz-adv-x="500" 
d="M410 800v-1000h-317v1000h317zM333 733h-165v-33h65v-37h-66v-33h166v33h-66v37h66v33zM267 604h-100v-104h166v34h-66v70zM233 570v-36h-33v36h33zM333 473h-166v-33h66v-37h-66v-33h100v70h66v33zM333 413h-33v-66h-133v-34h166v100zM333 291h-100v-56h34v23h33v-47
h-100v80h-33v-113h166v113zM333 118h-166v-113h166v113zM300 85v-47h-100v47h100zM333 -18h-166v-33h70l-70 -47v-33h166v33h-102l70 47h32v33z" />
    <glyph glyph-name="A" unicode="A" horiz-adv-x="438" 
d="M390.23 0l-50.0195 191.71h-242.32l-50.0195 -191.71h-34.0303l186.84 700h36.7402l186.84 -700h-34.0303zM105.651 221.42h226.801l-74.1904 284.31c-13.8398 52.9502 -27.3896 107.21 -38.9199 152.64h-0.580078c-11.5303 -45.4297 -25.0801 -99.6895 -38.9199 -152.64
z" />
    <glyph glyph-name="Aacute" unicode="&#xc1;" horiz-adv-x="438" 
d="M307.47 877.02l-95.7598 -105.89h-31.29l87.7402 105.89h39.3096zM390.229 -0l-50.0195 191.71h-242.32l-50.0195 -191.71h-34.0303l186.84 700h36.7402l186.84 -700h-34.0303zM105.65 221.42h226.801l-74.1904 284.31c-13.8398 52.9502 -27.3896 107.21 -38.9199 152.64
h-0.580078c-11.5303 -45.4297 -25.0801 -99.6895 -38.9199 -152.64z" />
    <glyph glyph-name="Abreve" unicode="&#x102;" horiz-adv-x="438" 
d="M218.47 769.55c-60.4697 0 -100.76 40.5801 -101.63 105.34h28.5498c0.870117 -50.3896 27.4004 -78.0801 73.0801 -78.0801c45.6904 0 72.21 27.6904 73.0801 78.0801h28.5498c-0.870117 -64.7598 -41.1602 -105.34 -101.63 -105.34zM390.229 -0l-50.0195 191.71
h-242.32l-50.0195 -191.71h-34.0303l186.84 700h36.7402l186.84 -700h-34.0303zM105.65 221.42h226.801l-74.1904 284.31c-13.8398 52.9502 -27.3896 107.21 -38.9199 152.64h-0.580078c-11.5303 -45.4297 -25.0801 -99.6895 -38.9199 -152.64z" />
    <glyph glyph-name="Acircumflex" unicode="&#xc2;" horiz-adv-x="438" 
d="M218.47 854.06l-65.5303 -82.9297h-29.71l77.4502 105.89h35.5801l77.4502 -105.89h-29.71zM390.229 -0l-50.0195 191.71h-242.32l-50.0195 -191.71h-34.0303l186.84 700h36.7402l186.84 -700h-34.0303zM105.65 221.42h226.801l-74.1904 284.31
c-13.8398 52.9502 -27.3896 107.21 -38.9199 152.64h-0.580078c-11.5303 -45.4297 -25.0801 -99.6895 -38.9199 -152.64z" />
    <glyph glyph-name="Adieresis" unicode="&#xc4;" horiz-adv-x="438" 
d="M160.58 803.63c-17.6104 0 -28.6406 10.7402 -28.6406 28.3398c0 17.6104 11.0303 28.3408 28.6406 28.3408c17.3096 0 28.3398 -10.7305 28.3398 -28.3408c0 -17.5996 -11.0303 -28.3398 -28.3398 -28.3398zM276.37 803.63
c-17.6104 0 -28.9307 10.7402 -28.9307 28.3398c0 17.6104 11.3203 28.3408 28.9307 28.3408c17.5996 0 28.6299 -10.7305 28.6299 -28.3408c0 -17.5996 -11.0303 -28.3398 -28.6299 -28.3398zM390.23 -0l-50.0195 191.71h-242.32l-50.0195 -191.71h-34.0303l186.84 700
h36.7402l186.84 -700h-34.0303zM105.651 221.42h226.801l-74.1904 284.31c-13.8398 52.9502 -27.3896 107.21 -38.9199 152.64h-0.580078c-11.5303 -45.4297 -25.0801 -99.6895 -38.9199 -152.64z" />
    <glyph glyph-name="Agrave" unicode="&#xc0;" horiz-adv-x="438" 
d="M249.52 771.13h-31.291l-95.7598 105.89h39.3203zM390.229 -0l-50.0195 191.71h-242.32l-50.0195 -191.71h-34.0303l186.84 700h36.7402l186.84 -700h-34.0303zM105.649 221.42h226.801l-74.1904 284.31c-13.8398 52.9502 -27.3896 107.21 -38.9199 152.64h-0.580078
c-11.5303 -45.4297 -25.0801 -99.6895 -38.9199 -152.64z" />
    <glyph glyph-name="Amacron" unicode="&#x100;" horiz-adv-x="438" 
d="M301.94 834.79v-28.5596h-166.94v28.5596h166.94zM390.23 0l-50.0195 191.71h-242.32l-50.0195 -191.71h-34.0303l186.84 700h36.7402l186.84 -700h-34.0303zM105.651 221.42h226.801l-74.1904 284.31c-13.8398 52.9502 -27.3896 107.21 -38.9199 152.64h-0.580078
c-11.5303 -45.4297 -25.0801 -99.6895 -38.9199 -152.64z" />
    <glyph glyph-name="Aogonek" unicode="&#x104;" horiz-adv-x="438" 
d="M343.89 -114.5c0 -31.2695 22.8389 -47.3701 52.209 -47.3701c9.4502 0 18.0303 0.709961 25.6104 2.29004v-28.5498c-8.87012 -1.87012 -20.6104 -3.16016 -31.0508 -3.16016c-49.9297 0 -76.7695 33.1797 -76.7695 73.1797c0 42.71 30.8203 86.1104 76.3398 118.11
l-50.0195 191.71h-242.32l-50.0195 -191.71h-34.0303l187.55 700h35.3203l187.55 -700h-3.17969c-46.9199 -38.6602 -77.1895 -77.1104 -77.1895 -114.5zM105.648 221.419h226.801l-74.1904 284.31c-13.8398 52.9502 -27.3896 107.21 -38.9199 152.64h-0.580078
c-11.5303 -45.4297 -25.0801 -99.6895 -38.9199 -152.64z" />
    <glyph glyph-name="Aring" unicode="&#xc5;" horiz-adv-x="438" 
d="M218.47 775.37c-37.0303 0 -62.1807 25.1504 -62.1807 62.6006c0 36.4502 25.1504 60.6104 62.1807 60.6104s62.1904 -24.1602 62.1904 -60.6104c0 -37.4502 -25.1602 -62.6006 -62.1904 -62.6006zM218.47 875.79c-23.2598 0 -38.0996 -15.8496 -38.0996 -38.8193
c0 -23.2598 14.8398 -38.8096 38.0996 -38.8096c22.9697 0 38.1094 15.5498 38.1094 38.8096c0 22.9697 -15.1396 38.8193 -38.1094 38.8193zM390.229 0l-50.0195 191.71h-242.32l-50.0195 -191.71h-34.0303l186.84 700h36.7402l186.84 -700h-34.0303zM105.65 221.42
h226.801l-74.1904 284.31c-13.8398 52.9502 -27.3896 107.21 -38.9199 152.64h-0.580078c-11.5303 -45.4297 -25.0801 -99.6895 -38.9199 -152.64z" />
    <glyph glyph-name="Atilde" unicode="&#xc3;" horiz-adv-x="438" 
d="M177.08 845.47c-17.4004 0 -29.0801 -15.6807 -30.3701 -44.6309h-29.1299c1.29004 43.0303 25.1504 71.6006 58.7607 71.6006c43.1299 0 53.4502 -46.9199 83.6807 -46.9199c17.9805 0 30.2402 15.6904 31.5303 44.6406h27.9697
c-2.86035 -43.7402 -24.7305 -71.6104 -58.7607 -71.6104c-41.4199 0 -52.4502 46.9199 -83.6807 46.9199zM390.23 -0.000976562l-50.0195 191.71h-242.32l-50.0195 -191.71h-34.0303l186.84 700h36.7402l186.84 -700h-34.0303zM105.651 221.419h226.801l-74.1904 284.31
c-13.8398 52.9502 -27.3896 107.21 -38.9199 152.64h-0.580078c-11.5303 -45.4297 -25.0801 -99.6895 -38.9199 -152.64z" />
    <glyph glyph-name="AE" unicode="&#xc6;" horiz-adv-x="661" 
d="M366.02 30h252.06v-30h-284.21v197.5h-209.38l-89.3096 -197.5h-35.1797l317.52 700h297.37v-30h-248.87v-298.79h229.74v-30h-229.74v-311.21zM137.929 227.21h195.94v435.34h-0.290039c-21.8203 -48.79 -43.3506 -98 -65.1602 -146.79z" />
    <glyph glyph-name="B" unicode="B" horiz-adv-x="478" 
d="M301.82 363.96c95.0703 -19.0596 134.28 -87.5195 134.28 -174.38c0 -121.45 -74.29 -189.58 -196.16 -189.58h-155.84v700h146.95c109.89 0 176.05 -64.5801 176.05 -177.03c0 -76.5996 -31.1299 -140.229 -105.28 -159.01zM231.051 669.71h-114.789v-292.37h121.05
c95.21 0 137.35 63.1797 137.35 145.63c0 96.3701 -51.3701 146.74 -143.61 146.74zM239.941 30.29c104.5 0 163.721 54.499 163.721 159.289c0 88.1504 -54.7402 157.471 -165.48 157.471h-121.92v-316.76h123.68z" />
    <glyph glyph-name="C" unicode="C" horiz-adv-x="469" 
d="M241.89 -12c-106.31 0 -176.79 70.0195 -176.79 205.729v311.82c0 136.42 69.9004 206.45 175.631 206.45c111.16 0 174.93 -64.9004 184.06 -191.341h-31.5801c-9.12988 109.65 -59.9795 161.631 -152.479 161.631c-87.0703 0 -144.051 -57.1104 -144.051 -176.74
v-311.82c0 -118.92 57.5498 -176.02 145.21 -176.02c94.21 0 147.32 52.5498 155.9 161.63h31.5801c-8.58008 -125.87 -74.6104 -191.34 -187.48 -191.34z" />
    <glyph glyph-name="Cacute" unicode="&#x106;" horiz-adv-x="469" 
d="M200.1 771.13l87.7393 105.89h39.3203l-95.7695 -105.89h-31.29zM241.889 -12c-106.31 0 -176.79 70.0195 -176.79 205.729v311.82c0 136.42 69.9004 206.45 175.631 206.45c111.16 0 174.93 -64.9004 184.06 -191.341h-31.5801
c-9.12988 109.65 -59.9795 161.631 -152.479 161.631c-87.0703 0 -144.051 -57.1104 -144.051 -176.74v-311.82c0 -118.92 57.5498 -176.02 145.21 -176.02c94.21 0 147.32 52.5498 155.9 161.63h31.5801c-8.58008 -125.87 -74.6104 -191.34 -187.48 -191.34z" />
    <glyph glyph-name="Ccaron" unicode="&#x10c;" horiz-adv-x="469" 
d="M255.66 771.13h-35.5791l-77.4502 105.89h29.71l65.5303 -82.9199l65.5195 82.9199h29.71zM397.791 179.34h31.5801c-8.58008 -125.87 -74.6104 -191.34 -187.48 -191.34c-106.31 0 -176.79 70.0195 -176.79 205.729v311.82c0 136.42 69.9004 206.45 175.631 206.45
c111.16 0 174.93 -64.9004 184.06 -191.341h-31.5801c-9.12988 109.65 -59.9795 161.631 -152.479 161.631c-87.0703 0 -144.051 -57.1104 -144.051 -176.74v-311.82c0 -118.92 57.5498 -176.02 145.21 -176.02c94.21 0 147.32 52.5498 155.9 161.63z" />
    <glyph glyph-name="Ccedilla" unicode="&#xc7;" horiz-adv-x="469" 
d="M429.37 179.34c-8.24023 -120.85 -69.4297 -186.019 -174.199 -191.028l-14.0898 -44c6.12988 1.70996 11.8398 2.41992 21.8096 2.41992c39.8398 0 68.8701 -26.71 68.8701 -65c0 -43.3096 -34.0303 -69.1797 -82.7607 -69.1797
c-46.29 0 -81.1602 31.6797 -82.3203 67.3193h27.6904c3.29004 -25.8203 24.9697 -41.5 55.21 -41.5c31.8096 0 54.79 15.2598 54.79 43.6494c0 26.2695 -19.6904 43.3691 -45.4004 43.3691c-16.2598 0.709961 -27.5498 -1.58008 -35.9697 -5.58008l-10.6104 11.0303
l18.2695 57.4199c-100.02 4.80957 -165.56 74.5996 -165.56 205.47v311.82c0 136.42 69.9004 206.45 175.631 206.45c111.16 0 174.93 -64.9004 184.06 -191.341h-31.5801c-9.12988 109.65 -59.9795 161.631 -152.479 161.631
c-87.0703 0 -144.051 -57.1104 -144.051 -176.74v-311.82c0 -118.92 57.5498 -176.02 145.21 -176.02c94.21 0 147.32 52.5498 155.9 161.63h31.5801z" />
    <glyph glyph-name="Cdotaccent" unicode="&#x10a;" horiz-adv-x="469" 
d="M238.16 806.79c-19.0596 0 -31.6592 12.5996 -31.6592 31.6494c0 19.0596 12.5996 31.6592 31.6592 31.6592c19.0498 0 31.6494 -12.5996 31.6494 -31.6592c0 -19.0498 -12.5996 -31.6494 -31.6494 -31.6494zM241.891 -12c-106.31 0 -176.79 70.0195 -176.79 205.729
v311.82c0 136.42 69.9004 206.45 175.631 206.45c111.16 0 174.93 -64.9004 184.06 -191.341h-31.5801c-9.12988 109.65 -59.9795 161.631 -152.479 161.631c-87.0703 0 -144.051 -57.1104 -144.051 -176.74v-311.82c0 -118.92 57.5498 -176.02 145.21 -176.02
c94.21 0 147.32 52.5498 155.9 161.63h31.5801c-8.58008 -125.87 -74.6104 -191.34 -187.48 -191.34z" />
    <glyph glyph-name="D" unicode="D" horiz-adv-x="487" 
d="M84.0996 0v700h149.9c118.5 0 188.1 -67.9004 188.1 -196.48v-297.39c0 -131.13 -70.1797 -206.13 -188.1 -206.13h-149.9zM116.26 30.5801h117.74c99.3896 0 155.939 61.3604 155.939 176.42v295.66c0 112.5 -56.2598 166.76 -155.939 166.76h-117.74v-638.84z" />
    <glyph glyph-name="Eth" unicode="&#xd0;" horiz-adv-x="500" 
d="M245.16 700c119.21 0 189.52 -67.9004 189.52 -196.48v-297.39c0 -131.13 -70.8896 -206.13 -189.52 -206.13h-148.48v341.21h-84.6797v29.4199h84.6797v329.37h148.48zM402.521 207v295.66c0 112.5 -56.9697 166.76 -157.359 166.76h-116.32v-298.79h112.5v-29.4199
h-112.5v-310.63h116.32c100.1 0 157.359 61.3604 157.359 176.42z" />
    <glyph glyph-name="Dcaron" unicode="&#x10e;" horiz-adv-x="487" 
d="M248.92 771.13h-35.5801l-77.4502 105.89h29.71l65.5303 -82.9199l65.5303 82.9199h29.71zM234 700c118.5 0 188.1 -67.9004 188.1 -196.48v-297.39c0 -131.13 -70.1797 -206.13 -188.1 -206.13h-149.9v700h149.9zM389.94 207v295.66
c0 112.5 -56.2598 166.76 -155.939 166.76h-117.74v-638.84h117.74c99.3896 0 155.939 61.3604 155.939 176.42z" />
    <glyph glyph-name="Dcroat" unicode="&#x110;" horiz-adv-x="500" 
d="M245.16 700c119.21 0 189.52 -67.9004 189.52 -196.48v-297.39c0 -131.13 -70.8896 -206.13 -189.52 -206.13h-148.48v341.21h-84.6797v29.4199h84.6797v329.37h148.48zM402.521 207v295.66c0 112.5 -56.9697 166.76 -157.359 166.76h-116.32v-298.79h112.5v-29.4199
h-112.5v-310.63h116.32c100.1 0 157.359 61.3604 157.359 176.42z" />
    <glyph glyph-name="E" unicode="E" horiz-adv-x="440" 
d="M116.26 30h280.68v-30h-312.84v700h309.66v-30h-277.5v-298.79h256.95v-30h-256.95v-311.21z" />
    <glyph glyph-name="Eacute" unicode="&#xc9;" horiz-adv-x="440" 
d="M322.44 877.02l-95.7598 -105.89h-31.29l87.7402 105.89h39.3096zM116.261 30h280.68v-30h-312.84v700h309.66v-30h-277.5v-298.79h256.95v-30h-256.95v-311.21z" />
    <glyph glyph-name="Ecaron" unicode="&#x11a;" horiz-adv-x="440" 
d="M260.79 771.13h-35.5791l-77.4502 105.89h29.71l65.5303 -82.9297l65.5195 82.9297h29.71zM116.261 30h280.68v-30h-312.84v700h309.66v-30h-277.5v-298.79h256.95v-30h-256.95v-311.21z" />
    <glyph glyph-name="Ecircumflex" unicode="&#xca;" horiz-adv-x="440" 
d="M243.29 854.06l-65.5312 -82.9297h-29.71l77.4502 105.89h35.5801l77.4404 -105.89h-29.71zM116.259 30h280.68v-30h-312.84v700h309.66v-30h-277.5v-298.79h256.95v-30h-256.95v-311.21z" />
    <glyph glyph-name="Edieresis" unicode="&#xcb;" horiz-adv-x="440" 
d="M185.39 803.63c-17.5996 0 -28.6299 10.7402 -28.6299 28.3398c0 17.6104 11.0303 28.3408 28.6299 28.3408c17.3203 0 28.3398 -10.7305 28.3398 -28.3408c0 -17.5996 -11.0195 -28.3398 -28.3398 -28.3398zM301.18 803.63
c-17.5996 0 -28.9199 10.7402 -28.9199 28.3398c0 17.6104 11.3203 28.3408 28.9199 28.3408c17.6104 0 28.6299 -10.7305 28.6299 -28.3408c0 -17.5996 -11.0195 -28.3398 -28.6299 -28.3398zM116.26 30h280.68v-30h-312.84v700h309.66v-30h-277.5v-298.79h256.95v-30
h-256.95v-311.21z" />
    <glyph glyph-name="Edotaccent" unicode="&#x116;" horiz-adv-x="440" 
d="M243.29 806.79c-19.0596 0 -31.6592 12.5996 -31.6592 31.6494c0 19.0596 12.5996 31.6592 31.6592 31.6592c19.0498 0 31.6494 -12.5996 31.6494 -31.6592c0 -19.0498 -12.5996 -31.6494 -31.6494 -31.6494zM116.26 30h280.68v-30h-312.84v700h309.66v-30h-277.5
v-298.79h256.95v-30h-256.95v-311.21z" />
    <glyph glyph-name="Egrave" unicode="&#xc8;" horiz-adv-x="440" 
d="M274.34 771.13h-31.29l-95.7598 105.89h39.3096zM116.26 30h280.68v-30h-312.84v700h309.66v-30h-277.5v-298.79h256.95v-30h-256.95v-311.21z" />
    <glyph glyph-name="Emacron" unicode="&#x112;" horiz-adv-x="440" 
d="M326.76 834.79v-28.5596h-166.95v28.5596h166.95zM116.26 30h280.68v-30h-312.84v700h309.66v-30h-277.5v-298.79h256.95v-30h-256.95v-311.21z" />
    <glyph glyph-name="Eogonek" unicode="&#x118;" horiz-adv-x="446" 
d="M377.21 -163.29c9.4502 0 18.0215 0.709961 25.6016 2.29004v-28.5596c-8.87012 -1.86035 -20.6006 -3.15039 -31.0508 -3.15039c-49.9199 0 -76.7598 33.4697 -76.7598 72.0498c0 40.5801 29.2598 85.0996 72.5195 120.659h-283.42v700h309.66v-30h-277.5v-298.79
h258.37v-30h-258.37v-311.21h280.68v-30c-46.0703 -39.79 -71.9404 -81.21 -71.9404 -114.77c0 -32.1299 22.8398 -48.5195 52.21 -48.5195z" />
    <glyph glyph-name="F" unicode="F" horiz-adv-x="417" 
d="M386.6 670h-270.34v-310.21h251.21v-30h-251.21v-329.79h-32.1602v700h302.5v-30z" />
    <glyph glyph-name="G" unicode="G" horiz-adv-x="485" 
d="M245.6 -10c-101.92 0 -180.499 69.3096 -180.499 199.92v314.76c0 137.29 76.1299 205.32 177.63 205.32c101.64 0 177.35 -61.7695 180.21 -189.34h-31.5703c-4.29004 111.21 -65.6602 159.05 -148.641 159.05c-82.8398 0 -146.05 -53.9805 -146.05 -175.32v-314.47
c0 -112.82 65.6602 -169.63 148.92 -169.63c85.6904 0 152.061 56.8096 152.061 166.729v146.32h-154.48v29.71h185.76v-176.03c0 -127.71 -80.71 -197.02 -183.34 -197.02z" />
    <glyph glyph-name="Gbreve" unicode="&#x11e;" horiz-adv-x="485" 
d="M240 769.55c-60.4805 0 -100.77 40.5801 -101.63 105.34h28.5498c0.870117 -50.3896 27.3896 -78.0801 73.0801 -78.0801c45.6797 0 72.21 27.6904 73.0801 78.0801h28.5498c-0.870117 -64.7598 -41.1602 -105.34 -101.63 -105.34zM245.601 -10
c-101.92 0 -180.499 69.3096 -180.499 199.92v314.76c0 137.29 76.1299 205.32 177.63 205.32c101.64 0 177.35 -61.7695 180.21 -189.34h-31.5703c-4.29004 111.21 -65.6602 159.05 -148.641 159.05c-82.8398 0 -146.05 -53.9805 -146.05 -175.32v-314.47
c0 -112.82 65.6602 -169.63 148.92 -169.63c85.6904 0 152.061 56.8096 152.061 166.729v146.32h-154.48v29.71h185.76v-176.03c0 -127.71 -80.71 -197.02 -183.34 -197.02z" />
    <glyph glyph-name="uni0122" unicode="&#x122;" horiz-adv-x="485" 
d="M245.6 -10c-101.92 0 -180.499 69.3096 -180.499 199.92v314.76c0 137.29 76.1299 205.32 177.63 205.32c101.64 0 177.35 -61.7695 180.21 -189.34h-31.5703c-4.29004 111.21 -65.6602 159.05 -148.641 159.05c-82.8398 0 -146.05 -53.9805 -146.05 -175.32v-314.47
c0 -112.82 65.6602 -169.63 148.92 -169.63c85.6904 0 152.061 56.8096 152.061 166.729v146.32h-154.48v29.71h185.76v-176.03c0 -127.71 -80.71 -197.02 -183.34 -197.02zM209.471 -225.56l16.5801 159.4h36.5801l-27.7598 -159.4h-25.4004z" />
    <glyph glyph-name="Gdotaccent" unicode="&#x120;" horiz-adv-x="485" 
d="M240 806.79c-19.0596 0 -31.6592 12.5996 -31.6592 31.6494c0 19.0596 12.5996 31.6592 31.6592 31.6592c19.0498 0 31.6602 -12.5996 31.6602 -31.6592c0 -19.0498 -12.6104 -31.6494 -31.6602 -31.6494zM245.6 -10c-101.92 0 -180.499 69.3096 -180.499 199.92v314.76
c0 137.29 76.1299 205.32 177.63 205.32c101.64 0 177.35 -61.7695 180.21 -189.34h-31.5703c-4.29004 111.21 -65.6602 159.05 -148.641 159.05c-82.8398 0 -146.05 -53.9805 -146.05 -175.32v-314.47c0 -112.82 65.6602 -169.63 148.92 -169.63
c85.6904 0 152.061 56.8096 152.061 166.729v146.32h-154.48v29.71h185.76v-176.03c0 -127.71 -80.71 -197.02 -183.34 -197.02z" />
    <glyph glyph-name="H" unicode="H" horiz-adv-x="517" 
d="M400.79 700h32.1504v-700h-32.1504v341.21h-284.53v-341.21h-32.1602v700h32.1602v-328.5h284.53v328.5z" />
    <glyph glyph-name="Hbar" unicode="&#x126;" horiz-adv-x="527" 
d="M499.31 558.5v-26.1104h-61.1797v-532.39h-32.1602v341.21h-284.53v-341.21h-32.1504v532.39h-61.4805v26.1104h61.4805v141.5h32.1504v-141.5h284.53v141.5h32.1602v-141.5h61.1797zM405.97 371.5v160.89h-284.53v-160.89h284.53z" />
    <glyph glyph-name="I" unicode="I" horiz-adv-x="200" 
d="M84.0996 0v700h32.1602v-700h-32.1602z" />
    <glyph glyph-name="Iacute" unicode="&#xcd;" horiz-adv-x="200" 
d="M62.71 771.13l87.7295 105.89h39.3203l-95.7598 -105.89h-31.29zM84.0996 -0v700h32.1602v-700h-32.1602z" />
    <glyph glyph-name="Icircumflex" unicode="&#xce;" horiz-adv-x="200" 
d="M118.55 877.02l77.4502 -105.89h-29.71l-65.5303 82.9297l-65.5303 -82.9297h-29.71l77.4502 105.89h35.5801zM84.0996 -0v700h32.1602v-700h-32.1602z" />
    <glyph glyph-name="Idieresis" unicode="&#xcf;" horiz-adv-x="204" 
d="M50.0498 803.63c-17.6104 0 -28.6299 10.7402 -28.6299 28.3398c0 17.6104 11.0195 28.3408 28.6299 28.3408c17.3203 0 28.3398 -10.7305 28.3398 -28.3408c0 -17.5996 -11.0195 -28.3398 -28.3398 -28.3398zM153.52 803.63
c-17.5996 0 -28.9199 10.7402 -28.9199 28.3398c0 17.6104 11.3203 28.3408 28.9199 28.3408c17.6104 0 28.6406 -10.7305 28.6406 -28.3408c0 -17.5996 -11.0303 -28.3398 -28.6406 -28.3398zM85.1299 -0v700h32.1602v-700h-32.1602z" />
    <glyph glyph-name="Idotaccent" unicode="&#x130;" horiz-adv-x="200" 
d="M100.76 806.79c-19.0498 0 -31.6602 12.5996 -31.6602 31.6494c0 19.0596 12.6104 31.6592 31.6602 31.6592s31.6602 -12.5996 31.6602 -31.6592c0 -19.0498 -12.6104 -31.6494 -31.6602 -31.6494zM84.0996 0v700h32.1602v-700h-32.1602z" />
    <glyph glyph-name="Igrave" unicode="&#xcc;" horiz-adv-x="200" 
d="M131.81 771.13h-31.291l-95.7598 105.89h39.3203zM84.0986 -0v700h32.1602v-700h-32.1602z" />
    <glyph glyph-name="Imacron" unicode="&#x12a;" horiz-adv-x="200" 
d="M17.29 806.23v28.5596h166.94v-28.5596h-166.94zM84.0996 0v700h32.1602v-700h-32.1602z" />
    <glyph glyph-name="Iogonek" unicode="&#x12e;" horiz-adv-x="198" 
d="M113.5 -161.87c9.44043 0 18.0205 0.708984 25.6006 2.28906v-28.5498c-8.87012 -1.87012 -20.6006 -3.16016 -31.0508 -3.16016c-50.5 0 -77.6299 32.0498 -77.6299 72.9199c0 38.4199 19.3896 82.3701 52.3896 118.37v700h32.1602v-700
c-35.0996 -39.0801 -54.5498 -81.0801 -54.5498 -113.34c0 -33.8496 23.4199 -48.5293 53.0801 -48.5293z" />
    <glyph glyph-name="J" unicode="J" horiz-adv-x="219" 
d="M-7.11035 -71.0596v30.5791c77.5498 0 112.29 47.5 112.29 130.48v610h32.1602v-610c0 -99.6299 -47.3701 -161.06 -144.45 -161.06z" />
    <glyph glyph-name="K" unicode="K" horiz-adv-x="468" 
d="M416.66 0l-236.37 370.301l-64.0303 -85.1104v-285.19h-32.1602v700h32.1602v-365.54l33.5498 46.04l239.4 319.5h40.0498l-228.26 -302.25l253.42 -397.75h-37.7598z" />
    <glyph glyph-name="uni0136" unicode="&#x136;" horiz-adv-x="468" 
d="M201 397.75l253.42 -397.749h-37.7598l-236.37 370.3l-64.0303 -85.1104v-285.19h-32.1602v700h32.1602v-365.54l33.5498 46.04l239.4 319.5h40.0498zM221.66 -225.559l16.5693 159.4h36.5801l-27.7598 -159.4h-25.3896z" />
    <glyph glyph-name="L" unicode="L" horiz-adv-x="388" 
d="M116.26 30.5801h258.84v-30.5801h-291v700h32.1602v-669.42z" />
    <glyph glyph-name="Lacute" unicode="&#x139;" horiz-adv-x="388" 
d="M200.16 877.02l-95.7705 -105.89h-31.29l87.7402 105.89h39.3203zM116.26 30.5801h258.84v-30.5801h-291v700h32.1602v-669.42z" />
    <glyph glyph-name="Lcaron" unicode="&#x13d;" horiz-adv-x="380" 
d="M116.26 30h251.08v-30h-283.24v700h32.1602v-670zM287.02 700l-22.7598 -154.06h-23.5303l9 154.06h37.29z" />
    <glyph glyph-name="uni013B" unicode="&#x13b;" horiz-adv-x="388" 
d="M116.26 30.5801h258.84v-30.5801h-291v700h32.1602v-669.42zM194.39 -225.56l16.5801 159.4h36.5801l-27.7598 -159.4h-25.4004z" />
    <glyph glyph-name="Lslash" unicode="&#x141;" horiz-adv-x="406" 
d="M142.13 30h251.08v-30h-283.24v335.52l-81.71 -31.8896v31.29l81.71 31.8799v333.2h32.1602v-320.65l138.81 54.1699v-31.29l-138.81 -54.1699v-318.06z" />
    <glyph glyph-name="M" unicode="M" horiz-adv-x="626" 
d="M508.29 700h34.0205v-697.87h-32.1504v515.66c0 38.4697 0.570312 74.8896 1.73047 109.89l-1.16016 0.290039c-11.5996 -30.0996 -26.0996 -64.4199 -40.0195 -99.4502l-141.42 -345.76h-32.1602l-141.42 345.76c-13.9199 35.0303 -28.4199 69.3506 -40.0303 99.4502
l-1.16016 -0.290039c1.16016 -35 1.74023 -71.4199 1.74023 -109.89v-515.66h-32.1602v697.87h34.0303l155.55 -377.32c13.0303 -31.5 27.3701 -70.8096 38.9502 -100.579h1.16016c11.5801 29.7695 25.9199 69.0791 38.9395 100.579z" />
    <glyph glyph-name="N" unicode="N" horiz-adv-x="529" 
d="M84.0996 0v700h32.7402l250.1 -531.63c15.4805 -32.2402 33.7207 -73.3203 46.8711 -102.66l0.870117 0.290039c-0.870117 29.6797 -2.31055 70.2295 -2.31055 102.52v531.48h32.1504v-700h-32.7305l-252.11 535.34c-14.1797 29.9502 -32.4199 72.4697 -44 98.9502
l-0.870117 -0.290039c0.580078 -33.8203 1.4502 -75.4502 1.4502 -109.84v-524.16h-32.1602z" />
    <glyph glyph-name="Nacute" unicode="&#x143;" horiz-adv-x="529" 
d="M227.68 771.13l87.7402 105.89h39.3096l-95.7598 -105.89h-31.29zM84.0996 -0v700h32.7402l250.1 -531.63c15.4805 -32.2402 33.7207 -73.3203 46.8711 -102.66l0.870117 0.290039c-0.870117 29.6797 -2.31055 70.2295 -2.31055 102.52v531.48h32.1504v-700h-32.7305
l-252.11 535.34c-14.1797 29.9502 -32.4199 72.4697 -44 98.9502l-0.870117 -0.290039c0.580078 -33.8203 1.4502 -75.4502 1.4502 -109.84v-524.16h-32.1602z" />
    <glyph glyph-name="Ncaron" unicode="&#x147;" horiz-adv-x="529" 
d="M283.23 771.13h-35.5693l-77.4502 105.89h29.71l65.5195 -82.9199l65.5303 82.9199h29.71zM412.371 700h32.1504v-700h-32.7305l-252.11 535.34c-14.1797 29.9502 -32.4199 72.4697 -44 98.9502l-0.870117 -0.290039c0.580078 -33.8203 1.4502 -75.4502 1.4502 -109.84
v-524.16h-32.1602v700h32.7402l250.1 -531.63c15.4805 -32.2402 33.7207 -73.3203 46.8711 -102.66l0.870117 0.290039c-0.870117 29.6797 -2.31055 70.2295 -2.31055 102.52v531.48z" />
    <glyph glyph-name="uni0145" unicode="&#x145;" horiz-adv-x="529" 
d="M84.0996 0v700h32.7402l250.1 -531.63c15.4805 -32.2402 33.7207 -73.3203 46.8711 -102.66l0.870117 0.290039c-0.870117 29.6797 -2.31055 70.2295 -2.31055 102.52v531.48h32.1504v-700h-32.7305l-252.11 535.34c-14.1797 29.9502 -32.4199 72.4697 -44 98.9502
l-0.870117 -0.290039c0.580078 -33.8203 1.4502 -75.4502 1.4502 -109.84v-524.16h-32.1602zM235.21 -225.56l16.5791 159.4h36.5801l-27.7695 -159.4h-25.3896z" />
    <glyph glyph-name="Eng" unicode="&#x14a;" horiz-adv-x="529" 
d="M412.37 700h32.1504v-740.66c0 -92.0303 -50.1504 -158.16 -151.65 -160.58v29.29c83.5498 2.70996 120.359 55.3398 120.359 131.29v38.4902l-254.71 539.83c-14.7598 31.0996 -31.2598 70.1494 -42.8398 96.6299l-0.870117 -0.290039
c0.580078 -33.8203 1.4502 -75.4502 1.4502 -109.84v-524.16h-32.1602v700h32.7402l251.84 -533.95c15.4805 -33.9697 32.5508 -73.8896 46.001 -104.97l0.870117 0.290039c-1.4502 30.5498 -3.18066 72.5498 -3.18066 105.71v532.92z" />
    <glyph glyph-name="Ntilde" unicode="&#xd1;" horiz-adv-x="529" 
d="M308.02 798.55c-41.4199 0 -52.4395 46.9189 -83.6797 46.9189c-17.4004 0 -29.0801 -15.6797 -30.3701 -44.6299h-29.1299c1.29004 43.0303 25.1602 71.6006 58.7598 71.6006c43.1299 0 53.4502 -46.9199 83.6904 -46.9199c17.9697 0 30.2295 15.6904 31.5195 44.6406
h27.9805c-2.87012 -43.7402 -24.7402 -71.6104 -58.7705 -71.6104zM84.0996 -0.000976562v700h32.7402l250.1 -531.63c15.4805 -32.2402 33.7207 -73.3203 46.8711 -102.66l0.870117 0.290039c-0.870117 29.6797 -2.31055 70.2295 -2.31055 102.52v531.48h32.1504v-700
h-32.7305l-252.11 535.34c-14.1797 29.9502 -32.4199 72.4697 -44 98.9502l-0.870117 -0.290039c0.580078 -33.8203 1.4502 -75.4502 1.4502 -109.84v-524.16h-32.1602z" />
    <glyph glyph-name="O" unicode="O" horiz-adv-x="508" 
d="M254.02 -11.5801c-116.05 0 -188.92 74.0801 -188.92 210.811v300.82c0 137.45 72.8701 211.53 188.92 211.53c116.06 0 188.92 -74.0801 188.92 -211.53v-300.82c0 -136.73 -72.8604 -210.811 -188.92 -210.811zM254.02 19.29c97.4004 0 156.48 60.5801 156.48 179.94
v300.82c0 120.08 -59.0801 180.66 -156.48 180.66c-97.3896 0 -156.47 -60.5801 -156.47 -180.66v-300.82c0 -119.36 59.0801 -179.94 156.47 -179.94z" />
    <glyph glyph-name="Oacute" unicode="&#xd3;" horiz-adv-x="508" 
d="M215.97 771.13l87.7402 105.89h39.3096l-95.7598 -105.89h-31.29zM254.02 -11.5801c-116.05 0 -188.92 74.0801 -188.92 210.811v300.82c0 137.45 72.8701 211.53 188.92 211.53c116.06 0 188.92 -74.0801 188.92 -211.53v-300.82
c0 -136.73 -72.8604 -210.811 -188.92 -210.811zM254.02 19.29c97.4004 0 156.48 60.5801 156.48 179.94v300.82c0 120.08 -59.0801 180.66 -156.48 180.66c-97.3896 0 -156.47 -60.5801 -156.47 -180.66v-300.82c0 -119.36 59.0801 -179.94 156.47 -179.94z" />
    <glyph glyph-name="Ocircumflex" unicode="&#xd4;" horiz-adv-x="508" 
d="M254.02 854.06l-65.5205 -82.9297h-29.71l77.4404 105.89h35.5801l77.4502 -105.89h-29.71zM254.019 711.58c116.06 0 188.92 -74.0801 188.92 -211.53v-300.82c0 -136.73 -72.8604 -210.811 -188.92 -210.811c-116.05 0 -188.92 74.0801 -188.92 210.811v300.82
c0 137.45 72.8701 211.53 188.92 211.53zM410.499 199.23v300.82c0 120.08 -59.0801 180.66 -156.48 180.66c-97.3896 0 -156.47 -60.5801 -156.47 -180.66v-300.82c0 -119.36 59.0801 -179.94 156.47 -179.94c97.4004 0 156.48 60.5801 156.48 179.94z" />
    <glyph glyph-name="Odieresis" unicode="&#xd6;" horiz-adv-x="508" 
d="M196.13 803.63c-17.6104 0 -28.6299 10.7402 -28.6299 28.3398c0 17.6104 11.0195 28.3408 28.6299 28.3408c17.3096 0 28.3398 -10.7305 28.3398 -28.3408c0 -17.5996 -11.0303 -28.3398 -28.3398 -28.3398zM311.92 803.63
c-17.6104 0 -28.9199 10.7402 -28.9199 28.3398c0 17.6104 11.3096 28.3408 28.9199 28.3408c17.5996 0 28.6299 -10.7305 28.6299 -28.3408c0 -17.5996 -11.0303 -28.3398 -28.6299 -28.3398zM254.02 -11.5801c-116.05 0 -188.92 74.0801 -188.92 210.811v300.82
c0 137.45 72.8701 211.53 188.92 211.53c116.06 0 188.92 -74.0801 188.92 -211.53v-300.82c0 -136.73 -72.8604 -210.811 -188.92 -210.811zM254.02 19.29c97.4004 0 156.48 60.5801 156.48 179.94v300.82c0 120.08 -59.0801 180.66 -156.48 180.66
c-97.3896 0 -156.47 -60.5801 -156.47 -180.66v-300.82c0 -119.36 59.0801 -179.94 156.47 -179.94z" />
    <glyph glyph-name="Ograve" unicode="&#xd2;" horiz-adv-x="508" 
d="M285.08 771.13h-31.291l-95.7695 105.89h39.3203zM254.02 -11.5801c-116.05 0 -188.92 74.0801 -188.92 210.811v300.82c0 137.45 72.8701 211.53 188.92 211.53c116.06 0 188.92 -74.0801 188.92 -211.53v-300.82c0 -136.73 -72.8604 -210.811 -188.92 -210.811z
M254.02 19.29c97.4004 0 156.48 60.5801 156.48 179.94v300.82c0 120.08 -59.0801 180.66 -156.48 180.66c-97.3896 0 -156.47 -60.5801 -156.47 -180.66v-300.82c0 -119.36 59.0801 -179.94 156.47 -179.94z" />
    <glyph glyph-name="Ohungarumlaut" unicode="&#x150;" horiz-adv-x="508" 
d="M179.21 771.13l73.6797 105.89h37.1602l-82 -105.89h-28.8398zM270.1 771.13l76.9795 105.89h37.1504l-84.5703 -105.89h-29.5596zM254.02 -11.5801c-116.05 0 -188.92 74.0801 -188.92 210.811v300.82c0 137.45 72.8701 211.53 188.92 211.53
c116.06 0 188.92 -74.0801 188.92 -211.53v-300.82c0 -136.73 -72.8604 -210.811 -188.92 -210.811zM254.02 19.29c97.4004 0 156.48 60.5801 156.48 179.94v300.82c0 120.08 -59.0801 180.66 -156.48 180.66c-97.3896 0 -156.47 -60.5801 -156.47 -180.66v-300.82
c0 -119.36 59.0801 -179.94 156.47 -179.94z" />
    <glyph glyph-name="Omacron" unicode="&#x14c;" horiz-adv-x="508" 
d="M170.55 806.23v28.5596h166.95v-28.5596h-166.95zM254.02 -11.5801c-116.05 0 -188.92 74.0801 -188.92 210.811v300.82c0 137.45 72.8701 211.53 188.92 211.53c116.06 0 188.92 -74.0801 188.92 -211.53v-300.82c0 -136.73 -72.8604 -210.811 -188.92 -210.811z
M254.02 19.29c97.4004 0 156.48 60.5801 156.48 179.94v300.82c0 120.08 -59.0801 180.66 -156.48 180.66c-97.3896 0 -156.47 -60.5801 -156.47 -180.66v-300.82c0 -119.36 59.0801 -179.94 156.47 -179.94z" />
    <glyph glyph-name="Oslash" unicode="&#xd8;" horiz-adv-x="506" 
d="M371.45 674.71c44.4697 -34.7695 69.7588 -93.8096 69.7588 -174.939v-300.24c0 -136.73 -72.5801 -210.811 -188.05 -210.811c-31.3203 0 -59.4805 5.4502 -83.8906 16.1104l-16.3496 -54.1602h-30.5801l20.71 68.5996c-49.54 33.71 -77.9502 94.71 -77.9502 180.25
v300.24c0 137.45 72.5801 211.53 188.061 211.53c35.1299 0 66.2803 -6.86035 92.6406 -20.2705l17.1699 56.9004h30.5801zM97.5488 199.529c0 -69.2002 19.7588 -118.65 55.2393 -147.98l183.73 608.73c-23.0498 13.4199 -51.0996 20.1504 -83.3594 20.1504
c-96.8203 0 -155.61 -60.5801 -155.61 -180.66v-300.24zM408.758 199.529l0.00195312 300.24c0 64.2998 -16.8604 111.54 -47.3906 141.55l-182.96 -606.2c21.3096 -10.3398 46.3994 -15.5303 74.749 -15.5303c96.8096 0 155.6 60.5801 155.6 179.94z" />
    <glyph glyph-name="Otilde" unicode="&#xd5;" horiz-adv-x="508" 
d="M296.31 798.55c-41.4199 0 -52.4395 46.9189 -83.6797 46.9189c-17.4004 0 -29.0801 -15.6797 -30.3701 -44.6299h-29.1299c1.29004 43.0303 25.1602 71.6006 58.7598 71.6006c43.1299 0 53.4502 -46.9199 83.6904 -46.9199c17.9697 0 30.2295 15.6904 31.5195 44.6406
h27.9805c-2.87012 -43.7402 -24.7402 -71.6104 -58.7705 -71.6104zM254.02 -11.5811c-116.05 0 -188.92 74.0801 -188.92 210.811v300.82c0 137.45 72.8701 211.53 188.92 211.53c116.06 0 188.92 -74.0801 188.92 -211.53v-300.82
c0 -136.73 -72.8604 -210.811 -188.92 -210.811zM254.02 19.2891c97.4004 0 156.48 60.5801 156.48 179.94v300.82c0 120.08 -59.0801 180.66 -156.48 180.66c-97.3896 0 -156.47 -60.5801 -156.47 -180.66v-300.82c0 -119.36 59.0801 -179.94 156.47 -179.94z" />
    <glyph glyph-name="OE" unicode="&#x152;" horiz-adv-x="764" 
d="M441.52 30l279.27 -0.000976562v-30h-311.42v77.1602c-30.0303 -58.3301 -84.9902 -88.7402 -154.641 -88.7402c-116.76 0 -189.63 74.0801 -189.63 210.811v300.82c0 137.45 72.8701 211.53 189.63 211.53c70.1201 0 125.351 -31.46 154.641 -93.6201v82.04h308.23v-30
h-276.08v-298.79h256.95v-30h-256.95v-311.21zM409.079 199.229v300.82c0 120.08 -58.3701 180.66 -154.351 180.66c-98.0996 0 -157.18 -60.5801 -157.18 -180.66v-300.82c0 -119.36 59.0801 -179.94 157.18 -179.94c95.9805 0 154.351 60.5801 154.351 179.94z" />
    <glyph glyph-name="P" unicode="P" horiz-adv-x="469" 
d="M427.94 492.1c0.719727 -136.18 -70.2803 -214.31 -194.311 -214.31h-117.37v-277.79h-32.1602v700h149.53c124.03 0 193.601 -76.5801 194.311 -207.9zM395.79 492.1c0.709961 113.24 -56.0801 177.32 -162.16 177.32h-117.37v-361.05h117.37
c106.08 0 161.45 65.6299 162.16 183.729z" />
    <glyph glyph-name="Thorn" unicode="&#xde;" horiz-adv-x="450" 
d="M421.55 363c0.709961 -143.29 -77.3896 -214.32 -191.47 -214.32h-113.82v-146.55h-32.1602v697.87h32.1602v-129.11h112.4c123.31 0 192.18 -72.3096 192.89 -207.89zM389.39 363c0.709961 119.63 -53.9492 177.31 -160.729 177.31h-112.4v-361.05h113.82
c96.8398 0 158.6 56.4004 159.31 183.74z" />
    <glyph glyph-name="Q" unicode="Q" horiz-adv-x="510" 
d="M445.37 -28.6904l-21.5303 -19.3701l-58.8301 67.2695c-29.8398 -20.3203 -67.3594 -30.79 -110.989 -30.79c-116.05 0 -188.92 74.0801 -188.92 210.811v300.82c0 137.45 72.8701 211.53 188.92 211.53c116.06 0 188.92 -74.0801 188.92 -211.53v-300.82
c0 -71.5498 -19.9502 -125.95 -55.6104 -161.55zM254.02 19.2891c35.4004 0 65.7402 8 90.0098 23.9102l-83.9297 95.9805l21.5303 19.3701l84.6299 -96.7803c28.5498 30.04 44.2402 75.9502 44.2402 137.46v300.82c0 120.08 -59.0801 180.66 -156.48 180.66
c-97.3896 0 -156.47 -60.5801 -156.47 -180.66v-300.82c0 -119.36 59.0801 -179.94 156.47 -179.94z" />
    <glyph glyph-name="R" unicode="R" horiz-adv-x="462" 
d="M390.81 0l-168.94 294.31h-105.61v-294.31h-32.1602v700h147.92c121.19 0 184.37 -70.0303 184.37 -199.32c0 -122.14 -60.1396 -196.89 -160.18 -205.52l170.37 -295.16h-35.7695zM116.259 669.71v-345.11h124c88.1602 0 143.68 59.1299 143.68 174.92
c0 114.21 -51.2598 170.19 -151.92 170.19h-115.76z" />
    <glyph glyph-name="Racute" unicode="&#x154;" horiz-adv-x="462" 
d="M313.02 877.02l-95.7598 -105.89h-31.29l87.7402 105.89h39.3096zM390.81 -0l-168.94 294.31h-105.61v-294.31h-32.1602v700h147.92c121.19 0 184.37 -70.0303 184.37 -199.32c0 -122.14 -60.1396 -196.89 -160.18 -205.52l170.37 -295.16h-35.7695zM116.259 669.71
v-345.11h124c88.1602 0 143.68 59.1299 143.68 174.92c0 114.21 -51.2598 170.19 -151.92 170.19h-115.76z" />
    <glyph glyph-name="Rcaron" unicode="&#x158;" horiz-adv-x="462" 
d="M241.52 771.13h-35.5791l-77.4404 105.89h29.71l65.5195 -82.9297l65.5303 82.9297h29.71zM390.811 -0l-168.94 294.31h-105.61v-294.31h-32.1602v700h147.92c121.19 0 184.37 -70.0303 184.37 -199.32c0 -122.14 -60.1396 -196.89 -160.18 -205.52l170.37 -295.16
h-35.7695zM116.26 669.71v-345.11h124c88.1602 0 143.68 59.1299 143.68 174.92c0 114.21 -51.2598 170.19 -151.92 170.19h-115.76z" />
    <glyph glyph-name="uni0156" unicode="&#x156;" horiz-adv-x="462" 
d="M256.21 295.16l170.37 -295.16h-35.7695l-168.94 294.31h-105.61v-294.31h-32.1602v700h147.92c121.19 0 184.37 -70.0303 184.37 -199.32c0 -122.14 -60.1396 -196.89 -160.18 -205.52zM116.26 669.71v-345.11h124c88.1602 0 143.68 59.1299 143.68 174.92
c0 114.21 -51.2598 170.19 -151.92 170.19h-115.76zM207.47 -225.561l16.5801 159.4h36.5801l-27.7598 -159.4h-25.4004z" />
    <glyph glyph-name="S" unicode="S" horiz-adv-x="431" 
d="M214.92 -11.5801c-105.34 0 -167.841 72.0186 -174.4 174.519h32.1602c8.69043 -89.8398 57.9805 -143.649 142.37 -143.649c88.5498 0 139.08 59.3896 139.08 138.939c0 183.32 -307.16 192.141 -307.16 392.291c0 93.8701 69.4502 161.061 166.08 161.061
c96.5 0 160.24 -68.0596 167.37 -172.369h-32.1602c-8.25977 92.2598 -57.6797 141.5 -133.92 141.5c-79.5498 0 -134.92 -52.5303 -134.92 -130.19c0 -178.34 307.16 -185.84 307.16 -392.29c0 -92.8604 -64.29 -169.811 -171.66 -169.811z" />
    <glyph glyph-name="Sacute" unicode="&#x15a;" horiz-adv-x="431" 
d="M175.44 771.13l87.7393 105.89h39.3203l-95.7695 -105.89h-31.29zM214.92 -11.5801c-105.34 0 -167.841 72.0186 -174.4 174.519h32.1602c8.69043 -89.8398 57.9805 -143.649 142.37 -143.649c88.5498 0 139.08 59.3896 139.08 138.939
c0 183.32 -307.16 192.141 -307.16 392.291c0 93.8701 69.4502 161.061 166.08 161.061c96.5 0 160.24 -68.0596 167.37 -172.369h-32.1602c-8.25977 92.2598 -57.6797 141.5 -133.92 141.5c-79.5498 0 -134.92 -52.5303 -134.92 -130.19
c0 -178.34 307.16 -185.84 307.16 -392.29c0 -92.8604 -64.29 -169.811 -171.66 -169.811z" />
    <glyph glyph-name="Scaron" unicode="&#x160;" horiz-adv-x="431" 
d="M231 771.13h-35.5791l-77.4502 105.89h29.71l65.5303 -82.9199l65.5195 82.9199h29.71zM79.4209 550.52c0 -178.34 307.159 -185.841 307.159 -392.291c0 -92.8604 -64.29 -169.811 -171.66 -169.811c-105.34 0 -167.84 72.0195 -174.399 174.52h32.1602
c8.69043 -89.8398 57.9805 -143.649 142.37 -143.649c88.5498 0 139.08 59.3896 139.08 138.939c0 183.32 -307.16 192.141 -307.16 392.291c0 93.8701 69.4502 161.061 166.08 161.061c96.5 0 160.24 -68.0596 167.37 -172.369h-32.1602
c-8.25977 92.2598 -57.6797 141.5 -133.92 141.5c-79.5498 0 -134.92 -52.5303 -134.92 -130.19z" />
    <glyph glyph-name="Scedilla" unicode="&#x15e;" horiz-adv-x="431" 
d="M386.58 158.23c0 -92.5098 -63.8008 -169.22 -170.421 -169.81l-14.1396 -44.1104c6.13965 1.70996 11.8496 2.41992 21.8193 2.41992c39.8398 0 68.8701 -26.71 68.8701 -65c0 -43.3096 -34.0303 -69.1797 -82.7705 -69.1797
c-46.2803 0 -81.1504 31.6797 -82.3105 67.3193h27.6797c3.29004 -25.8203 24.9805 -41.5 55.2109 -41.5c31.8203 0 54.79 15.2598 54.79 43.6494c0 26.2695 -19.6797 43.3691 -45.3896 43.3691c-16.2598 0.709961 -27.5498 -1.58008 -35.9795 -5.58008l-10.5996 11.0303
l18.6904 58.7695c-91.4805 9.74023 -145.44 78.4902 -151.511 173.33h32.1602c8.69043 -89.8398 57.9805 -143.649 142.37 -143.649c88.5498 0 139.08 59.3896 139.08 138.939c0 183.32 -307.16 192.141 -307.16 392.291c0 93.8701 69.4502 161.061 166.08 161.061
c96.5 0 160.24 -68.0596 167.37 -172.369h-32.1602c-8.25977 92.2598 -57.6797 141.5 -133.92 141.5c-79.5498 0 -134.92 -52.5303 -134.92 -130.19c0 -178.34 307.16 -185.84 307.16 -392.29z" />
    <glyph glyph-name="uni0218" unicode="&#x218;" horiz-adv-x="431" 
d="M214.92 -11.5801c-105.34 0 -167.841 72.0186 -174.4 174.519h32.1602c8.69043 -89.8398 57.9805 -143.649 142.37 -143.649c88.5498 0 139.08 59.3896 139.08 138.939c0 183.32 -307.16 192.141 -307.16 392.291c0 93.8701 69.4502 161.061 166.08 161.061
c96.5 0 160.24 -68.0596 167.37 -172.369h-32.1602c-8.25977 92.2598 -57.6797 141.5 -133.92 141.5c-79.5498 0 -134.92 -52.5303 -134.92 -130.19c0 -178.34 307.16 -185.84 307.16 -392.29c0 -92.8604 -64.29 -169.811 -171.66 -169.811zM191.709 -225.562l16.5791 159.4
h36.5801l-27.7695 -159.4h-25.3896z" />
    <glyph glyph-name="T" unicode="T" horiz-adv-x="397" 
d="M373.08 700v-30.29h-160.4v-669.71h-32.1602v669.71h-156.84v30.29h349.4z" />
    <glyph glyph-name="Tbar" unicode="&#x166;" horiz-adv-x="397" 
d="M373.08 669.71h-158.27v-289.55h88.2695v-26.8203h-88.2695v-353.34h-32.1504v353.34h-88.2695v26.8203h88.2695v289.55h-158.98v30.29h349.4v-30.29z" />
    <glyph glyph-name="Tcaron" unicode="&#x164;" horiz-adv-x="397" 
d="M214.1 771.13h-35.5791l-77.4404 105.89h29.71l65.5195 -82.9297l65.5303 82.9297h29.71zM373.08 700v-30.29h-160.4v-669.71h-32.1602v669.71h-156.84v30.29h349.4z" />
    <glyph glyph-name="uni0162" unicode="&#x162;" horiz-adv-x="397" 
d="M212.68 0l-3.31055 0.00195312l-17.8496 -55.6904c6.13965 1.70996 11.8496 2.41992 21.8193 2.41992c39.8398 0 68.8701 -26.71 68.8701 -65c0 -43.3096 -34.0303 -69.1797 -82.7705 -69.1797c-46.2803 0 -81.1504 31.6797 -82.3105 67.3193h27.6797
c3.29004 -25.8203 24.9805 -41.5 55.2109 -41.5c31.8203 0 54.79 15.2598 54.79 43.6494c0 26.2695 -19.6797 43.3691 -45.3896 43.3691c-16.2598 0.709961 -27.5498 -1.58008 -35.9795 -5.58008l-10.5996 11.0303l22 69.1602h-4.32031v669.71h-156.84v30.29h349.4v-30.29
h-160.4v-669.71z" />
    <glyph glyph-name="uni021A" unicode="&#x21a;" horiz-adv-x="397" 
d="M23.6797 700h349.4v-30.29h-160.4v-669.71h-32.1602v669.71h-156.84v30.29zM166.37 -225.56l16.5693 159.4h36.5801l-27.7598 -159.4h-25.3896z" />
    <glyph glyph-name="U" unicode="U" horiz-adv-x="496" 
d="M247.76 -9.70996c-106.32 0 -176.08 69.4404 -176.08 199.5v510.21h32.1602v-510.21c0 -112.4 56.5498 -168.631 143.92 -168.631s143.92 56.2305 143.92 168.631v510.21h32.1602v-510.21c0 -130.06 -69.7598 -199.5 -176.08 -199.5z" />
    <glyph glyph-name="Uacute" unicode="&#xda;" horiz-adv-x="496" 
d="M209.71 771.13l87.7295 105.89h39.3203l-95.7598 -105.89h-31.29zM247.76 -9.71094c-106.32 0 -176.08 69.4404 -176.08 199.5v510.21h32.1602v-510.21c0 -112.4 56.5498 -168.631 143.92 -168.631s143.92 56.2305 143.92 168.631v510.21h32.1602v-510.21
c0 -130.06 -69.7598 -199.5 -176.08 -199.5z" />
    <glyph glyph-name="Ucircumflex" unicode="&#xdb;" horiz-adv-x="496" 
d="M247.76 854.06l-65.5303 -82.9297h-29.71l77.4502 105.89h35.5801l77.4502 -105.89h-29.71zM391.68 700h32.1602v-510.21c0 -130.06 -69.7598 -199.5 -176.08 -199.5s-176.08 69.4404 -176.08 199.5v510.21h32.1602v-510.21c0 -112.4 56.5498 -168.631 143.92 -168.631
s143.92 56.2305 143.92 168.631v510.21z" />
    <glyph glyph-name="Udieresis" unicode="&#xdc;" horiz-adv-x="496" 
d="M189.87 803.63c-17.6104 0 -28.6406 10.7402 -28.6406 28.3398c0 17.6104 11.0303 28.3408 28.6406 28.3408c17.3096 0 28.3398 -10.7305 28.3398 -28.3408c0 -17.5996 -11.0303 -28.3398 -28.3398 -28.3398zM305.66 803.63
c-17.6104 0 -28.9307 10.7402 -28.9307 28.3398c0 17.6104 11.3203 28.3408 28.9307 28.3408c17.5996 0 28.6299 -10.7305 28.6299 -28.3408c0 -17.5996 -11.0303 -28.3398 -28.6299 -28.3398zM247.76 -9.70996c-106.32 0 -176.08 69.4404 -176.08 199.5v510.21h32.1602
v-510.21c0 -112.4 56.5498 -168.631 143.92 -168.631s143.92 56.2305 143.92 168.631v510.21h32.1602v-510.21c0 -130.06 -69.7598 -199.5 -176.08 -199.5z" />
    <glyph glyph-name="Ugrave" unicode="&#xd9;" horiz-adv-x="496" 
d="M278.81 771.13h-31.291l-95.7598 105.89h39.3203zM247.759 -9.70996c-106.32 0 -176.08 69.4404 -176.08 199.5v510.21h32.1602v-510.21c0 -112.4 56.5498 -168.631 143.92 -168.631s143.92 56.2305 143.92 168.631v510.21h32.1602v-510.21
c0 -130.06 -69.7598 -199.5 -176.08 -199.5z" />
    <glyph glyph-name="Uhungarumlaut" unicode="&#x170;" horiz-adv-x="496" 
d="M172.94 771.13l73.6895 105.89h37.1602l-82 -105.89h-28.8496zM263.84 771.13l76.9697 105.89h37.1602l-84.5801 -105.89h-29.5498zM247.76 -9.71094c-106.32 0 -176.08 69.4404 -176.08 199.5v510.21h32.1602v-510.21c0 -112.4 56.5498 -168.631 143.92 -168.631
s143.92 56.2305 143.92 168.631v510.21h32.1602v-510.21c0 -130.06 -69.7598 -199.5 -176.08 -199.5z" />
    <glyph glyph-name="Umacron" unicode="&#x16a;" horiz-adv-x="496" 
d="M164.29 806.23v28.5596h166.94v-28.5596h-166.94zM247.76 -9.70996c-106.32 0 -176.08 69.4404 -176.08 199.5v510.21h32.1602v-510.21c0 -112.4 56.5498 -168.631 143.92 -168.631s143.92 56.2305 143.92 168.631v510.21h32.1602v-510.21
c0 -130.06 -69.7598 -199.5 -176.08 -199.5z" />
    <glyph glyph-name="Uogonek" unicode="&#x172;" horiz-adv-x="494" 
d="M304.26 -191.29c-49.9199 0 -76.7598 33.1797 -76.7598 72.0498c0 38.4502 27.4199 80 67.0996 115.26l-0.290039 1c-14.4199 -4.15039 -30.1299 -6.73047 -47.1299 -6.73047c-106.02 0 -175.5 69.7305 -175.5 197.471v512.24h32.1602v-512.24
c0 -110.08 56.2598 -166.6 143.05 -166.6s143.05 56.5195 143.05 166.6v512.24h32.1602v-512.24c0 -90.29 -32.8398 -137.24 -76.8896 -171.34c-55.9502 -44.8701 -87.71 -92.4502 -87.71 -130.05c0 -32.71 23.1299 -48.2402 52.21 -48.2402
c9.4502 0 18.0205 0.709961 25.6006 2.29004v-28.5498c-8.87012 -1.87012 -20.6006 -3.16016 -31.0508 -3.16016z" />
    <glyph glyph-name="Uring" unicode="&#x16e;" horiz-adv-x="496" 
d="M247.76 775.37c-37.0303 0 -62.1807 25.1504 -62.1807 62.6006c0 36.4502 25.1504 60.6104 62.1807 60.6104s62.1807 -24.1602 62.1807 -60.6104c0 -37.4502 -25.1504 -62.6006 -62.1807 -62.6006zM247.76 798.16c22.9697 0 38.1094 15.5498 38.1094 38.8096
c0 22.9697 -15.1396 38.8193 -38.1094 38.8193c-23.2598 0 -38.0996 -15.8496 -38.0996 -38.8193c0 -23.2598 14.8398 -38.8096 38.0996 -38.8096zM247.76 -9.70996c-106.32 0 -176.08 69.4404 -176.08 199.5v510.21h32.1602v-510.21
c0 -112.4 56.5498 -168.631 143.92 -168.631s143.92 56.2305 143.92 168.631v510.21h32.1602v-510.21c0 -130.06 -69.7598 -199.5 -176.08 -199.5z" />
    <glyph glyph-name="V" unicode="V" horiz-adv-x="429" 
d="M195.39 0l-181.552 699.999h34.7402l128.44 -509.06c13.4502 -52.8096 24.4502 -100.55 36.7402 -147.859h1.16016c11.5801 46.5996 24 96.4697 36.7402 148.58l128.44 508.34h34.7402l-181.55 -700h-37.9004z" />
    <glyph glyph-name="W" unicode="W" horiz-adv-x="672" 
d="M165.29 0l-151.449 700h34.4502l105.05 -507.32c9.29004 -46.7402 22.1797 -106.08 29.7393 -146.74h1.15039c8.13965 40.6602 19.8701 97.1104 30.3203 149.641l103.89 494.13h35.3203l101.76 -484.19c11.1602 -55.3604 23.6104 -116.08 32.4502 -159.58h1.16016
c8.25977 43.5 21.8701 106.4 31.8701 155.98l102.92 498.08h34.4502l-151.45 -700h-37.0303l-103.47 472.66c-10.1602 49.5996 -21.9004 114.97 -29.7402 164.569h-1.16016c-7.83984 -49.5996 -19.5801 -114.97 -29.7305 -164.569l-103.48 -472.66h-37.0195z" />
    <glyph glyph-name="Wacute" unicode="&#x1e82;" horiz-adv-x="672" 
d="M298.76 771.13l87.7402 105.89h39.3096l-95.7598 -105.89h-31.29zM165.29 -0l-151.449 700h34.4502l105.05 -507.32c9.29004 -46.7402 22.1797 -106.08 29.7393 -146.74h1.15039c8.13965 40.6602 19.8701 97.1104 30.3203 149.641l103.89 494.13h35.3203l101.76 -484.19
c11.1602 -55.3604 23.6104 -116.08 32.4502 -159.58h1.16016c8.25977 43.5 21.8701 106.4 31.8701 155.98l102.92 498.08h34.4502l-151.45 -700h-37.0303l-103.47 472.66c-10.1602 49.5996 -21.9004 114.97 -29.7402 164.569h-1.16016
c-7.83984 -49.5996 -19.5801 -114.97 -29.7305 -164.569l-103.48 -472.66h-37.0195z" />
    <glyph glyph-name="Wcircumflex" unicode="&#x174;" horiz-adv-x="672" 
d="M336.81 854.06l-65.5205 -82.9297h-29.71l77.4404 105.89h35.5801l77.4502 -105.89h-29.71zM623.919 700h34.4512l-151.45 -700h-37.0303l-103.47 472.66c-10.1602 49.5996 -21.9004 114.97 -29.7402 164.569h-1.16016
c-7.83984 -49.5996 -19.5801 -114.97 -29.7305 -164.569l-103.48 -472.66h-37.0195l-151.45 700h34.4502l105.05 -507.32c9.29004 -46.7402 22.1797 -106.08 29.7393 -146.74h1.15039c8.13965 40.6602 19.8701 97.1104 30.3203 149.641l103.89 494.13h35.3203
l101.76 -484.19c11.1602 -55.3604 23.6104 -116.08 32.4502 -159.58h1.16016c8.25977 43.5 21.8701 106.4 31.8701 155.98z" />
    <glyph glyph-name="Wdieresis" unicode="&#x1e84;" horiz-adv-x="672" 
d="M278.92 803.63c-17.6104 0 -28.6299 10.7402 -28.6299 28.3398c0 17.6104 11.0195 28.3408 28.6299 28.3408c17.3096 0 28.3398 -10.7305 28.3398 -28.3408c0 -17.5996 -11.0303 -28.3398 -28.3398 -28.3398zM394.71 803.63
c-17.6104 0 -28.9199 10.7402 -28.9199 28.3398c0 17.6104 11.3096 28.3408 28.9199 28.3408c17.5996 0 28.6299 -10.7305 28.6299 -28.3408c0 -17.5996 -11.0303 -28.3398 -28.6299 -28.3398zM165.29 -0l-151.449 700h34.4502l105.05 -507.32
c9.29004 -46.7402 22.1797 -106.08 29.7393 -146.74h1.15039c8.13965 40.6602 19.8701 97.1104 30.3203 149.641l103.89 494.13h35.3203l101.76 -484.19c11.1602 -55.3604 23.6104 -116.08 32.4502 -159.58h1.16016c8.25977 43.5 21.8701 106.4 31.8701 155.98
l102.92 498.08h34.4502l-151.45 -700h-37.0303l-103.47 472.66c-10.1602 49.5996 -21.9004 114.97 -29.7402 164.569h-1.16016c-7.83984 -49.5996 -19.5801 -114.97 -29.7305 -164.569l-103.48 -472.66h-37.0195z" />
    <glyph glyph-name="Wgrave" unicode="&#x1e80;" horiz-adv-x="672" 
d="M367.87 771.13h-31.291l-95.7695 105.89h39.3203zM165.289 -0l-151.449 700h34.4502l105.05 -507.32c9.29004 -46.7402 22.1797 -106.08 29.7393 -146.74h1.15039c8.13965 40.6602 19.8701 97.1104 30.3203 149.641l103.89 494.13h35.3203l101.76 -484.19
c11.1602 -55.3604 23.6104 -116.08 32.4502 -159.58h1.16016c8.25977 43.5 21.8701 106.4 31.8701 155.98l102.92 498.08h34.4502l-151.45 -700h-37.0303l-103.47 472.66c-10.1602 49.5996 -21.9004 114.97 -29.7402 164.569h-1.16016
c-7.83984 -49.5996 -19.5801 -114.97 -29.7305 -164.569l-103.48 -472.66h-37.0195z" />
    <glyph glyph-name="X" unicode="X" horiz-adv-x="421" 
d="M399.44 0h-35.6006l-153.07 328.46l-153.75 -328.46h-35.5996l171.13 362.58l-162.84 337.42h35.5996l145.46 -305.25l144.78 305.25h35.6104l-162.14 -337.42z" />
    <glyph glyph-name="Y" unicode="Y" horiz-adv-x="406" 
d="M187.1 0v260.941l-177.84 439.06h34.0303l122.02 -304.11c12.29 -31.7305 25.5801 -62.7607 37.8701 -94.501c12.29 31.7402 24.8701 63.0498 37.1602 94.79l122.03 303.82h34.0195l-177.13 -439.06v-260.94h-32.1602z" />
    <glyph glyph-name="Yacute" unicode="&#xdd;" horiz-adv-x="406" 
d="M164.42 771.13l87.7402 105.89h39.3096l-95.7598 -105.89h-31.29zM187.101 -0v260.941l-177.84 439.06h34.0303l122.02 -304.11c12.29 -31.7305 25.5801 -62.7607 37.8701 -94.501c12.29 31.7402 24.8701 63.0498 37.1602 94.79l122.03 303.82h34.0195l-177.13 -439.06
v-260.94h-32.1602z" />
    <glyph glyph-name="Ycircumflex" unicode="&#x176;" horiz-adv-x="406" 
d="M202.47 854.06l-65.5303 -82.9297h-29.71l77.4502 105.89h35.5801l77.4502 -105.89h-29.71zM362.369 700l34.0195 0.000976562l-177.13 -439.06v-260.94h-32.1602v260.94l-177.84 439.06h34.0303l122.02 -304.11c12.29 -31.7305 25.5801 -62.7607 37.8701 -94.501
c12.29 31.7402 24.8701 63.0498 37.1602 94.79z" />
    <glyph glyph-name="Ydieresis" unicode="&#x178;" horiz-adv-x="406" 
d="M144.58 803.63c-17.6104 0 -28.6406 10.7402 -28.6406 28.3398c0 17.6104 11.0303 28.3408 28.6406 28.3408c17.3096 0 28.3398 -10.7305 28.3398 -28.3408c0 -17.5996 -11.0303 -28.3398 -28.3398 -28.3398zM260.37 803.63
c-17.6104 0 -28.9307 10.7402 -28.9307 28.3398c0 17.6104 11.3203 28.3408 28.9307 28.3408c17.5996 0 28.6299 -10.7305 28.6299 -28.3408c0 -17.5996 -11.0303 -28.3398 -28.6299 -28.3398zM187.101 -0v260.941l-177.84 439.06h34.0303l122.02 -304.11
c12.29 -31.7305 25.5801 -62.7607 37.8701 -94.501c12.29 31.7402 24.8701 63.0498 37.1602 94.79l122.03 303.82h34.0195l-177.13 -439.06v-260.94h-32.1602z" />
    <glyph glyph-name="Ygrave" unicode="&#x1ef2;" horiz-adv-x="406" 
d="M233.52 771.13h-31.291l-95.7598 105.89h39.3203zM187.099 -0v260.941l-177.84 439.06h34.0303l122.02 -304.11c12.29 -31.7305 25.5801 -62.7607 37.8701 -94.501c12.29 31.7402 24.8701 63.0498 37.1602 94.79l122.03 303.82h34.0195l-177.13 -439.06v-260.94h-32.1602
z" />
    <glyph glyph-name="Z" unicode="Z" horiz-adv-x="394" 
d="M22.8398 0v25.6797l294.34 644.03h-282.05v30.29h320.81v-22.8203l-295.63 -646.89h299.21v-30.29h-336.68z" />
    <glyph glyph-name="Zacute" unicode="&#x179;" horiz-adv-x="394" 
d="M152.97 771.13l87.7402 105.89h39.3096l-95.7598 -105.89h-31.29zM22.8398 -0v25.6797l294.34 644.03h-282.05v30.29h320.81v-22.8203l-295.63 -646.89h299.21v-30.29h-336.68z" />
    <glyph glyph-name="Zcaron" unicode="&#x17d;" horiz-adv-x="394" 
d="M208.52 771.13h-35.5791l-77.4404 105.89h29.71l65.5195 -82.9297l65.5303 82.9297h29.71zM60.3105 30.29h299.21v-30.29h-336.68v25.6797l294.34 644.03h-282.05v30.29h320.81v-22.8203z" />
    <glyph glyph-name="Zdotaccent" unicode="&#x17b;" horiz-adv-x="394" 
d="M190.73 800.55c-19.0498 0 -31.6494 12.6104 -31.6494 31.6602s12.5996 31.6602 31.6494 31.6602c19.0596 0 31.6592 -12.6104 31.6592 -31.6602s-12.5996 -31.6602 -31.6592 -31.6602zM22.8408 -0v25.6797l294.34 644.03h-282.05v30.29h320.81v-22.8203l-295.63 -646.89
h299.21v-30.29h-336.68z" />
    <glyph glyph-name="a" unicode="a" horiz-adv-x="436" 
d="M217.87 532.02c92.1797 0 145.359 -59.1777 145.359 -159.078v-372.94h-28.2598l-1.87988 62.0498c-24.29 -44.4805 -68.6104 -72.6309 -136.91 -72.6309c-88.1797 0 -147.52 58.29 -147.52 157.45c0 96.7305 62.1504 152.021 173.601 152.021h110.4v73.7695
c0 83.3896 -40.9805 130.069 -115.37 130.069c-72.0801 0 -119.48 -45.3604 -121.351 -106.92h-30.5703c4.70996 78.6299 61.1797 136.21 152.5 136.21zM199.5 19.002c88.3096 0 133.161 50.5205 133.161 139.001v112.18h-110.98
c-92.6299 0 -142.16 -45.2402 -142.16 -123.601c0 -81.0801 47.71 -127.58 119.979 -127.58z" />
    <glyph glyph-name="aacute" unicode="&#xe1;" horiz-adv-x="436" 
d="M295.79 709.5l-82.7402 -105.9h-30.29l75.71 105.9h37.3203zM217.87 532.02c92.1797 0 145.359 -59.1777 145.359 -159.078v-372.94h-28.2598l-1.87988 62.0498c-24.29 -44.4805 -68.6104 -72.6309 -136.91 -72.6309c-88.1797 0 -147.52 58.29 -147.52 157.45
c0 96.7305 62.1504 152.021 173.601 152.021h110.4v73.7695c0 83.3896 -40.9805 130.069 -115.37 130.069c-72.0801 0 -119.48 -45.3604 -121.351 -106.92h-30.5703c4.70996 78.6299 61.1797 136.21 152.5 136.21zM199.5 19.002c88.3096 0 133.161 50.5205 133.161 139.001
v112.18h-110.98c-92.6299 0 -142.16 -45.2402 -142.16 -123.601c0 -81.0801 47.71 -127.58 119.979 -127.58z" />
    <glyph glyph-name="abreve" unicode="&#x103;" horiz-adv-x="436" 
d="M219.42 604.16c-60.4805 0 -100.76 40.5703 -101.63 105.34h28.5498c0.870117 -50.4004 27.3896 -78.0801 73.0801 -78.0801c45.6797 0 72.21 27.6797 73.0801 78.0801h28.5498c-0.870117 -64.7695 -41.1602 -105.34 -101.63 -105.34zM217.871 532.021
c92.1797 0 145.359 -59.1777 145.359 -159.078v-372.94h-28.2598l-1.87988 62.0498c-24.29 -44.4805 -68.6104 -72.6309 -136.91 -72.6309c-88.1797 0 -147.52 58.29 -147.52 157.45c0 96.7305 62.1504 152.021 173.601 152.021h110.4v73.7695
c0 83.3896 -40.9805 130.069 -115.37 130.069c-72.0801 0 -119.48 -45.3604 -121.351 -106.92h-30.5703c4.70996 78.6299 61.1797 136.21 152.5 136.21zM199.501 19.0029c88.3096 0 133.161 50.5205 133.161 139.001v112.18h-110.98
c-92.6299 0 -142.16 -45.2402 -142.16 -123.601c0 -81.0801 47.71 -127.58 119.979 -127.58z" />
    <glyph glyph-name="acircumflex" unicode="&#xe2;" horiz-adv-x="436" 
d="M219.42 686.24l-65.5312 -82.9297h-29.71l77.4502 105.9h35.5801l77.4502 -105.9h-29.7197zM217.869 532.021c92.1797 0 145.359 -59.1777 145.359 -159.078v-372.94h-28.2598l-1.87988 62.0498c-24.29 -44.4805 -68.6104 -72.6309 -136.91 -72.6309
c-88.1797 0 -147.52 58.29 -147.52 157.45c0 96.7305 62.1504 152.021 173.601 152.021h110.4v73.7695c0 83.3896 -40.9805 130.069 -115.37 130.069c-72.0801 0 -119.48 -45.3604 -121.351 -106.92h-30.5703c4.70996 78.6299 61.1797 136.21 152.5 136.21zM199.499 19.0029
c88.3096 0 133.161 50.5205 133.161 139.001v112.18h-110.98c-92.6299 0 -142.16 -45.2402 -142.16 -123.601c0 -81.0801 47.71 -127.58 119.979 -127.58z" />
    <glyph glyph-name="adieresis" unicode="&#xe4;" horiz-adv-x="436" 
d="M166.81 625.31c-17.5996 0 -28.6299 10.7402 -28.6299 28.3506c0 17.5996 11.0303 28.3398 28.6299 28.3398c17.3203 0 28.3506 -10.7402 28.3506 -28.3398c0 -17.6104 -11.0303 -28.3506 -28.3506 -28.3506zM272.02 625.31
c-17.5996 0 -28.9199 10.7402 -28.9199 28.3506c0 17.5996 11.3203 28.3398 28.9199 28.3398c17.6104 0 28.6406 -10.7402 28.6406 -28.3398c0 -17.6104 -11.0303 -28.3506 -28.6406 -28.3506zM217.869 532.02c92.1797 0 145.359 -59.1777 145.359 -159.078v-372.94
h-28.2598l-1.87988 62.0498c-24.29 -44.4805 -68.6104 -72.6309 -136.91 -72.6309c-88.1797 0 -147.52 58.29 -147.52 157.45c0 96.7305 62.1504 152.021 173.601 152.021h110.4v73.7695c0 83.3896 -40.9805 130.069 -115.37 130.069
c-72.0801 0 -119.48 -45.3604 -121.351 -106.92h-30.5703c4.70996 78.6299 61.1797 136.21 152.5 136.21zM199.499 19.002c88.3096 0 133.161 50.5205 133.161 139.001v112.18h-110.98c-92.6299 0 -142.16 -45.2402 -142.16 -123.601
c0 -81.0801 47.71 -127.58 119.979 -127.58z" />
    <glyph glyph-name="agrave" unicode="&#xe0;" horiz-adv-x="436" 
d="M252.5 603.6h-30.29l-82.7402 105.9h37.3203zM217.87 532.02c92.1797 0 145.359 -59.1777 145.359 -159.078v-372.94h-28.2598l-1.87988 62.0498c-24.29 -44.4805 -68.6104 -72.6309 -136.91 -72.6309c-88.1797 0 -147.52 58.29 -147.52 157.45
c0 96.7305 62.1504 152.021 173.601 152.021h110.4v73.7695c0 83.3896 -40.9805 130.069 -115.37 130.069c-72.0801 0 -119.48 -45.3604 -121.351 -106.92h-30.5703c4.70996 78.6299 61.1797 136.21 152.5 136.21zM199.5 19.002c88.3096 0 133.161 50.5205 133.161 139.001
v112.18h-110.98c-92.6299 0 -142.16 -45.2402 -142.16 -123.601c0 -81.0801 47.71 -127.58 119.979 -127.58z" />
    <glyph glyph-name="amacron" unicode="&#x101;" horiz-adv-x="436" 
d="M302.89 659.16v-27.2695h-166.95v27.2695h166.95zM217.87 532.021c92.1797 0 145.359 -59.1777 145.359 -159.078v-372.94h-28.2598l-1.87988 62.0498c-24.29 -44.4805 -68.6104 -72.6309 -136.91 -72.6309c-88.1797 0 -147.52 58.29 -147.52 157.45
c0 96.7305 62.1504 152.021 173.601 152.021h110.4v73.7695c0 83.3896 -40.9805 130.069 -115.37 130.069c-72.0801 0 -119.48 -45.3604 -121.351 -106.92h-30.5703c4.70996 78.6299 61.1797 136.21 152.5 136.21zM199.5 19.0029c88.3096 0 133.161 50.5205 133.161 139.001
v112.18h-110.98c-92.6299 0 -142.16 -45.2402 -142.16 -123.601c0 -81.0801 47.71 -127.58 119.979 -127.58z" />
    <glyph glyph-name="aogonek" unicode="&#x105;" horiz-adv-x="445" 
d="M341.42 -191.29c-51.3398 0 -78.8984 35.3105 -78.8984 73.8906c0 40.5801 31.4199 85.4004 77.4199 117.4l-1.44043 63.21c-21.8701 -45.6602 -62.5801 -73.79 -128.11 -73.79c-96.71 0 -161.729 58.29 -161.729 156.74c0 97.4404 62.8604 152.73 176.44 152.73h112.53
v73.7695c0 83.3896 -41.6904 130.069 -117.5 130.069c-73.5 0 -122.32 -45.3604 -124.19 -106.92h-30.5703c4.70996 78.6299 62.5996 136.21 155.34 136.21c93.5996 0 147.5 -59.1797 147.5 -159.08v-372.94c-48.2402 -38.6602 -75.6904 -78.5303 -75.6904 -111.66
c0 -31.9697 22.8496 -50.21 54.3496 -50.21c9.44043 0 18.0205 0.709961 25.6006 2.29004v-28.5498c-8.87012 -1.87012 -20.6006 -3.16016 -31.0508 -3.16016zM213.711 19.001c81.9199 0 123.92 51.2305 123.92 136.101v115.08h-113.11
c-94.7598 0 -145 -45.2402 -145 -124.311c0 -80.3701 53.4004 -126.87 134.19 -126.87z" />
    <glyph glyph-name="aring" unicode="&#xe5;" horiz-adv-x="436" 
d="M219.42 598.89c-37.0303 0 -62.1904 25.1602 -62.1904 62.6104c0 36.4404 25.1602 60.6006 62.1904 60.6006c37.0195 0 62.1797 -24.1602 62.1797 -60.6006c0 -37.4502 -25.1602 -62.6104 -62.1797 -62.6104zM219.42 699.31
c-23.2598 0 -38.1094 -15.8398 -38.1094 -38.8096c0 -23.2695 14.8496 -38.8193 38.1094 -38.8193c22.9697 0 38.0996 15.5498 38.0996 38.8193c0 22.9697 -15.1299 38.8096 -38.0996 38.8096zM217.87 532.02c92.1797 0 145.359 -59.1777 145.359 -159.078v-372.94h-28.2598
l-1.87988 62.0498c-24.29 -44.4805 -68.6104 -72.6309 -136.91 -72.6309c-88.1797 0 -147.52 58.29 -147.52 157.45c0 96.7305 62.1504 152.021 173.601 152.021h110.4v73.7695c0 83.3896 -40.9805 130.069 -115.37 130.069c-72.0801 0 -119.48 -45.3604 -121.351 -106.92
h-30.5703c4.70996 78.6299 61.1797 136.21 152.5 136.21zM199.5 19.002c88.3096 0 133.161 50.5205 133.161 139.001v112.18h-110.98c-92.6299 0 -142.16 -45.2402 -142.16 -123.601c0 -81.0801 47.71 -127.58 119.979 -127.58z" />
    <glyph glyph-name="atilde" unicode="&#xe3;" horiz-adv-x="436" 
d="M177.44 668.37c-17.3896 0 -29.0703 -15.6895 -30.3604 -44.6396h-29.1396c1.29004 43.0303 25.1602 71.6104 58.7705 71.6104c43.1299 0 53.4502 -46.9199 83.6807 -46.9199c17.9805 0 30.2402 15.6797 31.5303 44.6299h27.9697
c-2.87012 -43.7402 -24.7305 -71.6104 -58.7607 -71.6104c-41.4199 0 -52.4502 46.9297 -83.6904 46.9297zM217.869 532.021c92.1797 0 145.359 -59.1777 145.359 -159.078v-372.94h-28.2598l-1.87988 62.0498c-24.29 -44.4805 -68.6104 -72.6309 -136.91 -72.6309
c-88.1797 0 -147.52 58.29 -147.52 157.45c0 96.7305 62.1504 152.021 173.601 152.021h110.4v73.7695c0 83.3896 -40.9805 130.069 -115.37 130.069c-72.0801 0 -119.48 -45.3604 -121.351 -106.92h-30.5703c4.70996 78.6299 61.1797 136.21 152.5 136.21zM199.499 19.0039
c88.3096 0 133.161 50.5205 133.161 139.001v112.18h-110.98c-92.6299 0 -142.16 -45.2402 -142.16 -123.601c0 -81.0801 47.71 -127.58 119.979 -127.58z" />
    <glyph glyph-name="ae" unicode="&#xe6;" horiz-adv-x="689" 
d="M603.31 157.5l30.582 0.000976562c0 -101.79 -59.5996 -167.5 -156.05 -167.5c-67.1104 0 -116.53 33.8096 -139.971 89.7598c-19.1602 -55.5 -68.3203 -89.4697 -138.87 -89.4697c-92.5801 0 -150.34 57.4404 -150.34 150.891c0 93.6104 59.5996 144.61 172.92 144.61
h100.79v91.1797c0 78.79 -41.1104 125.47 -109.21 125.47c-71.2402 0 -115.351 -43.2305 -116.501 -105.211h-30.5801c4 79.3496 58.0498 134.79 147.939 134.79c61.4004 0 106.11 -32.6797 125.42 -89.7598c23.7402 56.2402 72.4502 89.7598 138.4 89.7598
c94.7402 0 153.34 -66.29 153.34 -169.23v-105.42h-277.95v-98.1396c0 -85.8604 46.8203 -139.65 124.61 -139.65c78.3701 0 125.47 53.21 125.47 137.92zM353.231 362.791v-77.5801h247.37v77.5801c0 85.8701 -46.0996 139.65 -122.76 139.65
c-77.79 0 -124.61 -53.7803 -124.61 -139.65zM322.371 147.421v109.95h-101.66c-93.79 0 -141.19 -40.2402 -141.19 -116.48c0 -77.2305 46.1396 -121.891 125.37 -121.891c75.0801 0 117.48 50.2305 117.48 128.421z" />
    <glyph glyph-name="b" unicode="b" horiz-adv-x="446" 
d="M238.89 532.02c87.5 0 147.369 -67.71 147.369 -170.71v-200.02c0 -104.58 -65.8701 -171.87 -153.76 -171.87c-55.8096 0 -104.3 29.2998 -129.939 70.79l-2.76953 -60.21h-27.4004v722.58h30.29v-280.23c22.2998 58.4697 74.3398 89.6699 136.21 89.6699z
M355.389 161.289v200.021c0 88.6299 -48.2305 142 -123.811 142c-70.9805 0 -128.9 -55.8701 -128.9 -163.311v-186.4c0 -80.2305 55.4004 -135.471 125.341 -135.471c73.71 0 127.37 53.6602 127.37 143.16z" />
    <glyph glyph-name="c" unicode="c" horiz-adv-x="421" 
d="M214.6 -10c-96.0195 0 -155.21 66.29 -155.21 169.23v203.56c0 102.94 58.4805 169.23 153.08 169.23c98.6104 0 157.5 -66.29 158.37 -174.21h-30.8701c-0.870117 90.8496 -47.2598 144.63 -127.5 144.63c-76.2402 0 -122.21 -53.7803 -122.21 -139.65v-203.56
c0 -85.8604 46.6797 -139.65 124.34 -139.65c79.5303 0 126.92 53.79 127.79 146.76h30.8701c-0.870117 -110.05 -60.7598 -176.34 -158.66 -176.34z" />
    <glyph glyph-name="cacute" unicode="&#x107;" horiz-adv-x="421" 
d="M175.68 603.6l75.71 105.9h37.3203l-82.7402 -105.9h-30.29zM214.6 -10c-96.0195 0 -155.21 66.29 -155.21 169.23v203.56c0 102.94 58.4805 169.23 153.08 169.23c98.6104 0 157.5 -66.29 158.37 -174.21h-30.8701c-0.870117 90.8496 -47.2598 144.63 -127.5 144.63
c-76.2402 0 -122.21 -53.7803 -122.21 -139.65v-203.56c0 -85.8604 46.6797 -139.65 124.34 -139.65c79.5303 0 126.92 53.79 127.79 146.76h30.8701c-0.870117 -110.05 -60.7598 -176.34 -158.66 -176.34z" />
    <glyph glyph-name="ccaron" unicode="&#x10d;" horiz-adv-x="421" 
d="M230.13 603.6h-35.5801l-77.4502 105.9h29.71l65.5303 -82.9297l65.5303 82.9297h29.71zM342.39 166.34h30.8701c-0.870117 -110.05 -60.7598 -176.34 -158.66 -176.34c-96.0195 0 -155.21 66.29 -155.21 169.23v203.56c0 102.94 58.4805 169.23 153.08 169.23
c98.6104 0 157.5 -66.29 158.37 -174.21h-30.8701c-0.870117 90.8496 -47.2598 144.63 -127.5 144.63c-76.2402 0 -122.21 -53.7803 -122.21 -139.65v-203.56c0 -85.8604 46.6797 -139.65 124.34 -139.65c79.5303 0 126.92 53.79 127.79 146.76z" />
    <glyph glyph-name="ccedilla" unicode="&#xe7;" horiz-adv-x="421" 
d="M373.26 166.34c-0.849609 -107.83 -58.3701 -173.648 -152.78 -176.259l-14.6699 -45.7695c6.12988 1.70996 11.8496 2.41992 21.8193 2.41992c39.8398 0 68.8701 -26.71 68.8701 -65c0 -43.3096 -34.0303 -69.1797 -82.7705 -69.1797
c-46.29 0 -81.1504 31.6797 -82.3105 67.3193h27.6797c3.29004 -25.8203 24.9805 -41.5 55.2109 -41.5c31.8203 0 54.79 15.2598 54.79 43.6494c0 26.2695 -19.6797 43.3691 -45.3896 43.3691c-16.2695 0.709961 -27.5498 -1.58008 -35.9795 -5.58008l-10.5996 11.0303
l19.0898 60c-85.1396 8 -136.83 72.1904 -136.83 168.391v203.56c0 102.94 58.4805 169.23 153.08 169.23c98.6104 0 157.5 -66.29 158.37 -174.21h-30.8701c-0.870117 90.8496 -47.2598 144.63 -127.5 144.63c-76.2402 0 -122.21 -53.7803 -122.21 -139.65v-203.56
c0 -85.8604 46.6797 -139.65 124.34 -139.65c79.5303 0 126.92 53.79 127.79 146.76h30.8701z" />
    <glyph glyph-name="cdotaccent" unicode="&#x10b;" horiz-adv-x="421" 
d="M212.05 622c-19.0498 0 -31.6602 12.5996 -31.6602 31.6592c0 19.0498 12.6104 31.6494 31.6602 31.6494s31.6602 -12.5996 31.6602 -31.6494c0 -19.0596 -12.6104 -31.6592 -31.6602 -31.6592zM214.6 -10c-96.0195 0 -155.21 66.29 -155.21 169.23v203.56
c0 102.94 58.4805 169.23 153.08 169.23c98.6104 0 157.5 -66.29 158.37 -174.21h-30.8701c-0.870117 90.8496 -47.2598 144.63 -127.5 144.63c-76.2402 0 -122.21 -53.7803 -122.21 -139.65v-203.56c0 -85.8604 46.6797 -139.65 124.34 -139.65
c79.5303 0 126.92 53.79 127.79 146.76h30.8701c-0.870117 -110.05 -60.7598 -176.34 -158.66 -176.34z" />
    <glyph glyph-name="d" unicode="d" horiz-adv-x="446" 
d="M342.97 722.58h30.29v-722.58h-27.3896l-2.78027 60.21c-25.6396 -41.4902 -74.1201 -70.79 -129.93 -70.79c-87.9004 0 -153.771 67.29 -153.771 171.87v200.02c0 103 59.8701 170.71 147.37 170.71c61.8701 0 113.92 -31.2002 136.21 -89.6699v280.23zM217.63 18.1299
c69.9502 0 125.34 55.2383 125.34 135.469v186.4c0 107.44 -57.9199 163.311 -128.89 163.311c-75.5801 0 -123.82 -53.3701 -123.82 -142v-200.02c0 -89.5 53.6602 -143.16 127.37 -143.16z" />
    <glyph glyph-name="eth" unicode="&#xf0;" horiz-adv-x="444" 
d="M305.85 638.44c41.9199 -50.1104 69.3789 -120.511 69.3789 -215.471v-263.16c0 -103.52 -61.5996 -169.81 -161.76 -169.81c-95.5996 0 -154.08 66.29 -154.08 169.81v177.98c0 103.52 58.4805 169.81 150.61 169.81c60.5 0 108.96 -27.71 134.46 -72.7295
c-2.41992 79.7197 -25.8398 142.16 -65.6299 187.851l-97.0703 -56.4902l-10.3203 21.6396l90.29 52.5303c-30.0996 28.0498 -67.5195 48.3398 -110.789 61.04l10.4805 27.7197c46.4102 -12.8799 91.3203 -36.3701 127.9 -72.71l69.1797 40.2598l10.3096 -21.6299z
M344.368 159.811v177.98c0 86.4404 -48.9805 140.23 -129.19 140.23c-78.5195 0 -124.92 -53.79 -124.92 -140.23v-177.98c0 -86.4404 46.6797 -140.23 124.63 -140.23c81.0801 0 129.48 53.79 129.48 140.23z" />
    <glyph glyph-name="dcaron" unicode="&#x10f;" horiz-adv-x="436" 
d="M435.66 762.58h37.2793l-22.7598 -155.5h-23.5195zM342.97 455.49v267.091h30.29v-722.58h-27.3896l-2.78027 60.21c-25.6396 -41.4902 -74.1201 -70.79 -129.93 -70.79c-89.3203 0 -153.771 67.29 -153.771 171.87v200.02c0 103 62.71 170.71 152.34 170.71
c53.9502 0 106.13 -28.2402 131.24 -76.5303zM217.63 18.1309c69.9502 0 125.34 55.2393 125.34 135.47v214.82c0 76.1797 -53.6602 134.89 -125.34 134.89c-76.29 0 -127.37 -53.3701 -127.37 -142v-200.02c0 -89.5 52.2402 -143.16 127.37 -143.16z" />
    <glyph glyph-name="dcroat" unicode="&#x111;" horiz-adv-x="459" 
d="M433.39 643.94v-26.0986h-60.1299v-617.84h-27.3896l-2.78027 60.21c-25.6396 -41.4902 -74.1201 -70.79 -129.93 -70.79c-87.9004 0 -153.771 67.29 -153.771 171.87v200.02c0 103 64.1299 170.71 152.34 170.71c53.9502 0 106.13 -28.2402 131.24 -76.5303v162.35
h-108.92v26.0996h108.92v78.6396h30.29v-78.6396h60.1299zM217.63 18.1318c69.9502 0 125.34 55.2393 125.34 135.47v214.82c0 76.1797 -53.6602 134.89 -125.34 134.89c-74.8701 0 -127.37 -53.3701 -127.37 -142v-200.02c0 -89.5 53.6602 -143.16 127.37 -143.16z" />
    <glyph glyph-name="e" unicode="e" horiz-adv-x="434" 
d="M347.68 154.6h30.5801c-9.41992 -100.05 -62.4697 -164.6 -163.37 -164.6c-96.3096 0 -155.5 66.29 -155.5 169.23v203.56c0 102.94 60.4805 169.23 157.79 169.23c97.1904 0 158.66 -66.29 158.66 -169.23v-118.13h-285.58v-85.4297
c0 -85.8604 46.9697 -139.65 125.21 -139.65c82.5303 0 122.79 52.3398 132.21 135.02zM217.47 502.439c-79.2402 0 -127.21 -53.7803 -127.21 -139.65v-89.4199h255v89.4199c0 85.8701 -48.6797 139.65 -127.79 139.65z" />
    <glyph glyph-name="eacute" unicode="&#xe9;" horiz-adv-x="434" 
d="M290.84 708.05l-82.7402 -105.89h-30.29l75.71 105.89h37.3203zM347.68 154.601h30.5801c-9.41992 -100.05 -62.4697 -164.6 -163.37 -164.6c-96.3096 0 -155.5 66.29 -155.5 169.23v203.56c0 102.94 60.4805 169.23 157.79 169.23
c97.1904 0 158.66 -66.29 158.66 -169.23v-118.13h-285.58v-85.4297c0 -85.8604 46.9697 -139.65 125.21 -139.65c82.5303 0 122.79 52.3398 132.21 135.02zM217.47 502.44c-79.2402 0 -127.21 -53.7803 -127.21 -139.65v-89.4199h255v89.4199
c0 85.8701 -48.6797 139.65 -127.79 139.65z" />
    <glyph glyph-name="ecaron" unicode="&#x11b;" horiz-adv-x="434" 
d="M232.26 602.16h-35.5801l-77.4502 105.89h29.71l65.5303 -82.9297l65.5303 82.9297h29.71zM347.68 154.601h30.5801c-9.41992 -100.05 -62.4697 -164.6 -163.37 -164.6c-96.3096 0 -155.5 66.29 -155.5 169.23v203.56c0 102.94 60.4805 169.23 157.79 169.23
c97.1904 0 158.66 -66.29 158.66 -169.23v-118.13h-285.58v-85.4297c0 -85.8604 46.9697 -139.65 125.21 -139.65c82.5303 0 122.79 52.3398 132.21 135.02zM217.47 502.44c-79.2402 0 -127.21 -53.7803 -127.21 -139.65v-89.4199h255v89.4199
c0 85.8701 -48.6797 139.65 -127.79 139.65z" />
    <glyph glyph-name="ecircumflex" unicode="&#xea;" horiz-adv-x="434" 
d="M214.47 684.79l-65.5303 -82.9199h-29.71l77.4502 105.89h35.5801l77.4502 -105.89h-29.71zM347.68 154.601h30.5801c-9.41992 -100.05 -62.4697 -164.6 -163.37 -164.6c-96.3096 0 -155.5 66.29 -155.5 169.23v203.56c0 102.94 60.4805 169.23 157.79 169.23
c97.1904 0 158.66 -66.29 158.66 -169.23v-118.13h-285.58v-85.4297c0 -85.8604 46.9697 -139.65 125.21 -139.65c82.5303 0 122.79 52.3398 132.21 135.02zM217.47 502.44c-79.2402 0 -127.21 -53.7803 -127.21 -139.65v-89.4199h255v89.4199
c0 85.8701 -48.6797 139.65 -127.79 139.65z" />
    <glyph glyph-name="edieresis" unicode="&#xeb;" horiz-adv-x="434" 
d="M161.87 623.87c-17.6104 0 -28.6406 10.7305 -28.6406 28.3408c0 17.5996 11.0303 28.3398 28.6406 28.3398c17.3096 0 28.3398 -10.7402 28.3398 -28.3398c0 -17.6104 -11.0303 -28.3408 -28.3398 -28.3408zM267.08 623.87
c-17.6104 0 -28.9199 10.7305 -28.9199 28.3408c0 17.5996 11.3096 28.3398 28.9199 28.3398c17.5996 0 28.6299 -10.7402 28.6299 -28.3398c0 -17.6104 -11.0303 -28.3408 -28.6299 -28.3408zM347.68 154.601h30.5801c-9.41992 -100.05 -62.4697 -164.6 -163.37 -164.6
c-96.3096 0 -155.5 66.29 -155.5 169.23v203.56c0 102.94 60.4805 169.23 157.79 169.23c97.1904 0 158.66 -66.29 158.66 -169.23v-118.13h-285.58v-85.4297c0 -85.8604 46.9697 -139.65 125.21 -139.65c82.5303 0 122.79 52.3398 132.21 135.02zM217.47 502.44
c-79.2402 0 -127.21 -53.7803 -127.21 -139.65v-89.4199h255v89.4199c0 85.8701 -48.6797 139.65 -127.79 139.65z" />
    <glyph glyph-name="edotaccent" unicode="&#x117;" horiz-adv-x="434" 
d="M214.18 620.55c-19.0498 0 -31.6602 12.6104 -31.6602 31.6602s12.6104 31.6602 31.6602 31.6602s31.6602 -12.6104 31.6602 -31.6602s-12.6104 -31.6602 -31.6602 -31.6602zM347.68 154.6h30.5801c-9.41992 -100.05 -62.4697 -164.6 -163.37 -164.6
c-96.3096 0 -155.5 66.29 -155.5 169.23v203.56c0 102.94 60.4805 169.23 157.79 169.23c97.1904 0 158.66 -66.29 158.66 -169.23v-118.13h-285.58v-85.4297c0 -85.8604 46.9697 -139.65 125.21 -139.65c82.5303 0 122.79 52.3398 132.21 135.02zM217.47 502.439
c-79.2402 0 -127.21 -53.7803 -127.21 -139.65v-89.4199h255v89.4199c0 85.8701 -48.6797 139.65 -127.79 139.65z" />
    <glyph glyph-name="egrave" unicode="&#xe8;" horiz-adv-x="434" 
d="M247.55 602.16h-30.29l-82.7402 105.89h37.3203zM347.68 154.601h30.5801c-9.41992 -100.05 -62.4697 -164.6 -163.37 -164.6c-96.3096 0 -155.5 66.29 -155.5 169.23v203.56c0 102.94 60.4805 169.23 157.79 169.23c97.1904 0 158.66 -66.29 158.66 -169.23v-118.13
h-285.58v-85.4297c0 -85.8604 46.9697 -139.65 125.21 -139.65c82.5303 0 122.79 52.3398 132.21 135.02zM217.47 502.44c-79.2402 0 -127.21 -53.7803 -127.21 -139.65v-89.4199h255v89.4199c0 85.8701 -48.6797 139.65 -127.79 139.65z" />
    <glyph glyph-name="emacron" unicode="&#x113;" horiz-adv-x="434" 
d="M297.94 657.71v-27.2695h-166.94v27.2695h166.94zM347.681 154.601h30.5801c-9.41992 -100.05 -62.4697 -164.6 -163.37 -164.6c-96.3096 0 -155.5 66.29 -155.5 169.23v203.56c0 102.94 60.4805 169.23 157.79 169.23c97.1904 0 158.66 -66.29 158.66 -169.23v-118.13
h-285.58v-85.4297c0 -85.8604 46.9697 -139.65 125.21 -139.65c82.5303 0 122.79 52.3398 132.21 135.02zM217.471 502.44c-79.2402 0 -127.21 -53.7803 -127.21 -139.65v-89.4199h255v89.4199c0 85.8701 -48.6797 139.65 -127.79 139.65z" />
    <glyph glyph-name="eogonek" unicode="&#x119;" horiz-adv-x="434" 
d="M298.34 -190.58c-49.9199 0 -76.7598 35.0205 -76.7598 78.7402c0 42.0996 19.1299 76.3896 55.6494 112.649v0.290039c-17.5498 -7.25977 -38.8096 -11.0996 -60.3398 -11.0996c-97.8896 0 -157.5 66.29 -157.5 169.23v203.56c0 102.65 59.9004 169.23 157.5 169.23
c95.9004 0 156.24 -66 156.24 -169.23v-120.27h-282.87v-83.29c0 -85.8604 47.1104 -139.65 127.5 -139.65c81.1104 0 126.21 53.5 130.37 135.02h30.5801c-4.16016 -56.9199 -20.8701 -94.2598 -54.1299 -128.26c-50.9502 -53.1104 -73 -89.4199 -73 -133.42
c0 -36.71 22.8398 -54.0801 52.21 -54.0801c9.44043 0 18.0205 0.709961 25.6006 2.29004v-28.5498c-8.87012 -1.87012 -20.6006 -3.16016 -31.0508 -3.16016zM90.2598 271.23h252.29v91.5596c0 85.5801 -47.2598 139.65 -125.37 139.65
c-79.2402 0 -126.92 -53.5 -126.92 -139.65v-91.5596z" />
    <glyph glyph-name="f" unicode="f" horiz-adv-x="266" 
d="M231.1 705.02c-66.9697 0 -105.81 -39.2598 -105.81 -123.229v-60.3496h114.29v-29.1299h-114.29v-492.31h-30.5801v492.31h-75.0303v29.1299h75.0303v60.3496c0 99.8896 49.8896 151.649 136.39 151.649h17.3398v-28.4199h-17.3398z" />
    <glyph glyph-name="g" unicode="g" horiz-adv-x="445" 
d="M345.16 521.44h27.6807v-553.18c0 -99.6797 -56.0498 -159.13 -146.399 -159.13c-96.2803 0 -154.891 56.1602 -160.601 143.47h30c7.12988 -71.5195 50.6797 -114.76 130.6 -114.76c72.6904 0 115.82 46.5303 115.82 130.42v114.64
c-24.4805 -45.8604 -72.04 -73.3008 -124.53 -73.3008c-90.3398 0 -158.34 67 -158.34 169.95v179.05c0 106.13 67.29 173.42 156.34 173.42c54.5596 0 101.949 -27.2598 127.109 -76.3594zM220.631 38.6006c69.5498 0 121.63 54.0801 121.63 131.71v200.42
c0 78.21 -54.3896 132.29 -120.92 132.29c-75.4199 0 -131.08 -54.0801 -131.08 -144.42v-179.05c0 -86.8701 55.6602 -140.95 130.37 -140.95z" />
    <glyph glyph-name="gbreve" unicode="&#x11f;" horiz-adv-x="445" 
d="M219.18 604.16c-60.4697 0 -100.759 40.5703 -101.629 105.34h28.5498c0.870117 -50.4004 27.4004 -78.0801 73.0801 -78.0801c45.6904 0 72.21 27.6797 73.0801 78.0801h28.5498c-0.870117 -64.7695 -41.1504 -105.34 -101.631 -105.34zM345.161 521.44h27.6807v-553.18
c0 -99.6797 -56.0498 -159.13 -146.399 -159.13c-96.2803 0 -154.891 56.1602 -160.601 143.47h30c7.12988 -71.5195 50.6797 -114.76 130.6 -114.76c72.6904 0 115.82 46.5303 115.82 130.42v114.64c-24.4805 -45.8604 -72.04 -73.3008 -124.53 -73.3008
c-90.3398 0 -158.34 67 -158.34 169.95v179.05c0 106.13 67.29 173.42 156.34 173.42c54.5596 0 101.949 -27.2598 127.109 -76.3594zM220.632 38.6006c69.5498 0 121.63 54.0801 121.63 131.71v200.42c0 78.21 -54.3896 132.29 -120.92 132.29
c-75.4199 0 -131.08 -54.0801 -131.08 -144.42v-179.05c0 -86.8701 55.6602 -140.95 130.37 -140.95z" />
    <glyph glyph-name="uni0123" unicode="&#x123;" horiz-adv-x="445" 
d="M244.68 608.84h-42.1299l-16.5801 162.08h24.5303zM345.16 521.439h27.6807v-553.18c0 -99.6797 -56.0498 -159.13 -146.399 -159.13c-96.2803 0 -154.891 56.1602 -160.601 143.47h30c7.12988 -71.5195 50.6797 -114.76 130.6 -114.76
c72.6904 0 115.82 46.5303 115.82 130.42v114.64c-24.4805 -45.8604 -72.04 -73.3008 -124.53 -73.3008c-90.3398 0 -158.34 67 -158.34 169.95v179.05c0 106.13 67.29 173.42 156.34 173.42c54.5596 0 101.949 -27.2598 127.109 -76.3594zM220.631 38.5996
c69.5498 0 121.63 54.0801 121.63 131.71v200.42c0 78.21 -54.3896 132.29 -120.92 132.29c-75.4199 0 -131.08 -54.0801 -131.08 -144.42v-179.05c0 -86.8701 55.6602 -140.95 130.37 -140.95z" />
    <glyph glyph-name="gdotaccent" unicode="&#x121;" horiz-adv-x="445" 
d="M218.89 622c-19.0498 0 -31.6602 12.5996 -31.6602 31.6592c0 19.0498 12.6104 31.6494 31.6602 31.6494s31.6602 -12.5996 31.6602 -31.6494c0 -19.0596 -12.6104 -31.6592 -31.6602 -31.6592zM345.159 521.44h27.6807v-553.18
c0 -99.6797 -56.0498 -159.13 -146.399 -159.13c-96.2803 0 -154.891 56.1602 -160.601 143.47h30c7.12988 -71.5195 50.6797 -114.76 130.6 -114.76c72.6904 0 115.82 46.5303 115.82 130.42v114.64c-24.4805 -45.8604 -72.04 -73.3008 -124.53 -73.3008
c-90.3398 0 -158.34 67 -158.34 169.95v179.05c0 106.13 67.29 173.42 156.34 173.42c54.5596 0 101.949 -27.2598 127.109 -76.3594zM220.63 38.6006c69.5498 0 121.63 54.0801 121.63 131.71v200.42c0 78.21 -54.3896 132.29 -120.92 132.29
c-75.4199 0 -131.08 -54.0801 -131.08 -144.42v-179.05c0 -86.8701 55.6602 -140.95 130.37 -140.95z" />
    <glyph glyph-name="h" unicode="h" horiz-adv-x="446" 
d="M248.21 532.02c83.5996 0 132.469 -65.29 132.469 -198.68v-333.34h-30.5801v331.89c0 116.03 -38.0996 171.13 -107.659 171.13c-80.8096 0 -139.47 -73.0801 -139.47 -183.89v-319.13h-30.5801v721.42h30.5801v-288.78c27.8398 61.0898 80.2402 99.3799 145.24 99.3799
z" />
    <glyph glyph-name="hbar" unicode="&#x127;" horiz-adv-x="452" 
d="M254.02 532.02c83.6104 0 132.48 -65.29 132.48 -198.68v-333.34h-30.5801v331.89c0 116.03 -38.1104 171.13 -107.66 171.13c-80.8203 0 -139.471 -73.0801 -139.471 -183.89v-319.13h-30.5801v616.39h-62.5801v26.8203h62.5801v79.0801h30.5801v-79.0801h105.52
v-26.8203h-105.52v-183.76c27.8301 61.0996 80.2402 99.3896 145.23 99.3896z" />
    <glyph glyph-name="i" unicode="i" horiz-adv-x="175" 
d="M87.8896 622c-19.0498 0 -31.6602 12.5996 -31.6602 31.6592c0 19.0498 12.6104 31.6494 31.6602 31.6494s31.6602 -12.5996 31.6602 -31.6494c0 -19.0596 -12.6104 -31.6592 -31.6602 -31.6592zM72.3896 0v521.44h30.5801v-521.44h-30.5801z" />
    <glyph glyph-name="dotlessi" unicode="&#x131;" horiz-adv-x="175" 
d="M72.3896 0v521.44h30.5801v-521.44h-30.5801z" />
    <glyph glyph-name="iacute" unicode="&#xed;" horiz-adv-x="175" 
d="M51.5195 603.6l75.71 105.9h37.3203l-82.7402 -105.9h-30.29zM72.3896 0v521.44h30.5801v-521.44h-30.5801z" />
    <glyph glyph-name="icircumflex" unicode="&#xee;" horiz-adv-x="221" 
d="M128.23 709.21l72.7393 -105.9h-28.71l-61.8096 82.5801l-61.8203 -82.5801h-28.71l72.7402 105.9h35.5703zM94.6602 -0v521.44h30.5703v-521.44h-30.5703z" />
    <glyph glyph-name="idieresis" unicode="&#xef;" horiz-adv-x="200" 
d="M48.2598 625.6c-17.3203 0 -28.3398 10.4502 -28.3398 28.0605c0 17.5996 11.0195 28.0498 28.3398 28.0498s28.0508 -10.4502 28.0508 -28.0498c0 -17.6104 -10.7305 -28.0605 -28.0508 -28.0605zM151.729 625.6c-17.5996 0 -28.6299 10.4502 -28.6299 28.0605
c0 17.5996 11.0303 28.0498 28.6299 28.0498c17.3203 0 28.3506 -10.4502 28.3506 -28.0498c0 -17.6104 -11.0303 -28.0605 -28.3506 -28.0605zM84.21 -0v521.44h30.5801v-521.44h-30.5801z" />
    <glyph glyph-name="i.loclTRK" horiz-adv-x="175" 
d="M87.8896 622c-19.0498 0 -31.6602 12.5996 -31.6602 31.6592c0 19.0498 12.6104 31.6494 31.6602 31.6494s31.6602 -12.5996 31.6602 -31.6494c0 -19.0596 -12.6104 -31.6592 -31.6602 -31.6592zM72.3896 0v521.44h30.5801v-521.44h-30.5801z" />
    <glyph glyph-name="igrave" unicode="&#xec;" horiz-adv-x="175" 
d="M121.26 603.6h-30.29l-82.7402 105.9h37.3203zM72.3896 -0v521.44h30.5801v-521.44h-30.5801z" />
    <glyph glyph-name="imacron" unicode="&#x12b;" horiz-adv-x="173" 
d="M7.70996 631.31v27.8496h157.52v-27.8496h-157.52zM70.6797 -0.000976562v521.44h30.5801v-521.44h-30.5801z" />
    <glyph glyph-name="iogonek" unicode="&#x12f;" horiz-adv-x="186" 
d="M92.8701 625c-15.9004 0 -26.9307 11.3096 -26.9307 26.9199c0 15.8896 11.0303 26.9199 26.9307 26.9199c15.5996 0 26.9199 -11.0303 26.9199 -26.9199c0 -15.3203 -11.3203 -26.9199 -26.9199 -26.9199zM106.18 -161.87c9.4502 0 18.0312 0.709961 25.6113 2.29004
v-28.5498c-8.87012 -1.87012 -20.6104 -3.16016 -31.0605 -3.16016c-49.9199 0 -76.7598 33.1797 -76.7598 71.7598c0 39.6299 21.2998 84.1494 53.1094 118.899v520.63h30.5801v-520c-34.5303 -38.79 -53.6904 -79.6299 -53.6904 -112.189
c0 -33 22.8398 -49.6797 52.21 -49.6797z" />
    <glyph glyph-name="j" unicode="j" horiz-adv-x="213" 
d="M109.05 621.71c-19.0498 0 -31.6602 12.5996 -31.6602 31.6592c0 19.0498 12.6104 31.6494 31.6602 31.6494s31.6602 -12.5996 31.6602 -31.6494c0 -19.0596 -12.6104 -31.6592 -31.6602 -31.6592zM-27.1104 -189.16v29.291c84.8398 2.70996 121.08 52.0996 121.08 132.1
v549.21h30.5801v-549.21c0 -96.0703 -49.5801 -158.971 -151.66 -161.391z" />
    <glyph glyph-name="k" unicode="k" horiz-adv-x="405" 
d="M357.55 0l-202.061 278.8l-52.5195 -57.9199v-220.88h-30.5801v722.58h30.5801v-459.35l232.4 258.21h39.4697l-197.99 -219.03l217.59 -302.41h-36.8896z" />
    <glyph glyph-name="uni0137" unicode="&#x137;" horiz-adv-x="405" 
d="M176.85 302.41l217.589 -302.41h-36.8896l-202.06 278.8l-52.5195 -57.9199v-220.88h-30.5801v722.58h30.5801v-459.35l232.4 258.21h39.4697zM178.868 -225.56l16.5693 159.4h36.5801l-27.7598 -159.4h-25.3896z" />
    <glyph glyph-name="l" unicode="l" horiz-adv-x="179" 
d="M73.9697 0v722.29h30.5801v-722.29h-30.5801z" />
    <glyph glyph-name="lacute" unicode="&#x13a;" horiz-adv-x="179" 
d="M51.71 771.13l87.7295 105.89h39.3203l-95.7598 -105.89h-31.29zM73.9697 -0v722.29h30.5801v-722.29h-30.5801z" />
    <glyph glyph-name="lcaron" unicode="&#x13e;" horiz-adv-x="167" 
d="M157.94 605.34l9 156.95h37.29l-22.7598 -156.95h-23.5303zM73.9707 0v722.29h30.5801v-722.29h-30.5801z" />
    <glyph glyph-name="uni013C" unicode="&#x13c;" horiz-adv-x="185" 
d="M75.71 0v722.29h30.5801v-722.29h-30.5801zM76.0996 -225.56l16.5801 159.4h36.5801l-27.7598 -159.4h-25.4004z" />
    <glyph glyph-name="lslash" unicode="&#x142;" horiz-adv-x="221" 
d="M198.97 448.81v-30.4199l-73.4502 -26.3799v-392.01h-30.5801v381.03l-72.71 -26.1104v30.4199l72.71 26.1104v309.97h30.5801v-298.98z" />
    <glyph glyph-name="m" unicode="m" horiz-adv-x="700" 
d="M506.39 532.02c80.29 0 127.48 -65.4209 127.48 -193.761v-338.26h-30.5801v336.81c0 112.13 -35.8496 166.21 -102.08 166.21c-77.4004 0 -132.79 -73.0801 -132.79 -183.6v-319.42h-30.5801v336.81c0 112.85 -37.1299 166.21 -102.24 166.21
c-76.3896 0 -132.63 -73.0801 -132.63 -183.6v-319.42h-30.5801v521.44h27.6904l2.88965 -73.8604v-13.6699c26.5996 60.3203 76.2598 98.1104 137.819 98.1104c61.1299 0 103.75 -38.3096 120.15 -114.76c24.1602 70.1602 77.0801 114.76 145.45 114.76z" />
    <glyph glyph-name="n" unicode="n" horiz-adv-x="446" 
d="M248.21 532.02c81.4502 0 131.76 -62.6816 131.76 -193.182v-338.84h-30.5801v336.23c0 111.69 -37.2305 166.79 -106.95 166.79c-80.8096 0 -139.47 -73.0801 -139.47 -183.6v-319.42h-30.5801v521.44h27.6904l2.88965 -70.2598v-18.3203
c27.7803 60.9297 80.0898 99.1602 145.24 99.1602z" />
    <glyph glyph-name="nacute" unicode="&#x144;" horiz-adv-x="446" 
d="M296.71 708.05l-82.7402 -105.89h-30.29l75.71 105.89h37.3203zM248.21 532.021c81.4502 0 131.76 -62.6816 131.76 -193.182v-338.84h-30.5801v336.23c0 111.69 -37.2305 166.79 -106.95 166.79c-80.8096 0 -139.47 -73.0801 -139.47 -183.6v-319.42h-30.5801v521.44
h27.6904l2.88965 -70.2598v-18.3203c27.7803 60.9297 80.0898 99.1602 145.24 99.1602z" />
    <glyph glyph-name="ncaron" unicode="&#x148;" horiz-adv-x="446" 
d="M238.13 602.16h-35.5801l-77.4502 105.89h29.71l65.5303 -82.9297l65.5303 82.9297h29.71zM248.21 532.021c81.4502 0 131.76 -62.6816 131.76 -193.182v-338.84h-30.5801v336.23c0 111.69 -37.2305 166.79 -106.95 166.79c-80.8096 0 -139.47 -73.0801 -139.47 -183.6
v-319.42h-30.5801v521.44h27.6904l2.88965 -70.2598v-18.3203c27.7803 60.9297 80.0898 99.1602 145.24 99.1602z" />
    <glyph glyph-name="uni0146" unicode="&#x146;" horiz-adv-x="446" 
d="M248.21 532.02c81.4502 0 131.76 -62.6816 131.76 -193.182v-338.84h-30.5801v336.23c0 111.69 -37.2305 166.79 -106.95 166.79c-80.8096 0 -139.47 -73.0801 -139.47 -183.6v-319.42h-30.5801v521.44h27.6904l2.88965 -70.2598v-18.3203
c27.7803 60.9297 80.0898 99.1602 145.24 99.1602zM199.26 -225.562l16.5801 159.4h36.5801l-27.7598 -159.4h-25.4004z" />
    <glyph glyph-name="eng" unicode="&#x14b;" horiz-adv-x="446" 
d="M228.31 -192.92l0.000976562 29.2891c84.2695 2.70996 121.079 50.3604 121.079 139.101v360.76c0 111.69 -37.2305 166.79 -106.95 166.79c-80.8096 0 -139.47 -73.0801 -139.47 -183.6v-319.42h-30.5801v521.44h27.6904l2.88965 -89.1504
c27.71 61.21 80.5303 99.7295 145.24 99.7295c82.8896 0 131.76 -62.6797 131.76 -193.18v-363.37c0 -104.81 -50.1602 -165.97 -151.66 -168.39z" />
    <glyph glyph-name="ntilde" unicode="&#xf1;" horiz-adv-x="446" 
d="M178.37 666.92c-17.4004 0 -29.0801 -15.6895 -30.3701 -44.6299h-29.1299c1.29004 43.0195 25.1504 71.5996 58.7607 71.5996c43.1299 0 53.4502 -46.9199 83.6807 -46.9199c17.9805 0 30.2402 15.6904 31.5303 44.6309h27.9697
c-2.87012 -43.7305 -24.7305 -71.6006 -58.7607 -71.6006c-41.4199 0 -52.4502 46.9199 -83.6807 46.9199zM248.21 532.021c81.4502 0 131.76 -62.6816 131.76 -193.182v-338.84h-30.5801v336.23c0 111.69 -37.2305 166.79 -106.95 166.79
c-80.8096 0 -139.47 -73.0801 -139.47 -183.6v-319.42h-30.5801v521.44h27.6904l2.88965 -70.2598v-18.3203c27.7803 60.9297 80.0898 99.1602 145.24 99.1602z" />
    <glyph glyph-name="o" unicode="o" horiz-adv-x="438" 
d="M218.76 -10.5801c-98.5996 0 -159.369 66.29 -159.369 170.1v202.4c0 103.81 60.7695 170.1 159.369 170.1c98.6104 0 159.37 -66.29 159.37 -170.1v-202.4c0 -103.81 -60.7598 -170.1 -159.37 -170.1zM218.76 19c80.2402 0 128.5 53.79 128.5 140.521v202.4
c0 86.7402 -48.2598 140.521 -128.5 140.521s-128.5 -53.7803 -128.5 -140.521v-202.4c0 -86.7305 48.2598 -140.521 128.5 -140.521z" />
    <glyph glyph-name="oacute" unicode="&#xf3;" horiz-adv-x="438" 
d="M182.1 603.6l75.71 105.9h37.3203l-82.7402 -105.9h-30.29zM218.76 -10.5801c-98.5996 0 -159.369 66.29 -159.369 170.1v202.4c0 103.81 60.7695 170.1 159.369 170.1c98.6104 0 159.37 -66.29 159.37 -170.1v-202.4c0 -103.81 -60.7598 -170.1 -159.37 -170.1z
M218.76 19c80.2402 0 128.5 53.79 128.5 140.521v202.4c0 86.7402 -48.2598 140.521 -128.5 140.521s-128.5 -53.7803 -128.5 -140.521v-202.4c0 -86.7305 48.2598 -140.521 128.5 -140.521z" />
    <glyph glyph-name="ocircumflex" unicode="&#xf4;" horiz-adv-x="438" 
d="M218.76 686.24l-65.5303 -82.9297h-29.71l77.4502 105.9h35.5801l77.4502 -105.9h-29.71zM218.76 532.021c98.6104 0 159.37 -66.29 159.37 -170.1v-202.4c0 -103.81 -60.7598 -170.1 -159.37 -170.1c-98.5996 0 -159.369 66.29 -159.369 170.1v202.4
c0 103.81 60.7695 170.1 159.369 170.1zM347.26 159.521v202.4c0 86.7402 -48.2598 140.521 -128.5 140.521s-128.5 -53.7803 -128.5 -140.521v-202.4c0 -86.7305 48.2598 -140.521 128.5 -140.521s128.5 53.79 128.5 140.521z" />
    <glyph glyph-name="odieresis" unicode="&#xf6;" horiz-adv-x="438" 
d="M166.16 625.31c-17.6104 0 -28.6406 10.7402 -28.6406 28.3506c0 17.5996 11.0303 28.3398 28.6406 28.3398c17.3096 0 28.3398 -10.7402 28.3398 -28.3398c0 -17.6104 -11.0303 -28.3506 -28.3398 -28.3506zM271.37 625.31
c-17.6104 0 -28.9307 10.7402 -28.9307 28.3506c0 17.5996 11.3203 28.3398 28.9307 28.3398c17.5996 0 28.6299 -10.7402 28.6299 -28.3398c0 -17.6104 -11.0303 -28.3506 -28.6299 -28.3506zM218.76 -10.5801c-98.5996 0 -159.369 66.29 -159.369 170.1v202.4
c0 103.81 60.7695 170.1 159.369 170.1c98.6104 0 159.37 -66.29 159.37 -170.1v-202.4c0 -103.81 -60.7598 -170.1 -159.37 -170.1zM218.76 19c80.2402 0 128.5 53.79 128.5 140.521v202.4c0 86.7402 -48.2598 140.521 -128.5 140.521s-128.5 -53.7803 -128.5 -140.521
v-202.4c0 -86.7305 48.2598 -140.521 128.5 -140.521z" />
    <glyph glyph-name="ograve" unicode="&#xf2;" horiz-adv-x="438" 
d="M251.84 603.6h-30.29l-82.7402 105.9h37.3203zM218.76 -10.5801c-98.5996 0 -159.369 66.29 -159.369 170.1v202.4c0 103.81 60.7695 170.1 159.369 170.1c98.6104 0 159.37 -66.29 159.37 -170.1v-202.4c0 -103.81 -60.7598 -170.1 -159.37 -170.1zM218.76 19
c80.2402 0 128.5 53.79 128.5 140.521v202.4c0 86.7402 -48.2598 140.521 -128.5 140.521s-128.5 -53.7803 -128.5 -140.521v-202.4c0 -86.7305 48.2598 -140.521 128.5 -140.521z" />
    <glyph glyph-name="ohungarumlaut" unicode="&#x151;" horiz-adv-x="438" 
d="M143.08 603.6l73.6797 105.9h37.1602l-82 -105.9h-28.8398zM233.97 603.6l76.9697 105.9h37.1602l-84.5801 -105.9h-29.5498zM218.76 -10.5801c-98.5996 0 -159.369 66.29 -159.369 170.1v202.4c0 103.81 60.7695 170.1 159.369 170.1
c98.6104 0 159.37 -66.29 159.37 -170.1v-202.4c0 -103.81 -60.7598 -170.1 -159.37 -170.1zM218.76 19c80.2402 0 128.5 53.79 128.5 140.521v202.4c0 86.7402 -48.2598 140.521 -128.5 140.521s-128.5 -53.7803 -128.5 -140.521v-202.4
c0 -86.7305 48.2598 -140.521 128.5 -140.521z" />
    <glyph glyph-name="omacron" unicode="&#x14d;" horiz-adv-x="438" 
d="M135.29 631.89v27.2695h166.94v-27.2695h-166.94zM218.76 -10.5811c-98.5996 0 -159.369 66.29 -159.369 170.1v202.4c0 103.81 60.7695 170.1 159.369 170.1c98.6104 0 159.37 -66.29 159.37 -170.1v-202.4c0 -103.81 -60.7598 -170.1 -159.37 -170.1zM218.76 18.999
c80.2402 0 128.5 53.79 128.5 140.521v202.4c0 86.7402 -48.2598 140.521 -128.5 140.521s-128.5 -53.7803 -128.5 -140.521v-202.4c0 -86.7305 48.2598 -140.521 128.5 -140.521z" />
    <glyph glyph-name="oslash" unicode="&#xf8;" horiz-adv-x="438" 
d="M321.76 498.69c36.1104 -29.3896 56.3711 -76.8203 56.3711 -136.771v-201.82c0 -103.81 -60.7598 -170.1 -159.37 -170.1c-31.04 0 -58.3301 6.57031 -81.1602 18.8105l-24.2598 -64.5498h-28.4199l29.9902 79.7803c-35.5801 29.4297 -55.5205 76.5898 -55.5205 136.06
v201.82c0 103.81 60.7695 170.1 159.369 170.1c30.6201 0 57.5898 -6.38965 80.2295 -18.3096l25.1904 67.0195h28.4199zM90.2607 160.1c0 -44.7402 12.8496 -80.7207 36.2998 -105.07l161.64 429.98c-19.1299 11.3604 -42.4795 17.4307 -69.4395 17.4307
c-80.2402 0 -128.5 -53.7803 -128.5 -140.521v-201.82zM347.261 160.1v201.818c0 45.2598 -13.1396 81.54 -37.0996 105.9l-161.75 -430.26c19.29 -11.71 42.96 -17.9795 70.3496 -17.9795c80.2402 0 128.5 53.79 128.5 140.521z" />
    <glyph glyph-name="otilde" unicode="&#xf5;" horiz-adv-x="438" 
d="M260.47 621.44c-41.4199 0 -52.4502 46.9307 -83.6807 46.9307c-17.4004 0 -29.0801 -15.6904 -30.3701 -44.6406h-29.1299c1.29004 43.0303 25.1504 71.6104 58.7607 71.6104c43.1299 0 53.4502 -46.9199 83.6807 -46.9199c17.9805 0 30.2402 15.6797 31.5303 44.6299
h27.9697c-2.86035 -43.7402 -24.7305 -71.6104 -58.7607 -71.6104zM218.76 -10.5781c-98.5996 0 -159.369 66.29 -159.369 170.1v202.4c0 103.81 60.7695 170.1 159.369 170.1c98.6104 0 159.37 -66.29 159.37 -170.1v-202.4c0 -103.81 -60.7598 -170.1 -159.37 -170.1z
M218.76 19.002c80.2402 0 128.5 53.79 128.5 140.521v202.4c0 86.7402 -48.2598 140.521 -128.5 140.521s-128.5 -53.7803 -128.5 -140.521v-202.4c0 -86.7305 48.2598 -140.521 128.5 -140.521z" />
    <glyph glyph-name="oe" unicode="&#x153;" horiz-adv-x="719" 
d="M633.31 157.5h30.5801c-7.09961 -101.79 -62.0195 -167.5 -162.6 -167.5c-68.0498 0 -118.89 36.21 -141.43 97.2002c-22.46 -61.5596 -73.3301 -97.1992 -142.26 -97.1992c-98.0195 0 -158.21 66.29 -158.21 169.81v200.95c0 103.53 60.1904 169.82 158.21 169.82
c68.9297 0 119.81 -36.9004 142.26 -99.21c22.54 61.7402 73.3799 99.21 141.43 99.21c96.3096 0 156.21 -66.29 156.21 -169.24v-117.37h-281.98v-84.7402c0 -85.8604 47.4004 -139.65 125.771 -139.65c82.5 0 124.92 53.21 132.02 137.92zM344.659 159.81v200.95
c0 86.4502 -47.6904 140.24 -127.061 140.24c-79.6602 0 -127.34 -53.79 -127.34 -140.24v-200.95c0 -86.4404 47.6797 -140.23 127.34 -140.23c79.3701 0 127.061 53.79 127.061 140.23zM375.52 361.34l0.000976562 -89.5303h251.4v89.5303
c0 85.8701 -47.4004 139.66 -125.631 139.66c-78.3701 0 -125.771 -53.79 -125.771 -139.66z" />
    <glyph glyph-name="p" unicode="p" horiz-adv-x="446" 
d="M238.89 532.02c82.9199 0 147.37 -67.291 147.37 -171.861v-200.03c0 -103 -64.1299 -170.71 -152.34 -170.71c-53.9502 0 -106.12 28.2402 -131.24 76.5303v-245.95h-30.29v701.44h27.4004l2.75977 -77.0596c23.75 55.1104 73.7002 87.6406 136.34 87.6406z
M355.39 160.129v200.029c0 89.5 -51.5195 143.15 -123.1 143.15c-66.4004 0 -129.61 -55.2305 -129.61 -156.79v-193.5c0 -76.1797 53.6602 -134.89 125.34 -134.89c74.8701 0 127.37 53.3701 127.37 142z" />
    <glyph glyph-name="thorn" unicode="&#xfe;" horiz-adv-x="444" 
d="M232.5 530.58c88.7598 0 152.31 -67 152.31 -170.71v-193.95c0 -103 -63.5498 -170.71 -150.89 -170.71c-53.9502 0 -106.12 28.2402 -131.24 76.5303v-251.74h-30.29v901.42h30.29v-261.89c26.0703 42.5498 74.8906 71.0498 129.82 71.0498zM353.94 165.92v193.95
c0 88.6299 -51.9199 142 -125.92 142c-71.6797 0 -125.34 -58.71 -125.34 -134.9v-208.16c0 -76.1797 53.6602 -134.89 125.34 -134.89c74 0 125.92 53.3701 125.92 142z" />
    <glyph glyph-name="q" unicode="q" horiz-adv-x="446" 
d="M345.87 521.44l27.3896 0.000976562v-701.44h-30.29v245.95c-25.1104 -48.29 -77.29 -76.5303 -131.24 -76.5303c-88.21 0 -152.34 67.71 -152.34 170.71v200.03c0 104.57 64.4502 171.86 147.37 171.86c62.6504 0 112.591 -32.5303 136.341 -87.6406zM217.63 18.1318
c71.6797 0 125.34 58.7109 125.34 134.891v193.5c0 101.56 -63.21 156.79 -129.6 156.79c-71.5801 0 -123.11 -53.6504 -123.11 -143.15v-200.03c0 -88.6299 52.5 -142 127.37 -142z" />
    <glyph glyph-name="r" unicode="r" horiz-adv-x="318" 
d="M246.37 531.73c23.5498 0 42.6807 -2.41895 53.7109 -5.70898v-32.7305c-19 5.58008 -37.1602 8.87012 -60.3203 8.87012c-78.5498 0 -136.79 -72.79 -136.79 -182.74v-317.29h-30.5801v519.31h27.6904l2.88965 -66v-22.6201
c27.5195 60.7402 79.0791 98.9102 143.399 98.9102z" />
    <glyph glyph-name="racute" unicode="&#x155;" horiz-adv-x="318" 
d="M256.39 709.5l-82.7295 -105.9h-30.29l75.71 105.9h37.3096zM246.37 531.729c23.5498 0 42.6807 -2.41895 53.7109 -5.70898v-32.7305c-19 5.58008 -37.1602 8.87012 -60.3203 8.87012c-78.5498 0 -136.79 -72.79 -136.79 -182.74v-317.29h-30.5801v519.31h27.6904
l2.88965 -66v-22.6201c27.5195 60.7402 79.0791 98.9102 143.399 98.9102z" />
    <glyph glyph-name="rcaron" unicode="&#x159;" horiz-adv-x="318" 
d="M197.81 603.6h-35.5791l-77.4404 105.9h29.71l65.5195 -82.9297l65.5303 82.9297h29.71zM246.37 531.729c23.5498 0 42.6807 -2.41895 53.7109 -5.70898v-32.7305c-19 5.58008 -37.1602 8.87012 -60.3203 8.87012c-78.5498 0 -136.79 -72.79 -136.79 -182.74v-317.29
h-30.5801v519.31h27.6904l2.88965 -66v-22.6201c27.5195 60.7402 79.0791 98.9102 143.399 98.9102z" />
    <glyph glyph-name="uni0157" unicode="&#x157;" horiz-adv-x="318" 
d="M246.37 531.73c23.5498 0 42.6807 -2.41895 53.7109 -5.70898v-32.7305c-19 5.58008 -37.1602 8.87012 -60.3203 8.87012c-78.5498 0 -136.79 -72.79 -136.79 -182.74v-317.29h-30.5801v519.31h27.6904l2.88965 -66v-22.6201
c27.5195 60.7402 79.0791 98.9102 143.399 98.9102zM61.4707 -225.559l16.5801 159.4h36.5801l-27.7598 -159.4h-25.4004z" />
    <glyph glyph-name="s" unicode="s" horiz-adv-x="389" 
d="M199.31 -10.5801c-95.4697 0 -156.229 54.209 -159.789 151.659h30.5801c3.55957 -82.5 50.1094 -122.08 129.209 -122.08c65.71 0 117.21 38.6797 117.21 101.79c0 150.02 -270.71 110.84 -270.71 283.02c0 75.7695 60.1602 128.21 143.08 128.21
c88.0498 0 145.24 -53.3398 148.08 -138.26h-30.5801c-2.83984 69.9697 -45.8096 108.97 -117.5 108.97c-64.8398 0 -112.21 -38.3896 -112.21 -99.5c0 -144.31 270.71 -105.84 270.71 -283.02c0 -77.7695 -65.71 -130.789 -148.08 -130.789z" />
    <glyph glyph-name="sacute" unicode="&#x15b;" horiz-adv-x="389" 
d="M155.94 603.6l75.7207 105.9h37.3096l-82.7402 -105.9h-30.29zM199.312 -10.5801c-95.4697 0 -156.229 54.209 -159.789 151.659h30.5801c3.55957 -82.5 50.1094 -122.08 129.209 -122.08c65.71 0 117.21 38.6797 117.21 101.79c0 150.02 -270.71 110.84 -270.71 283.02
c0 75.7695 60.1602 128.21 143.08 128.21c88.0498 0 145.24 -53.3398 148.08 -138.26h-30.5801c-2.83984 69.9697 -45.8096 108.97 -117.5 108.97c-64.8398 0 -112.21 -38.3896 -112.21 -99.5c0 -144.31 270.71 -105.84 270.71 -283.02
c0 -77.7695 -65.71 -130.789 -148.08 -130.789z" />
    <glyph glyph-name="scaron" unicode="&#x161;" horiz-adv-x="389" 
d="M210.39 603.6h-35.5791l-77.4404 105.9h29.71l65.5195 -82.9297l65.5303 82.9297h29.71zM76.6807 403.229c0 -144.31 270.71 -105.841 270.71 -283.021c0 -77.7695 -65.71 -130.789 -148.08 -130.789c-95.4697 0 -156.229 54.21 -159.789 151.66h30.5801
c3.55957 -82.5 50.1094 -122.08 129.209 -122.08c65.71 0 117.21 38.6797 117.21 101.79c0 150.02 -270.71 110.84 -270.71 283.02c0 75.7695 60.1602 128.21 143.08 128.21c88.0498 0 145.24 -53.3398 148.08 -138.26h-30.5801
c-2.83984 69.9697 -45.8096 108.97 -117.5 108.97c-64.8398 0 -112.21 -38.3896 -112.21 -99.5z" />
    <glyph glyph-name="scedilla" unicode="&#x15f;" horiz-adv-x="389" 
d="M347.39 120.21c0 -77.0195 -64.4482 -129.778 -145.698 -130.778l-14.46 -45.1201c6.13965 1.70996 11.8496 2.41992 21.8193 2.41992c39.8398 0 68.8701 -26.71 68.8701 -65c0 -43.3096 -34.0303 -69.1797 -82.7607 -69.1797
c-46.29 0 -81.1602 31.6797 -82.3203 67.3193h27.6797c3.29004 -25.8203 24.9805 -41.5 55.2109 -41.5c31.8203 0 54.79 15.2598 54.79 43.6494c0 26.2695 -19.6797 43.3691 -45.3896 43.3691c-16.2598 0.709961 -27.5498 -1.58008 -35.9697 -5.58008l-10.6104 11.0303
l18.9502 59.5703c-82.8398 7.78027 -134.7 60.8604 -137.98 150.67h30.5801c3.55957 -82.5 50.1094 -122.08 129.209 -122.08c65.71 0 117.21 38.6797 117.21 101.79c0 150.02 -270.71 110.84 -270.71 283.02c0 75.7695 60.1602 128.21 143.08 128.21
c88.0498 0 145.24 -53.3398 148.08 -138.26h-30.5801c-2.83984 69.9697 -45.8096 108.97 -117.5 108.97c-64.8398 0 -112.21 -38.3896 -112.21 -99.5c0 -144.31 270.71 -105.84 270.71 -283.02z" />
    <glyph glyph-name="uni0219" unicode="&#x219;" horiz-adv-x="389" 
d="M199.31 -10.5801c-95.4697 0 -156.229 54.209 -159.789 151.659h30.5801c3.55957 -82.5 50.1094 -122.08 129.209 -122.08c65.71 0 117.21 38.6797 117.21 101.79c0 150.02 -270.71 110.84 -270.71 283.02c0 75.7695 60.1602 128.21 143.08 128.21
c88.0498 0 145.24 -53.3398 148.08 -138.26h-30.5801c-2.83984 69.9697 -45.8096 108.97 -117.5 108.97c-64.8398 0 -112.21 -38.3896 -112.21 -99.5c0 -144.31 270.71 -105.84 270.71 -283.02c0 -77.7695 -65.71 -130.789 -148.08 -130.789zM168.68 -225.562l16.5801 159.4
h36.5801l-27.7598 -159.4h-25.4004z" />
    <glyph glyph-name="germandbls" unicode="&#xdf;" horiz-adv-x="440" 
d="M275.25 364.28c88.4102 -19.6797 125.17 -86.2588 125.17 -174.699c0 -121.16 -69.29 -189.58 -183.87 -189.58h-68.2598v30.5801h68.2598c97.21 0 151.42 54.5 151.42 159.58c0 89.5996 -46.9697 157.76 -155.68 157.76h-64v30.29h64.7598
c87.21 0 125.92 64.0195 125.92 149.76c0 98.9199 -42.6602 153.32 -122.34 153.32c-73.4199 0 -112.66 -54.1104 -112.66 -155.92v-525.37h-31.5801v525.37c0 116.89 52.7402 185.92 144.53 185.92c97.0498 0 153.92 -69.3203 153.92 -183.61
c0 -81.4404 -25.1396 -143.94 -95.5898 -163.4z" />
    <glyph glyph-name="t" unicode="t" horiz-adv-x="281" 
d="M232.08 26.1299h21.4697v-29h-21.4697c-88.9004 0 -134.79 45.79 -134.79 137.55v358.05h-74.3203v28.71h74.3203v122.43h30.5801v-122.43h117.94v-28.71h-117.94v-358.05c0 -75.3896 35.8096 -108.55 104.21 -108.55z" />
    <glyph glyph-name="tbar" unicode="&#x167;" horiz-adv-x="281" 
d="M232.08 26.1299h21.4697v-29h-21.4697c-88.9004 0 -134.79 45.79 -134.79 137.55v152.24h-62.71v26.0996h62.71v179.71h-74.3203v28.71h74.3203v122.43h30.5801v-122.43h117.94v-28.71h-117.94v-179.71h90.0996v-26.0996h-90.0996v-152.24
c0 -75.3896 35.8096 -108.55 104.21 -108.55z" />
    <glyph glyph-name="tcaron" unicode="&#x165;" horiz-adv-x="283" 
d="M238.94 749.79l-26.3105 -145.58h-23.5303l14.6904 145.58h35.1504zM232.08 26.1299h21.4697v-29h-21.4697c-88.9004 0 -134.79 45.79 -134.79 137.55v358.05h-74.3203v28.71h74.3203v122.43h30.5801v-122.43h117.94v-28.71h-117.94v-358.05
c0 -75.3896 35.8096 -108.55 104.21 -108.55z" />
    <glyph glyph-name="uni0163" unicode="&#x163;" horiz-adv-x="281" 
d="M232.08 -2.87012c-21.3896 0 -40.2998 2.65137 -56.6699 7.96094l-19.9697 -60.7803c6.84961 1.70996 12.5596 2.41992 23.9492 2.41992c37.71 0 66.7402 -29.8398 66.7402 -67c0 -44.3096 -34.0303 -71.1797 -82.7607 -71.1797
c-46.29 0 -81.1602 33.1104 -82.3203 69.4502h27.6797c3.29004 -27.2402 24.9805 -43.6299 55.2109 -43.6299c31.8203 0 54.79 16.2598 54.79 45.6494c0 27.2695 -19.6797 45.3691 -45.3896 45.3691c-16.2598 0.709961 -28.2598 -2.29004 -36.6797 -6.29004
l-10.6104 11.0303l27.8799 84.2402c-37.5 20.9697 -56.6396 61.0498 -56.6396 120.31v358.05h-74.3203v28.71h74.3203v122.43h30.5801v-122.43h117.94v-28.71h-117.94v-358.05c0 -75.3896 35.8096 -108.55 104.21 -108.55h21.4697v-29h-21.4697z" />
    <glyph glyph-name="uni021B" unicode="&#x21b;" horiz-adv-x="281" 
d="M232.08 26.1299h21.4697v-29h-21.4697c-88.9004 0 -134.79 45.79 -134.79 137.55v358.05h-74.3203v28.71h74.3203v122.43h30.5801v-122.43h117.94v-28.71h-117.94v-358.05c0 -75.3896 35.8096 -108.55 104.21 -108.55zM131.1 -225.561l16.5801 159.4h36.5801
l-27.7598 -159.4h-25.4004z" />
    <glyph glyph-name="u" unicode="u" horiz-adv-x="446" 
d="M342.68 521h30.5811v-521.45h-27.6797l-2.90039 70.2598v18.3301c-27.7803 -60.9297 -80.0898 -99.1699 -145.24 -99.1699c-81.4404 0 -131.761 62.6904 -131.761 193.19v338.84h30.5801v-336.24c0 -111.68 37.2402 -166.79 106.95 -166.79
c80.8096 0 139.47 73.0801 139.47 183.61v319.42z" />
    <glyph glyph-name="uacute" unicode="&#xfa;" horiz-adv-x="446" 
d="M291.44 708.05l-82.7295 -105.89h-30.29l75.71 105.89h37.3096zM342.681 521h30.5811v-521.45h-27.6797l-2.90039 70.2598v18.3301c-27.7803 -60.9297 -80.0898 -99.1699 -145.24 -99.1699c-81.4404 0 -131.761 62.6904 -131.761 193.19v338.84h30.5801v-336.24
c0 -111.68 37.2402 -166.79 106.95 -166.79c80.8096 0 139.47 73.0801 139.47 183.61v319.42z" />
    <glyph glyph-name="ucircumflex" unicode="&#xfb;" horiz-adv-x="446" 
d="M215.08 684.8l-65.5312 -82.9297h-29.71l77.4502 105.89h35.5801l77.4404 -105.89h-29.71zM342.679 521h30.5811v-521.45h-27.6797l-2.90039 70.2598v18.3301c-27.7803 -60.9297 -80.0898 -99.1699 -145.24 -99.1699c-81.4404 0 -131.761 62.6904 -131.761 193.19v338.84
h30.5801v-336.24c0 -111.68 37.2402 -166.79 106.95 -166.79c80.8096 0 139.47 73.0801 139.47 183.61v319.42z" />
    <glyph glyph-name="udieresis" unicode="&#xfc;" horiz-adv-x="446" 
d="M162.47 623.87c-17.5996 0 -28.6299 10.7305 -28.6299 28.3408c0 17.5996 11.0303 28.3398 28.6299 28.3398c17.3203 0 28.3398 -10.7402 28.3398 -28.3398c0 -17.6104 -11.0195 -28.3408 -28.3398 -28.3408zM267.68 623.87
c-17.5996 0 -28.9199 10.7305 -28.9199 28.3408c0 17.5996 11.3203 28.3398 28.9199 28.3398c17.6104 0 28.6299 -10.7402 28.6299 -28.3398c0 -17.6104 -11.0195 -28.3408 -28.6299 -28.3408zM342.68 521h30.5811v-521.45h-27.6797l-2.90039 70.2598v18.3301
c-27.7803 -60.9297 -80.0898 -99.1699 -145.24 -99.1699c-81.4404 0 -131.761 62.6904 -131.761 193.19v338.84h30.5801v-336.24c0 -111.68 37.2402 -166.79 106.95 -166.79c80.8096 0 139.47 73.0801 139.47 183.61v319.42z" />
    <glyph glyph-name="ugrave" unicode="&#xf9;" horiz-adv-x="446" 
d="M248.16 602.16h-30.2891l-82.7402 105.89h37.3096zM342.681 521h30.5811v-521.45h-27.6797l-2.90039 70.2598v18.3301c-27.7803 -60.9297 -80.0898 -99.1699 -145.24 -99.1699c-81.4404 0 -131.761 62.6904 -131.761 193.19v338.84h30.5801v-336.24
c0 -111.68 37.2402 -166.79 106.95 -166.79c80.8096 0 139.47 73.0801 139.47 183.61v319.42z" />
    <glyph glyph-name="uhungarumlaut" unicode="&#x171;" horiz-adv-x="446" 
d="M250.23 708.05l-82.001 -105.89h-28.8398l73.6904 105.89h37.1504zM259.84 602.16h-29.5498l76.9697 105.89h37.1602zM342.68 521h30.5811v-521.45h-27.6797l-2.90039 70.2598v18.3301c-27.7803 -60.9297 -80.0898 -99.1699 -145.24 -99.1699
c-81.4404 0 -131.761 62.6904 -131.761 193.19v338.84h30.5801v-336.24c0 -111.68 37.2402 -166.79 106.95 -166.79c80.8096 0 139.47 73.0801 139.47 183.61v319.42z" />
    <glyph glyph-name="umacron" unicode="&#x16b;" horiz-adv-x="446" 
d="M298.55 657.71v-27.2695h-166.95v27.2695h166.95zM342.68 521h30.5811v-521.45h-27.6797l-2.90039 70.2598v18.3301c-27.7803 -60.9297 -80.0898 -99.1699 -145.24 -99.1699c-81.4404 0 -131.761 62.6904 -131.761 193.19v338.84h30.5801v-336.24
c0 -111.68 37.2402 -166.79 106.95 -166.79c80.8096 0 139.47 73.0801 139.47 183.61v319.42z" />
    <glyph glyph-name="uogonek" unicode="&#x173;" horiz-adv-x="448" 
d="M351.52 -161.87c7.70996 0 16.292 1.00098 23.582 2.29102v-28.5498c-8.58008 -1.87012 -20.0205 -3.16016 -29.4707 -3.16016c-50.0498 0 -76.6094 34.5996 -76.6094 72.8896c0 40.8701 30.8496 84.2705 76.5596 118.4l-2.90039 70.2598v18.2305
c-27.6396 -60.5498 -79.5898 -99.0693 -144.24 -99.0693c-82.4404 0 -132.761 62.3896 -132.761 193.18v338.84h30.5801v-336.23c0 -112.11 37.2402 -166.79 107.37 -166.79c80.6797 0 139.05 73.79 139.05 183.6v319.42h30.5801v-521.44
c-48.0801 -39.3701 -74.2402 -79.6602 -74.2402 -113.37c0 -31.6904 22.6904 -48.5 52.5 -48.5z" />
    <glyph glyph-name="uring" unicode="&#x16f;" horiz-adv-x="446" 
d="M215.08 597.44c-37.0303 0 -62.1904 25.1602 -62.1904 62.6104c0 36.4502 25.1602 60.6104 62.1904 60.6104c37.0195 0 62.1797 -24.1602 62.1797 -60.6104c0 -37.4502 -25.1602 -62.6104 -62.1797 -62.6104zM215.08 697.87
c-23.2695 0 -38.1094 -15.8496 -38.1094 -38.8193c0 -23.2598 14.8398 -38.8193 38.1094 -38.8193c22.9697 0 38.0996 15.5596 38.0996 38.8193c0 22.9697 -15.1299 38.8193 -38.0996 38.8193zM342.68 521h30.5811v-521.45h-27.6797l-2.90039 70.2598v18.3301
c-27.7803 -60.9297 -80.0898 -99.1699 -145.24 -99.1699c-81.4404 0 -131.761 62.6904 -131.761 193.19v338.84h30.5801v-336.24c0 -111.68 37.2402 -166.79 106.95 -166.79c80.8096 0 139.47 73.0801 139.47 183.61v319.42z" />
    <glyph glyph-name="v" unicode="v" horiz-adv-x="368" 
d="M167.66 0l-150.43 521.44h32.1602l95.79 -339.68c12.4199 -45.8398 27 -98.5 38.2598 -140.29h1.16016c11.2695 41.79 25.8398 94.4502 38.2695 140.29l95.79 339.68h32.1504l-150.42 -521.44h-32.7305z" />
    <glyph glyph-name="w" unicode="w" horiz-adv-x="590" 
d="M540.13 521.44h32.1602l-130 -521.44h-33.0303l-93.1299 369c-7.90039 31.5801 -16.3701 71.5205 -21.0801 95.5801h-0.580078c-4.70996 -24.0596 -13.1797 -64 -21.0801 -95.5801l-93.1299 -369h-33.0303l-130 521.44h32.1602l87.7402 -369.13
c9.4502 -38.3701 18.7598 -84.1299 26.1797 -115.26h0.580078c7.41992 32.29 17.3203 80.0801 27.3398 121.05l87.1602 353.34h32.7402l87.1602 -353.34c10.0195 -40.9697 19.9199 -88.7598 27.3398 -121.05h0.580078c7.41992 31.1299 16.7295 76.8896 26.1797 115.26z" />
    <glyph glyph-name="wacute" unicode="&#x1e83;" horiz-adv-x="590" 
d="M370.26 708.05l-82.7402 -105.89h-30.29l75.71 105.89h37.3203zM540.13 521.44h32.1602l-130 -521.44h-33.0303l-93.1299 369c-7.90039 31.5801 -16.3701 71.5205 -21.0801 95.5801h-0.580078c-4.70996 -24.0596 -13.1797 -64 -21.0801 -95.5801l-93.1299 -369h-33.0303
l-130 521.44h32.1602l87.7402 -369.13c9.4502 -38.3701 18.7598 -84.1299 26.1797 -115.26h0.580078c7.41992 32.29 17.3203 80.0801 27.3398 121.05l87.1602 353.34h32.7402l87.1602 -353.34c10.0195 -40.9697 19.9199 -88.7598 27.3398 -121.05h0.580078
c7.41992 31.1299 16.7295 76.8896 26.1797 115.26z" />
    <glyph glyph-name="wcircumflex" unicode="&#x175;" horiz-adv-x="590" 
d="M293.89 684.8l-65.5205 -82.9297h-29.71l77.4404 105.89h35.5801l77.4502 -105.89h-29.71zM540.129 521.44h32.1602l-130 -521.44h-33.0303l-93.1299 369c-7.90039 31.5801 -16.3701 71.5205 -21.0801 95.5801h-0.580078
c-4.70996 -24.0596 -13.1797 -64 -21.0801 -95.5801l-93.1299 -369h-33.0303l-130 521.44h32.1602l87.7402 -369.13c9.4502 -38.3701 18.7598 -84.1299 26.1797 -115.26h0.580078c7.41992 32.29 17.3203 80.0801 27.3398 121.05l87.1602 353.34h32.7402l87.1602 -353.34
c10.0195 -40.9697 19.9199 -88.7598 27.3398 -121.05h0.580078c7.41992 31.1299 16.7295 76.8896 26.1797 115.26z" />
    <glyph glyph-name="wdieresis" unicode="&#x1e85;" horiz-adv-x="590" 
d="M241.29 623.87c-17.6104 0 -28.6299 10.7305 -28.6299 28.3408c0 17.5996 11.0195 28.3398 28.6299 28.3398c17.3096 0 28.3398 -10.7402 28.3398 -28.3398c0 -17.6104 -11.0303 -28.3408 -28.3398 -28.3408zM346.5 623.87c-17.6104 0 -28.9199 10.7305 -28.9199 28.3408
c0 17.5996 11.3096 28.3398 28.9199 28.3398c17.5996 0 28.6299 -10.7402 28.6299 -28.3398c0 -17.6104 -11.0303 -28.3408 -28.6299 -28.3408zM540.13 521.44h32.1602l-130 -521.44h-33.0303l-93.1299 369c-7.90039 31.5801 -16.3701 71.5205 -21.0801 95.5801h-0.580078
c-4.70996 -24.0596 -13.1797 -64 -21.0801 -95.5801l-93.1299 -369h-33.0303l-130 521.44h32.1602l87.7402 -369.13c9.4502 -38.3701 18.7598 -84.1299 26.1797 -115.26h0.580078c7.41992 32.29 17.3203 80.0801 27.3398 121.05l87.1602 353.34h32.7402l87.1602 -353.34
c10.0195 -40.9697 19.9199 -88.7598 27.3398 -121.05h0.580078c7.41992 31.1299 16.7295 76.8896 26.1797 115.26z" />
    <glyph glyph-name="wgrave" unicode="&#x1e81;" horiz-adv-x="590" 
d="M326.97 602.16h-30.29l-82.7402 105.89h37.3203zM540.13 521.44h32.1602l-130 -521.44h-33.0303l-93.1299 369c-7.90039 31.5801 -16.3701 71.5205 -21.0801 95.5801h-0.580078c-4.70996 -24.0596 -13.1797 -64 -21.0801 -95.5801l-93.1299 -369h-33.0303l-130 521.44
h32.1602l87.7402 -369.13c9.4502 -38.3701 18.7598 -84.1299 26.1797 -115.26h0.580078c7.41992 32.29 17.3203 80.0801 27.3398 121.05l87.1602 353.34h32.7402l87.1602 -353.34c10.0195 -40.9697 19.9199 -88.7598 27.3398 -121.05h0.580078
c7.41992 31.1299 16.7295 76.8896 26.1797 115.26z" />
    <glyph glyph-name="x" unicode="x" horiz-adv-x="361" 
d="M348 0h-36.3203l-130.95 236.96l-132.31 -236.96h-35.6104l150.29 263.42l-144 258.02h35.0303l126.63 -229.47l126.63 229.47h34.3203l-142.29 -258.02z" />
    <glyph glyph-name="y" unicode="y" horiz-adv-x="374" 
d="M324.81 521.44l32.1592 0.00195312l-185.1 -601.78c-18.3203 -56.6904 -45.9004 -102.851 -100.431 -102.851h-28.3096v29.5801h25.29c37.7598 0 58.4502 32.1602 74.29 80.1299l37.9697 124.71l-163.45 470.21h33.7402l97.0801 -280.23l47.5703 -140.89l43.1104 141.6z
" />
    <glyph glyph-name="yacute" unicode="&#xfd;" horiz-adv-x="374" 
d="M265.42 709.5l-82.7402 -105.9h-30.29l75.71 105.9h37.3203zM324.81 521.439l32.1592 0.00195312l-185.1 -601.78c-18.3203 -56.6904 -45.9004 -102.851 -100.431 -102.851h-28.3096v29.5801h25.29c37.7598 0 58.4502 32.1602 74.29 80.1299l37.9697 124.71
l-163.45 470.21h33.7402l97.0801 -280.23l47.5703 -140.89l43.1104 141.6z" />
    <glyph glyph-name="ycircumflex" unicode="&#x177;" horiz-adv-x="374" 
d="M189.05 686.24l-65.5303 -82.9297h-29.71l77.4502 105.9h35.5801l77.4502 -105.9h-29.71zM324.81 521.44l32.1592 0.00195312l-185.1 -601.78c-18.3203 -56.6904 -45.9004 -102.851 -100.431 -102.851h-28.3096v29.5801h25.29c37.7598 0 58.4502 32.1602 74.29 80.1299
l37.9697 124.71l-163.45 470.21h33.7402l97.0801 -280.23l47.5703 -140.89l43.1104 141.6z" />
    <glyph glyph-name="ydieresis" unicode="&#xff;" horiz-adv-x="374" 
d="M136.44 625.31c-17.5996 0 -28.6299 10.7402 -28.6299 28.3506c0 17.5996 11.0303 28.3398 28.6299 28.3398c17.3203 0 28.3506 -10.7402 28.3506 -28.3398c0 -17.6104 -11.0303 -28.3506 -28.3506 -28.3506zM241.66 625.31
c-17.6104 0 -28.9307 10.7402 -28.9307 28.3506c0 17.5996 11.3203 28.3398 28.9307 28.3398c17.5996 0 28.6299 -10.7402 28.6299 -28.3398c0 -17.6104 -11.0303 -28.3506 -28.6299 -28.3506zM324.811 521.439l32.1592 0.00195312l-185.1 -601.78
c-18.3203 -56.6904 -45.9004 -102.851 -100.431 -102.851h-28.3096v29.5801h25.29c37.7598 0 58.4502 32.1602 74.29 80.1299l37.9697 124.71l-163.45 470.21h33.7402l97.0801 -280.23l47.5703 -140.89l43.1104 141.6z" />
    <glyph glyph-name="ygrave" unicode="&#x1ef3;" horiz-adv-x="374" 
d="M222.13 603.6h-30.29l-82.7402 105.9h37.3203zM324.81 521.439l32.1592 0.00195312l-185.1 -601.78c-18.3203 -56.6904 -45.9004 -102.851 -100.431 -102.851h-28.3096v29.5801h25.29c37.7598 0 58.4502 32.1602 74.29 80.1299l37.9697 124.71l-163.45 470.21h33.7402
l97.0801 -280.23l47.5703 -140.89l43.1104 141.6z" />
    <glyph glyph-name="z" unicode="z" horiz-adv-x="341" 
d="M20.2598 0v25.9707l250.21 467.47h-234.95v28.7197h271.14v-25.6904l-249.5 -467.76h253.94v-28.71h-290.84z" />
    <glyph glyph-name="zacute" unicode="&#x17a;" horiz-adv-x="341" 
d="M136.63 603.6l75.71 105.9h37.3203l-82.7402 -105.9h-30.29zM20.2598 0v25.9707l250.21 467.47h-234.95v28.7197h271.14v-25.6904l-249.5 -467.76h253.94v-28.71h-290.84z" />
    <glyph glyph-name="zcaron" unicode="&#x17e;" horiz-adv-x="341" 
d="M191.08 603.6h-35.5791l-77.4502 105.9h29.71l65.5303 -82.9297l65.5195 82.9297h29.71zM57.1611 28.71l253.94 0.000976562v-28.71h-290.84v25.9697l250.21 467.47h-234.95v28.7197h271.14v-25.6904z" />
    <glyph glyph-name="zdotaccent" unicode="&#x17c;" horiz-adv-x="341" 
d="M173 622c-19.0596 0 -31.6592 12.5996 -31.6592 31.6592c0 19.0498 12.5996 31.6494 31.6592 31.6494c19.0498 0 31.6602 -12.5996 31.6602 -31.6494c0 -19.0596 -12.6104 -31.6592 -31.6602 -31.6592zM20.2598 0v25.9707l250.21 467.47h-234.95v28.7197h271.14v-25.6904
l-249.5 -467.76h253.94v-28.71h-290.84z" />
    <glyph glyph-name="uni0410" unicode="&#x410;" horiz-adv-x="438" 
d="M390.23 0l-50.0195 191.71h-242.32l-50.0195 -191.71h-34.0303l186.84 700h36.7402l186.84 -700h-34.0303zM105.651 221.42h226.801l-74.1904 284.31c-13.8398 52.9502 -27.3896 107.21 -38.9199 152.64h-0.580078c-11.5303 -45.4297 -25.0801 -99.6895 -38.9199 -152.64
z" />
    <glyph glyph-name="uni0411" unicode="&#x411;" horiz-adv-x="476" 
d="M84.0996 0v700h315.13v-30.29h-282.97v-263.66h128.5c107.63 0 190.34 -69.6104 190.34 -202.16c0 -130.87 -82.71 -203.89 -190.34 -203.89h-160.66zM116.26 30.29h128.5c89.5303 0 157.9 58.3896 157.9 173.6c0 116.19 -68.3701 171.87 -157.9 171.87h-128.5v-345.47z
" />
    <glyph glyph-name="uni0412" unicode="&#x412;" horiz-adv-x="478" 
d="M301.82 363.96c95.0703 -19.0596 134.28 -87.5195 134.28 -174.38c0 -121.45 -74.29 -189.58 -196.16 -189.58h-155.84v700h146.95c109.89 0 176.05 -64.5801 176.05 -177.03c0 -76.5996 -31.1299 -140.229 -105.28 -159.01zM231.051 669.71h-114.789v-292.37h121.05
c95.21 0 137.35 63.1797 137.35 145.63c0 96.3701 -51.3701 146.74 -143.61 146.74zM239.941 30.29c104.5 0 163.721 54.499 163.721 159.289c0 88.1504 -54.7402 157.471 -165.48 157.471h-121.92v-316.76h123.68z" />
    <glyph glyph-name="uni0413" unicode="&#x413;" horiz-adv-x="400" 
d="M376.1 700v-30.29h-259.84v-669.71h-32.1602v700h292z" />
    <glyph glyph-name="uni0403" unicode="&#x403;" horiz-adv-x="400" 
d="M313.39 877.02l-95.7598 -105.89h-31.29l87.7402 105.89h39.3096zM376.1 700v-30.29h-259.84v-669.71h-32.1602v700h292z" />
    <glyph glyph-name="uni0490" unicode="&#x490;" horiz-adv-x="390" 
d="M336.16 791.47h30.001v-121.76h-249.9v-669.71h-32.1602v700h252.06v91.4697z" />
    <glyph glyph-name="uni0414" unicode="&#x414;" horiz-adv-x="515" 
d="M415.5 29.5801h60v-141.74h-31.5801v111.45h-401.79v-111.45h-31.5801v141.74h45.8203c40.71 46.0996 71.29 175.5 75.29 303.34l12 367.08h271.84v-670.42zM383.34 29.5801l0.000976562 640.13h-208.4l-12 -341.42c-4.57031 -121.78 -29.6699 -238.54 -67.4102 -298.71
h287.81z" />
    <glyph glyph-name="uni0415" unicode="&#x415;" horiz-adv-x="440" 
d="M116.26 30h280.68v-30h-312.84v700h309.66v-30h-277.5v-298.79h256.95v-30h-256.95v-311.21z" />
    <glyph glyph-name="uni0401" unicode="&#x401;" horiz-adv-x="440" 
d="M174.73 803.63c-17.5996 0 -28.6299 10.7402 -28.6299 28.3398c0 17.6104 11.0303 28.3408 28.6299 28.3408c17.3203 0 28.3506 -10.7305 28.3506 -28.3408c0 -17.5996 -11.0303 -28.3398 -28.3506 -28.3398zM290.521 803.63
c-17.5996 0 -28.9199 10.7402 -28.9199 28.3398c0 17.6104 11.3203 28.3408 28.9199 28.3408c17.6104 0 28.6406 -10.7305 28.6406 -28.3408c0 -17.5996 -11.0303 -28.3398 -28.6406 -28.3398zM116.261 30h280.68v-30h-312.84v700h309.66v-30h-277.5v-298.79h256.95v-30
h-256.95v-311.21z" />
    <glyph glyph-name="uni0416" unicode="&#x416;" horiz-adv-x="699" 
d="M647.84 0l-227.68 364.55l-54.8203 -73.9502v-290.6h-31.5801v290.56l-54.9199 73.8301l-227.58 -364.39h-37.7598l245.13 391.7l-227 308.3h38.1797l263.95 -360.63v360.63h31.5801v-360.41l74.9502 102.96l189 257.45h38.1797l-227.11 -308.12l245.24 -391.88h-37.7598
z" />
    <glyph glyph-name="uni0417" unicode="&#x417;" horiz-adv-x="466" 
d="M287.09 360.94c85.54 -19.6699 129.3 -80.0596 129.3 -176.069c0 -123.87 -72.7598 -196.45 -184.21 -196.45c-110.63 0 -184.5 70.9199 -191.92 190.76h32.4502c8.83984 -102.47 67.79 -159.89 158.89 -159.89c93.0801 0 152.63 60.8096 152.63 164.869
c0 107.07 -63.1504 161.051 -162.79 161.051h-64.0996v30.29h69.1797c90.2402 0 143.42 54.21 143.42 152.76c0 98.3398 -52.8096 152.45 -138.92 152.45c-89.3896 0 -143.02 -57.6904 -148.6 -159.771h-32.1602c7 119.74 73 190.641 181.05 190.641
c103.19 0 170.79 -65.7402 170.79 -185.48c0 -83.6602 -33.7002 -143.271 -115.01 -165.16z" />
    <glyph glyph-name="uni0418" unicode="&#x418;" horiz-adv-x="528" 
d="M84.0996 0v700.001h32.1602v-550.29c0 -25.0498 -0.290039 -57.79 -0.870117 -82.8398l0.870117 -0.290039c11.1299 24.71 25.0303 56.2295 39.0498 85.5791l254.45 547.84h34.4697v-700h-32.1504v544.13c0 26.8701 0.290039 62.4199 0.290039 89.29l-0.580078 0.290039
c-9.55957 -20.9805 -23.4492 -52.5 -34.1592 -75.79l-259.63 -557.92h-33.9004z" />
    <glyph glyph-name="uni0419" unicode="&#x419;" horiz-adv-x="528" 
d="M264.31 769.55c-60.4697 0 -100.759 40.5801 -101.629 105.34h28.5498c0.870117 -50.3896 27.4004 -78.0801 73.0801 -78.0801c45.6904 0 72.21 27.6904 73.0801 78.0801h28.5498c-0.860352 -64.7598 -41.1504 -105.34 -101.631 -105.34zM84.1006 -0v700.001h32.1602
v-550.29c0 -25.0498 -0.290039 -57.79 -0.870117 -82.8398l0.870117 -0.290039c11.1299 24.71 25.0303 56.2295 39.0498 85.5791l254.45 547.84h34.4697v-700h-32.1504v544.13c0 26.8701 0.290039 62.4199 0.290039 89.29l-0.580078 0.290039
c-9.55957 -20.9805 -23.4492 -52.5 -34.1592 -75.79l-259.63 -557.92h-33.9004z" />
    <glyph glyph-name="uni040D" unicode="&#x40d;" horiz-adv-x="528" 
d="M295.37 771.13h-31.291l-95.7695 105.89h39.3203zM84.0986 -0v700.001h32.1602v-550.29c0 -25.0498 -0.290039 -57.79 -0.870117 -82.8398l0.870117 -0.290039c11.1299 24.71 25.0303 56.2295 39.0498 85.5791l254.45 547.84h34.4697v-700h-32.1504v544.13
c0 26.8701 0.290039 62.4199 0.290039 89.29l-0.580078 0.290039c-9.55957 -20.9805 -23.4492 -52.5 -34.1592 -75.79l-259.63 -557.92h-33.9004z" />
    <glyph glyph-name="uni041A" unicode="&#x41a;" horiz-adv-x="468" 
d="M416.66 0l-236.37 370.301l-64.0303 -85.1104v-285.19h-32.1602v700h32.1602v-365.54l33.5498 46.04l239.4 319.5h40.0498l-228.26 -302.25l253.42 -397.75h-37.7598z" />
    <glyph glyph-name="uni040C" unicode="&#x40c;" horiz-adv-x="468" 
d="M321.1 877.02l-95.7598 -105.89h-31.29l87.7402 105.89h39.3096zM416.66 -0l-236.37 370.301l-64.0303 -85.1104v-285.19h-32.1602v700h32.1602v-365.54l33.5498 46.04l239.4 319.5h40.0498l-228.26 -302.25l253.42 -397.75h-37.7598z" />
    <glyph glyph-name="uni041B" unicode="&#x41b;" horiz-adv-x="477" 
d="M7.09961 -7.58008l0.000976562 30.5801c53.1104 0 73.6904 77.3701 79.6904 121c9.70996 66.4697 19.5801 206.63 35.2598 556h271.16v-700h-32.1602v669.71h-208.42c-14.6904 -314.79 -22.9707 -450.84 -34.9707 -529.74
c-8.16016 -58.4502 -37.9502 -147.55 -110.561 -147.55z" />
    <glyph glyph-name="uni041C" unicode="&#x41c;" horiz-adv-x="626" 
d="M508.29 700h34.0205v-697.87h-32.1504v515.66c0 38.4697 0.570312 74.8896 1.73047 109.89l-1.16016 0.290039c-11.5996 -30.0996 -26.0996 -64.4199 -40.0195 -99.4502l-141.42 -345.76h-32.1602l-141.42 345.76c-13.9199 35.0303 -28.4199 69.3506 -40.0303 99.4502
l-1.16016 -0.290039c1.16016 -35 1.74023 -71.4199 1.74023 -109.89v-515.66h-32.1602v697.87h34.0303l155.55 -377.32c13.0303 -31.5 27.3701 -70.8096 38.9502 -100.579h1.16016c11.5801 29.7695 25.9199 69.0791 38.9395 100.579z" />
    <glyph glyph-name="uni041D" unicode="&#x41d;" horiz-adv-x="517" 
d="M400.79 700h32.1504v-700h-32.1504v341.21h-284.53v-341.21h-32.1602v700h32.1602v-328.5h284.53v328.5z" />
    <glyph glyph-name="uni041E" unicode="&#x41e;" horiz-adv-x="508" 
d="M254.02 -11.5801c-116.05 0 -188.92 74.0801 -188.92 210.811v300.82c0 137.45 72.8701 211.53 188.92 211.53c116.06 0 188.92 -74.0801 188.92 -211.53v-300.82c0 -136.73 -72.8604 -210.811 -188.92 -210.811zM254.02 19.29c97.4004 0 156.48 60.5801 156.48 179.94
v300.82c0 120.08 -59.0801 180.66 -156.48 180.66c-97.3896 0 -156.47 -60.5801 -156.47 -180.66v-300.82c0 -119.36 59.0801 -179.94 156.47 -179.94z" />
    <glyph glyph-name="uni041F" unicode="&#x41f;" horiz-adv-x="517" 
d="M432.94 700l0.000976562 -700h-32.1504v669.71h-284.53v-669.71h-32.1602v700h348.84z" />
    <glyph glyph-name="uni0420" unicode="&#x420;" horiz-adv-x="469" 
d="M427.94 492.1c0.719727 -136.18 -70.2803 -214.31 -194.311 -214.31h-117.37v-277.79h-32.1602v700h149.53c124.03 0 193.601 -76.5801 194.311 -207.9zM395.79 492.1c0.709961 113.24 -56.0801 177.32 -162.16 177.32h-117.37v-361.05h117.37
c106.08 0 161.45 65.6299 162.16 183.729z" />
    <glyph glyph-name="uni0421" unicode="&#x421;" horiz-adv-x="469" 
d="M241.89 -12c-106.31 0 -176.79 70.0195 -176.79 205.729v311.82c0 136.42 69.9004 206.45 175.631 206.45c111.16 0 174.93 -64.9004 184.06 -191.341h-31.5801c-9.12988 109.65 -59.9795 161.631 -152.479 161.631c-87.0703 0 -144.051 -57.1104 -144.051 -176.74
v-311.82c0 -118.92 57.5498 -176.02 145.21 -176.02c94.21 0 147.32 52.5498 155.9 161.63h31.5801c-8.58008 -125.87 -74.6104 -191.34 -187.48 -191.34z" />
    <glyph glyph-name="uni0422" unicode="&#x422;" horiz-adv-x="397" 
d="M373.08 700v-30.29h-160.4v-669.71h-32.1602v669.71h-156.84v30.29h349.4z" />
    <glyph glyph-name="uni0423" unicode="&#x423;" horiz-adv-x="390" 
d="M346.5 700h33.4395l-188.78 -594.19c-14.0596 -45.3096 -49.9492 -113.39 -118.899 -113.39h-24v30.5801h21.8701c52.5801 0 80.71 57.0498 91.7402 91.8701l36.3896 115.34l-186 469.79h34.0303l166.76 -422.91z" />
    <glyph glyph-name="uni040E" unicode="&#x40e;" horiz-adv-x="390" 
d="M202.16 769.55c-60.4805 0 -100.771 40.5801 -101.641 105.34h28.5596c0.860352 -50.3896 27.3906 -78.0801 73.0811 -78.0801c45.6797 0 72.21 27.6904 73.0703 78.0801h28.5596c-0.870117 -64.7598 -41.1602 -105.34 -101.63 -105.34zM346.5 700h33.4395
l-188.78 -594.19c-14.0596 -45.3096 -49.9492 -113.39 -118.899 -113.39h-24v30.5801h21.8701c52.5801 0 80.71 57.0498 91.7402 91.8701l36.3896 115.34l-186 469.79h34.0303l166.76 -422.91z" />
    <glyph glyph-name="uni0424" unicode="&#x424;" horiz-adv-x="643" 
d="M305.5 -51.0303v82.2598h-48.1299c-130.24 0 -208.29 86.8701 -208.29 233.66v175.48c0 145.36 78.0498 230.811 208.29 230.811h48.1299v75.1299h32.1602v-75.1299h48.1299c130.52 0 208.579 -85.4502 208.579 -230.811v-175.48
c0 -146.79 -78.0596 -233.66 -208.579 -233.66h-48.1299v-82.2598h-32.1602zM257.37 62.0996l48.1299 0.000976562v578.21h-48.1299c-111.87 0 -175.851 -72.6504 -175.851 -199.94v-175.48c0 -128.71 63.9805 -202.79 175.851 -202.79zM337.66 62.1006
l48.1299 -0.000976562c112.15 0 176.131 74.0801 176.131 202.79v175.48c0 127.29 -63.9805 199.94 -176.131 199.94h-48.1299v-578.21z" />
    <glyph glyph-name="uni0425" unicode="&#x425;" horiz-adv-x="421" 
d="M399.44 0h-35.6006l-153.07 328.46l-153.75 -328.46h-35.5996l171.13 362.58l-162.84 337.42h35.5996l145.46 -305.25l144.78 305.25h35.6104l-162.14 -337.42z" />
    <glyph glyph-name="uni0427" unicode="&#x427;" horiz-adv-x="478" 
d="M361.23 700l32.1602 0.00195312v-697.87h-32.1602v295.18c-36.79 -21.8301 -85.0303 -33.6504 -126.44 -33.6504c-106.11 0 -186.69 68.5996 -186.69 194.649v241.69h32.1602v-241.69c0 -110.1 67.6602 -164.08 154.53 -164.08c41.8701 0 88.1904 11.7598 126.44 35.6699
v370.1z" />
    <glyph glyph-name="uni0426" unicode="&#x426;" horiz-adv-x="534" 
d="M463.34 -115v115h-379.24v700h32.1602v-669.71h282.37v669.71h32.1602v-669.71h63.4199v-145.29h-30.8701z" />
    <glyph glyph-name="uni0428" unicode="&#x428;" horiz-adv-x="779" 
d="M84.0996 0l-0.000976562 700h32.1602v-669.71h256.97v669.71h32.1602v-669.71h256.98v669.71h32.1504v-700h-610.42z" />
    <glyph glyph-name="uni0429" unicode="&#x429;" horiz-adv-x="797" 
d="M726.5 -115v115h-642.4v700h32.1602v-669.71h256.97v669.71h32.1602v-669.71h256.98v669.71h32.1504v-669.71h62.8496v-145.29h-30.8701z" />
    <glyph glyph-name="uni040F" unicode="&#x40f;" horiz-adv-x="516" 
d="M243.23 -115l-0.000976562 115h-159.13v700h32.1602v-669.71h283.82v669.71h32.1504v-700h-158.13v-115h-30.8701z" />
    <glyph glyph-name="uni042C" unicode="&#x42c;" horiz-adv-x="458" 
d="M84.0996 0v700.001h32.1602v-297.69h122.68c124.11 0 194.45 -72.1504 194.45 -199.58c0 -130 -70.3398 -202.73 -194.45 -202.73h-154.84zM116.26 30.291l122.68 0.00195312c106 0 162 58.0996 162 172.439c0 111.77 -56 169.289 -162 169.289h-122.68v-341.73z" />
    <glyph glyph-name="uni042A" unicode="&#x42a;" horiz-adv-x="509" 
d="M136.29 0l0.000976562 669.71h-114.32v30.29h146.47v-296.82h118.64c126.71 0 197.05 -72.4502 197.05 -200.16c0 -130 -70.3398 -203.02 -197.05 -203.02h-150.79zM168.441 30.5801l118.64 0.000976562c108.6 0 164.6 58.3896 164.6 172.439
c0 111.77 -56 169.579 -164.6 169.579h-118.64v-342.02z" />
    <glyph glyph-name="uni042B" unicode="&#x42b;" horiz-adv-x="621" 
d="M84.0996 0v700h32.1602v-300.82h117.76c124.29 0 193.21 -71.4502 193.21 -198.16c0 -129 -68.9199 -201.02 -193.21 -201.02h-149.92zM504.92 0v700h32.1602v-700h-32.1602zM116.26 30.5801l117.76 0.000976562c106.19 0 160.771 57.3896 160.771 170.439
c0 110.77 -54.5801 167.579 -160.771 167.579h-117.76v-338.02z" />
    <glyph glyph-name="uni0409" unicode="&#x409;" horiz-adv-x="721" 
d="M7.09961 -7.58008l0.00195312 30.5801c50.8203 0 69.6904 77.3701 75.9805 121c10 66.4697 19.29 206.63 34.6797 556h266.26v-300.82h118.64c124.28 0 193.21 -71.4502 193.21 -198.16c0 -129 -68.9297 -201.02 -193.21 -201.02h-150.79v669.71h-203.53
c-14.4004 -314.79 -22.4004 -450.84 -34.4004 -529.74c-8.73047 -58.4502 -36.5205 -147.55 -106.841 -147.55zM384.021 30.5801l118.64 0.000976562c106.18 0 160.76 57.3896 160.76 170.439c0 110.77 -54.5801 167.579 -160.76 167.579h-118.64v-338.02z" />
    <glyph glyph-name="uni040A" unicode="&#x40a;" horiz-adv-x="767" 
d="M84.0996 0v700h32.1602v-316.63h282.5v316.63h32.1602v-315.63h118.63c124 0 192.63 -68.4502 192.63 -190.45c0 -124.74 -68.6299 -193.92 -192.63 -193.92h-150.79v353.08h-282.5v-353.08h-32.1602zM430.92 30.5801h118.63c105.89 0 160.18 55.2598 160.18 163.34
c0 105.76 -54.29 159.87 -160.18 159.87h-118.63v-323.21z" />
    <glyph glyph-name="uni0405" unicode="&#x405;" horiz-adv-x="431" 
d="M214.92 -11.5801c-105.34 0 -167.841 72.0186 -174.4 174.519h32.1602c8.69043 -89.8398 57.9805 -143.649 142.37 -143.649c88.5498 0 139.08 59.3896 139.08 138.939c0 183.32 -307.16 192.141 -307.16 392.291c0 93.8701 69.4502 161.061 166.08 161.061
c96.5 0 160.24 -68.0596 167.37 -172.369h-32.1602c-8.25977 92.2598 -57.6797 141.5 -133.92 141.5c-79.5498 0 -134.92 -52.5303 -134.92 -130.19c0 -178.34 307.16 -185.84 307.16 -392.29c0 -92.8604 -64.29 -169.811 -171.66 -169.811z" />
    <glyph glyph-name="uni0404" unicode="&#x404;" horiz-adv-x="469" 
d="M397.79 179.34h31.5801c-8.58008 -125.87 -74.6104 -191.34 -187.48 -191.34c-106.31 0 -176.79 70.0195 -176.79 205.729v311.82c0 136.42 69.9004 206.45 175.631 206.45c111.16 0 174.93 -64.9004 184.06 -191.341h-31.5801
c-9.12988 109.65 -59.9795 161.631 -152.479 161.631c-87.0703 0 -144.051 -57.1104 -144.051 -176.74v-131.21h228.21v-30.29h-228.21v-150.32c0 -118.92 57.5498 -176.02 145.21 -176.02c94.21 0 147.32 52.5498 155.9 161.63z" />
    <glyph glyph-name="uni042D" unicode="&#x42d;" horiz-adv-x="469" 
d="M228.6 712c105.74 0 175.632 -70.0303 175.632 -206.45v-311.82c0 -135.71 -70.4697 -205.729 -176.79 -205.729c-112.86 0 -178.891 65.4697 -187.471 191.34h31.5801c8.58008 -109.08 61.6797 -161.63 155.89 -161.63c87.6602 0 145.22 57.0996 145.22 176.02v150.32
h-228.22v30.29h228.22v131.21c0 119.63 -56.9805 176.74 -144.061 176.74c-92.5 0 -143.34 -51.9805 -152.47 -161.631h-31.5801c9.12988 126.44 72.8896 191.341 184.05 191.341z" />
    <glyph glyph-name="uni0406" unicode="&#x406;" horiz-adv-x="200" 
d="M84.0996 0v700h32.1602v-700h-32.1602z" />
    <glyph glyph-name="uni0407" unicode="&#x407;" horiz-adv-x="200" 
d="M42.8701 803.63c-17.6104 0 -28.6406 10.7402 -28.6406 28.3398c0 17.6104 11.0303 28.3408 28.6406 28.3408c17.3096 0 28.3398 -10.7305 28.3398 -28.3408c0 -17.5996 -11.0303 -28.3398 -28.3398 -28.3398zM158.66 803.63
c-17.6104 0 -28.9307 10.7402 -28.9307 28.3398c0 17.6104 11.3203 28.3408 28.9307 28.3408c17.5996 0 28.6299 -10.7305 28.6299 -28.3408c0 -17.5996 -11.0303 -28.3398 -28.6299 -28.3398zM84.1006 -0v700h32.1602v-700h-32.1602z" />
    <glyph glyph-name="uni0408" unicode="&#x408;" horiz-adv-x="219" 
d="M-7.11035 -71.0596v30.5791c77.5498 0 112.29 47.5 112.29 130.48v610h32.1602v-610c0 -99.6299 -47.3701 -161.06 -144.45 -161.06z" />
    <glyph glyph-name="uni040B" unicode="&#x40b;" horiz-adv-x="549" 
d="M175.5 0l0.00195312 669.709h-151.82v30.29h339.34v-30.29h-155.36v-237.87c27.71 60.9199 78.5195 98.7402 142.52 98.7402c85.1904 0 133.19 -65.29 133.19 -198.4v-332.18h-30.5801v330.73c0 115.74 -37.8203 170.851 -107.79 170.851
c-79.4004 0 -137.341 -73.0801 -137.341 -183.61v-317.97h-32.1602z" />
    <glyph glyph-name="uni042E" unicode="&#x42e;" horiz-adv-x="695" 
d="M441.55 710.42c116.05 0 188.63 -74.0801 188.63 -214.42v-292.71c0 -139.63 -72.5801 -213.71 -188.63 -213.71s-188.63 74.0801 -188.63 213.71v137.92h-136.66v-341.21h-32.1602v700h32.1602v-328.5h136.66v124.5c0 140.34 72.5801 214.42 188.63 214.42z
M597.729 203.29v292.71c0 122.97 -59.0703 183.55 -156.181 183.55s-156.181 -60.5801 -156.181 -183.55v-292.71c0 -122.27 59.0703 -182.85 156.181 -182.85s156.181 60.5801 156.181 182.85z" />
    <glyph glyph-name="uni042F" unicode="&#x42f;" horiz-adv-x="469" 
d="M35.8096 0l183.501 290.229c-100.13 9.19043 -166.5 81.21 -166.5 203.87c0 134.29 78.5596 205.9 191.189 205.9h140.94v-700h-32.1504v289.08h-96.7402l-182.34 -289.08h-37.9004zM243.421 319.369h109.37v350.34h-108.79c-97.1104 0 -158.74 -56.9805 -158.74 -174.74
c0 -117.47 61.6299 -175.6 158.16 -175.6z" />
    <glyph glyph-name="uni0402" unicode="&#x402;" horiz-adv-x="544" 
d="M333.13 -8.70996l0.000976562 29.29c84.2598 2.70996 121.08 51.0801 121.08 131.34v178.81c0 115.74 -37.8203 170.851 -107.08 170.851c-80.8203 0 -139.471 -73.0801 -139.471 -183.61v-317.97h-32.1602v669.71h-151.82v30.29h339.34v-30.29h-155.36v-238.58
c27.71 60.9199 79.9404 99.4502 144.65 99.4502c84.4805 0 132.48 -65.29 132.48 -198.4v-180.26c0 -96.3398 -50.1602 -158.21 -151.66 -160.63z" />
    <glyph glyph-name="uni0414.loclBGR" horiz-adv-x="462" 
d="M8.67969 -112.16v142.45h36.1904l168.36 669.71h36.4502l168.08 -669.71h35.4697v-142.45h-30.8604v112.16h-382.82v-112.16h-30.8701zM78.7295 30.29h305.449l-101.89 417.39c-17.1299 69.71 -33.5596 141.55 -50.6895 211.26h-0.580078
c-15.3896 -64.1797 -33.9697 -143.279 -50.8096 -212.39z" />
    <glyph glyph-name="uni041B.loclBGR" horiz-adv-x="429" 
d="M195.39 700l37.9023 0.000976562l181.55 -700h-34.7402l-128.44 508.34c-12.7402 52.0996 -25.1602 101.97 -36.7402 148.58h-1.16016c-12.29 -47.3203 -23.29 -95.0508 -36.7402 -147.871l-128.44 -509.05h-34.7402z" />
    <glyph glyph-name="uni0430" unicode="&#x430;" horiz-adv-x="436" 
d="M217.87 532.02c92.1797 0 145.359 -59.1777 145.359 -159.078v-372.94h-28.2598l-1.87988 62.0498c-24.29 -44.4805 -68.6104 -72.6309 -136.91 -72.6309c-88.1797 0 -147.52 58.29 -147.52 157.45c0 96.7305 62.1504 152.021 173.601 152.021h110.4v73.7695
c0 83.3896 -40.9805 130.069 -115.37 130.069c-72.0801 0 -119.48 -45.3604 -121.351 -106.92h-30.5703c4.70996 78.6299 61.1797 136.21 152.5 136.21zM199.5 19.002c88.3096 0 133.161 50.5205 133.161 139.001v112.18h-110.98
c-92.6299 0 -142.16 -45.2402 -142.16 -123.601c0 -81.0801 47.71 -127.58 119.979 -127.58z" />
    <glyph glyph-name="uni0431" unicode="&#x431;" horiz-adv-x="449" 
d="M230.6 -10c-98.0195 0 -158.209 66.292 -158.209 169.812v311.77c0 126.97 92.6904 172.39 157.08 191.359c48.4004 14.9805 81.79 29.6602 102.95 73.79l24.5498 -16.9404c-22.1602 -51.8701 -70.0303 -73.29 -118.891 -87.71
c-71.9199 -21.1104 -135.11 -59.1602 -135.11 -160.5v-63.4502c26.29 60.7598 79.9502 91.5801 141.92 91.5801c90.8701 0 144.21 -66.29 144.21 -182.16v-157.74c0 -103.52 -60.1797 -169.81 -158.5 -169.81zM230.601 19.582c79.9502 0 127.631 53.791 127.631 140.231
v154.56c0 101.97 -43 155.76 -118.23 155.76c-73.3398 0 -136.74 -51.9004 -136.74 -161.551v-148.77c0 -86.4404 47.6797 -140.23 127.34 -140.23z" />
    <glyph glyph-name="uni0432" unicode="&#x432;" horiz-adv-x="422" 
d="M284.03 278.68c59.5996 -19.6104 98.1504 -67.8389 98.1504 -132.659c0 -92.8604 -59 -146.021 -163.89 -146.021h-145.9v521.16h138c91.3398 0 145.79 -51.8701 145.79 -130.771c0 -47.71 -26.1201 -87.9297 -72.1504 -111.71zM103.392 491.441v-201.391h115.24
c58.0498 0 106.26 44.0801 106.26 100.34c0 60.8203 -41.0996 101.051 -114.79 101.051h-106.71zM218.002 29.7109c86.6602 0 132.89 41.0996 132.89 116.31c0 68.9502 -50.5 114.32 -127.92 114.32h-119.58v-230.63h114.61z" />
    <glyph glyph-name="uni0433" unicode="&#x433;" horiz-adv-x="328" 
d="M312.08 521.44v-29.2803h-209.11v-492.16h-30.5801v521.44h239.69z" />
    <glyph glyph-name="uni0453" unicode="&#x453;" horiz-adv-x="328" 
d="M254.87 709.5l-82.7402 -105.9h-30.29l75.71 105.9h37.3203zM312.08 521.439v-29.2803h-209.11v-492.16h-30.5801v521.44h239.69z" />
    <glyph glyph-name="uni0491" unicode="&#x491;" horiz-adv-x="328" 
d="M282.08 617.89h30v-125.73h-209.11v-492.16h-30.5801v521.44h209.69v96.4502z" />
    <glyph glyph-name="uni0434" unicode="&#x434;" horiz-adv-x="436" 
d="M0 -115l0.000976562 144.71h32.3096c40.0801 38.79 57.79 110.71 65.5 227.76c5.70996 87.9502 8.70996 176.03 10.4199 263.971h249.27v-491.73h55.8701v-144.71h-29.5801v115h-354.21v-115h-29.5801zM71.7314 29.71h254.479v462.02h-187.55
c-1.71973 -79.0498 -4.42969 -157.81 -10.1396 -236.859c-8 -111.24 -23 -181.271 -56.79 -225.16z" />
    <glyph glyph-name="uni0435" unicode="&#x435;" horiz-adv-x="434" 
d="M347.68 154.6h30.5801c-9.41992 -100.05 -62.4697 -164.6 -163.37 -164.6c-96.3096 0 -155.5 66.29 -155.5 169.23v203.56c0 102.94 60.4805 169.23 157.79 169.23c97.1904 0 158.66 -66.29 158.66 -169.23v-118.13h-285.58v-85.4297
c0 -85.8604 46.9697 -139.65 125.21 -139.65c82.5303 0 122.79 52.3398 132.21 135.02zM217.47 502.439c-79.2402 0 -127.21 -53.7803 -127.21 -139.65v-89.4199h255v89.4199c0 85.8701 -48.6797 139.65 -127.79 139.65z" />
    <glyph glyph-name="uni0451" unicode="&#x451;" horiz-adv-x="434" 
d="M163.13 623.87c-17.6104 0 -28.6299 10.7305 -28.6299 28.3408c0 17.5996 11.0195 28.3398 28.6299 28.3398c17.3096 0 28.3398 -10.7402 28.3398 -28.3398c0 -17.6104 -11.0303 -28.3408 -28.3398 -28.3408zM268.34 623.87
c-17.6104 0 -28.9199 10.7305 -28.9199 28.3408c0 17.5996 11.3096 28.3398 28.9199 28.3398c17.5996 0 28.6299 -10.7402 28.6299 -28.3398c0 -17.6104 -11.0303 -28.3408 -28.6299 -28.3408zM347.68 154.601h30.5801c-9.41992 -100.05 -62.4697 -164.6 -163.37 -164.6
c-96.3096 0 -155.5 66.29 -155.5 169.23v203.56c0 102.94 60.4805 169.23 157.79 169.23c97.1904 0 158.66 -66.29 158.66 -169.23v-118.13h-285.58v-85.4297c0 -85.8604 46.9697 -139.65 125.21 -139.65c82.5303 0 122.79 52.3398 132.21 135.02zM217.47 502.44
c-79.2402 0 -127.21 -53.7803 -127.21 -139.65v-89.4199h255v89.4199c0 85.8701 -48.6797 139.65 -127.79 139.65z" />
    <glyph glyph-name="uni0436" unicode="&#x436;" horiz-adv-x="587" 
d="M540.47 0l-178.197 270.589l-53.6104 -67.8496v-202.74h-30v202.74l-53.6201 67.8496l-178.2 -270.59h-36.1797l195.54 294.5l-178.41 226.94h37.0498l118.6 -152.44c31.8301 -40.5498 63.46 -81.2998 95.2197 -121.93v274.37h30v-274.31
c31.75 40.79 63.3799 82.0303 95.21 122.58l118.6 151.73h37.0498l-178.41 -226.94l195.55 -294.5h-36.1904z" />
    <glyph glyph-name="uni0437" unicode="&#x437;" horiz-adv-x="384" 
d="M243.1 274.75c67.96 -16.3896 103.191 -65.71 103.191 -130.44c0 -87.1797 -66.6104 -155.02 -160.21 -155.02c-91.9502 0 -155.11 64.1504 -158.4 152.021h30.5801c3.29004 -71.5 52.8203 -122.44 127.82 -122.44c76.8096 0 129.34 54.3398 129.34 126.31
c0 62.1104 -44.8398 113.74 -134.479 113.74h-73.8604v28.71h72.71c79.7598 0 116.79 50.3096 116.79 105.89c0 59.8203 -40.9805 107.771 -112.5 107.771c-74.1104 0 -110.24 -45.9199 -113.82 -119.06h-30.5801c3.58008 88.5 52.7598 148.35 144.399 148.35
c86.0195 0 143.079 -61.4502 143.079 -136.32c0 -61.3496 -35.9199 -105.08 -84.0596 -119.51z" />
    <glyph glyph-name="uni0438" unicode="&#x438;" horiz-adv-x="446" 
d="M72.3896 0l0.000976562 521.439h30.5801v-366.78c0 -29.7695 0.290039 -72.6094 -1.29004 -98.1094l1.29004 -0.580078c8.29004 18.8701 26.4199 55.5801 40.6895 82.9697l198.55 383.22h31.8701v-522.16h-30.5801v347.66c0 38.6504 1.29004 87.3408 2.58008 120.811
l-1.29004 0.290039c-11.9805 -26.5498 -32.1104 -67.0996 -46.9805 -96.4199l-195.68 -372.34h-29.7402z" />
    <glyph glyph-name="uni0439" unicode="&#x439;" horiz-adv-x="446" 
d="M223.73 604.16c-60.4697 0 -100.759 40.5703 -101.629 105.34h28.5596c0.860352 -50.4004 27.3906 -78.0801 73.0703 -78.0801c45.6904 0 72.21 27.6797 73.0801 78.0801h28.5596c-0.870117 -64.7695 -41.1602 -105.34 -101.641 -105.34zM72.3916 0l0.000976562 521.439
h30.5801v-366.78c0 -29.7695 0.290039 -72.6094 -1.29004 -98.1094l1.29004 -0.580078c8.29004 18.8701 26.4199 55.5801 40.6895 82.9697l198.55 383.22h31.8701v-522.16h-30.5801v347.66c0 38.6504 1.29004 87.3408 2.58008 120.811l-1.29004 0.290039
c-11.9805 -26.5498 -32.1104 -67.0996 -46.9805 -96.4199l-195.68 -372.34h-29.7402z" />
    <glyph glyph-name="uni045D" unicode="&#x45d;" horiz-adv-x="446" 
d="M256.81 603.6h-30.2891l-82.7305 105.9h37.3096zM72.3906 -0l0.000976562 521.439h30.5801v-366.78c0 -29.7695 0.290039 -72.6094 -1.29004 -98.1094l1.29004 -0.580078c8.29004 18.8701 26.4199 55.5801 40.6895 82.9697l198.55 383.22h31.8701v-522.16h-30.5801
v347.66c0 38.6504 1.29004 87.3408 2.58008 120.811l-1.29004 0.290039c-11.9805 -26.5498 -32.1104 -67.0996 -46.9805 -96.4199l-195.68 -372.34h-29.7402z" />
    <glyph glyph-name="uni043A" unicode="&#x43a;" horiz-adv-x="402" 
d="M391.44 0l-37.459 -0.00195312l-191.82 273.43l-0.629883 -0.75l-58.5498 -71.25v-201.43h-30.5801v521.44h30.5801v-274.44c25.5498 30.9404 50.8398 61.9209 76.5801 93.0811l149.68 181.36h39.0596l-185.86 -223.6z" />
    <glyph glyph-name="uni045C" unicode="&#x45c;" horiz-adv-x="402" 
d="M275.68 709.5l-82.7393 -105.9h-30.2803l75.71 105.9h37.3096zM391.44 -0l-37.459 -0.00195312l-191.82 273.43l-0.629883 -0.75l-58.5498 -71.25v-201.43h-30.5801v521.44h30.5801v-274.44c25.5498 30.9404 50.8398 61.9209 76.5801 93.0811l149.68 181.36h39.0596
l-185.86 -223.6z" />
    <glyph glyph-name="uni043B" unicode="&#x43b;" horiz-adv-x="425" 
d="M12.8096 -7.55957v29.291c45.6602 0 66.6104 60.8496 75.7402 149.5c8.12988 79.2402 12.9697 183.29 15.6797 350.21h247.98v-521.44h-30.5801v491.73h-187.11c-3.41992 -157.57 -9.12988 -266.811 -15.6797 -325.94
c-9.70996 -97.6104 -37.6104 -173.351 -106.03 -173.351z" />
    <glyph glyph-name="uni043C" unicode="&#x43c;" horiz-adv-x="532" 
d="M426.63 521.44h33.2861v-521.44h-30v357.92c0 38.21 1.16016 71.9502 1.4502 106.97l-0.870117 0.290039c-14.71 -33.5996 -29.71 -68.5 -45.29 -101.81l-102.55 -216.85h-33l-102.56 216.85c-15.5801 33.3096 -30.5801 68.21 -45.29 101.81l-0.870117 -0.290039
c0.290039 -35.0195 1.4502 -68.7598 1.4502 -106.97v-357.92h-30v521.44h33.29l139.69 -295.13c6.73047 -15.21 13.7607 -30.8398 20.501 -46.0498h0.570312c6.74023 15.21 13.7705 30.8398 20.501 46.0498z" />
    <glyph glyph-name="uni043D" unicode="&#x43d;" horiz-adv-x="437" 
d="M334.23 521.44h30.5801v-521.44h-30.5801v257.5h-231.26v-257.5h-30.5801v521.44h30.5801v-234.94h231.26v234.94z" />
    <glyph glyph-name="uni043E" unicode="&#x43e;" horiz-adv-x="438" 
d="M218.76 -10.5801c-98.5996 0 -159.369 66.29 -159.369 170.1v202.4c0 103.81 60.7695 170.1 159.369 170.1c98.6104 0 159.37 -66.29 159.37 -170.1v-202.4c0 -103.81 -60.7598 -170.1 -159.37 -170.1zM218.76 19c80.2402 0 128.5 53.79 128.5 140.521v202.4
c0 86.7402 -48.2598 140.521 -128.5 140.521s-128.5 -53.7803 -128.5 -140.521v-202.4c0 -86.7305 48.2598 -140.521 128.5 -140.521z" />
    <glyph glyph-name="uni043F" unicode="&#x43f;" horiz-adv-x="437" 
d="M72.3896 0v521.44h292.42v-521.44h-30.5801v492.44h-231.26v-492.44h-30.5801z" />
    <glyph glyph-name="uni0440" unicode="&#x440;" horiz-adv-x="446" 
d="M238.89 532.02c82.9199 0 147.37 -67.291 147.37 -171.861v-200.03c0 -103 -64.1299 -170.71 -152.34 -170.71c-53.9502 0 -106.12 28.2402 -131.24 76.5303v-245.95h-30.29v701.44h27.4004l2.75977 -77.0596c23.75 55.1104 73.7002 87.6406 136.34 87.6406z
M355.39 160.129v200.029c0 89.5 -51.5195 143.15 -123.1 143.15c-66.4004 0 -129.61 -55.2305 -129.61 -156.79v-193.5c0 -76.1797 53.6602 -134.89 125.34 -134.89c74.8701 0 127.37 53.3701 127.37 142z" />
    <glyph glyph-name="uni0441" unicode="&#x441;" horiz-adv-x="421" 
d="M214.6 -10c-96.0195 0 -155.21 66.29 -155.21 169.23v203.56c0 102.94 58.4805 169.23 153.08 169.23c98.6104 0 157.5 -66.29 158.37 -174.21h-30.8701c-0.870117 90.8496 -47.2598 144.63 -127.5 144.63c-76.2402 0 -122.21 -53.7803 -122.21 -139.65v-203.56
c0 -85.8604 46.6797 -139.65 124.34 -139.65c79.5303 0 126.92 53.79 127.79 146.76h30.8701c-0.870117 -110.05 -60.7598 -176.34 -158.66 -176.34z" />
    <glyph glyph-name="uni0442" unicode="&#x442;" horiz-adv-x="334" 
d="M314.66 521.44v-28.71h-132.85v-492.73h-30.5801v492.73h-132.13v28.71h295.56z" />
    <glyph glyph-name="uni0443" unicode="&#x443;" horiz-adv-x="374" 
d="M324.81 521.44l32.1592 0.00195312l-185.1 -601.78c-18.3203 -56.6904 -45.9004 -102.851 -100.431 -102.851h-28.3096v29.5801h25.29c37.7598 0 58.4502 32.1602 74.29 80.1299l37.9697 124.71l-163.45 470.21h33.7402l97.0801 -280.23l47.5703 -140.89l43.1104 141.6z
" />
    <glyph glyph-name="uni045E" unicode="&#x45e;" horiz-adv-x="374" 
d="M189.05 604.16c-60.4697 0 -100.76 40.5703 -101.63 105.34h28.5498c0.870117 -50.4004 27.4004 -78.0801 73.0801 -78.0801s72.21 27.6797 73.0801 78.0801h28.5498c-0.870117 -64.7695 -41.1602 -105.34 -101.63 -105.34zM324.81 521.44l32.1592 0.00195312
l-185.1 -601.78c-18.3203 -56.6904 -45.9004 -102.851 -100.431 -102.851h-28.3096v29.5801h25.29c37.7598 0 58.4502 32.1602 74.29 80.1299l37.9697 124.71l-163.45 470.21h33.7402l97.0801 -280.23l47.5703 -140.89l43.1104 141.6z" />
    <glyph glyph-name="uni0444" unicode="&#x444;" horiz-adv-x="605" 
d="M364.84 527.31c111.42 0 180.53 -71.0195 180.53 -191.649v-151.32c0 -119.76 -69.4004 -190.21 -180.53 -190.21h-47.3203v-174.13h-30.29v174.13h-47.3096c-111.13 0 -180.53 70.4502 -180.53 190.21v151.32c0 120.63 69.1104 191.649 180.53 191.649h47.3096v178.48
h30.29v-178.48h47.3203zM239.92 23.71l47.3096 0.000976562v474.02h-47.3096c-94.0498 0 -149.66 -58.2305 -149.66 -162.07v-151.32c0 -102.68 55.9004 -160.63 149.66 -160.63zM514.499 184.341v151.319c0 103.84 -55.6104 162.07 -149.66 162.07h-47.3203v-474.02
h47.3203c93.7598 0 149.66 57.9502 149.66 160.63z" />
    <glyph glyph-name="uni0445" unicode="&#x445;" horiz-adv-x="361" 
d="M348 0h-36.3203l-130.95 236.96l-132.31 -236.96h-35.6104l150.29 263.42l-144 258.02h35.0303l126.63 -229.47l126.63 229.47h34.3203l-142.29 -258.02z" />
    <glyph glyph-name="uni0447" unicode="&#x447;" horiz-adv-x="409" 
d="M305.68 0v216.471c-32.5801 -18.71 -76.8105 -29.5303 -115.66 -29.5303c-95.8096 0 -153.47 67.29 -153.47 171.19v163.31h30.5801v-163.31c0 -87.5303 48.4199 -141.61 125.76 -141.61c35.4199 0 80.5 10.5303 112.79 34.0801v270.84h30.5801v-521.44h-30.5801z" />
    <glyph glyph-name="uni0446" unicode="&#x446;" horiz-adv-x="444" 
d="M387.81 -115l-0.000976562 115h-315.42v521.44h30.5801v-492.44h228.69v492.44h30.5703v-492.44h55.8701v-144h-30.29z" />
    <glyph glyph-name="uni0448" unicode="&#x448;" horiz-adv-x="669" 
d="M65.6797 0v521.44h30.5801v-492.44h219.42v492.44h30.8701v-492.44h219.42v492.44h30.5801v-521.44h-530.87z" />
    <glyph glyph-name="uni0449" unicode="&#x449;" horiz-adv-x="683" 
d="M628.84 -115v115h-556.45v521.44h30.5801v-492.44h218.71v492.44h30.8701v-492.44h218.71v492.44h30.5801v-492.73h55.29v-143.71h-28.29z" />
    <glyph glyph-name="uni045F" unicode="&#x45f;" horiz-adv-x="436" 
d="M363.39 521.44v-521.44h-129.42v-115h-30v115h-131.58v521.44h30.5801v-492.44h229.84v492.44h30.5801z" />
    <glyph glyph-name="uni044C" unicode="&#x44c;" horiz-adv-x="389" 
d="M210.34 326.5c95 0 159.92 -70 159.92 -163.32c0 -92.8896 -64.21 -163.18 -159.92 -163.18h-137.95v521.44h30.5801v-194.94h107.37zM210.34 29.29c79.3398 0 129.05 57.0801 129.05 133.89c0 77.2402 -49.71 134.03 -129.05 134.03h-107.37v-267.92h107.37z" />
    <glyph glyph-name="uni044A" unicode="&#x44a;" horiz-adv-x="439" 
d="M260.21 326.5c95 0 159.92 -70 159.92 -163.32c0 -92.8896 -64.21 -163.18 -159.92 -163.18h-137.95v492.73h-103.16v28.71h133.74v-194.94h107.37zM260.21 29.29c79.3398 0 129.05 57.0801 129.05 133.89c0 77.2402 -49.71 134.03 -129.05 134.03h-107.37v-267.92
h107.37z" />
    <glyph glyph-name="uni044B" unicode="&#x44b;" horiz-adv-x="553" 
d="M210.34 320.63c95 0 159.92 -68.71 159.92 -160.03c0 -91.5996 -64.21 -160.6 -159.92 -160.6h-137.95v520h30.5801v-199.37h107.37zM450.26 520h30.5801v-520h-30.5801v520zM210.34 29.29c79.3398 0 129.05 55.79 129.05 131.31c0 75.2402 -49.71 130.74 -129.05 130.74
h-107.37v-262.05h107.37z" />
    <glyph glyph-name="uni0459" unicode="&#x459;" horiz-adv-x="638" 
d="M12.8096 -7.55957v29.29c45.6602 0 66.9004 60.8496 75.7402 149.5c8.12988 79.2402 12.9697 183.29 15.6797 350.21h247.98v-200.81h107.37c95 0 159.92 -68.71 159.92 -160.03c0 -91.5996 -64.21 -160.6 -159.92 -160.6h-137.95v491.73h-187.11
c-3.41992 -157.57 -9.12988 -266.811 -15.6797 -325.94c-9.41992 -97.6104 -37.6104 -173.351 -106.03 -173.351zM352.21 29.29h107.37c79.3398 0 129.05 55.79 129.05 131.31c0 75.2402 -49.71 130.74 -129.05 130.74h-107.37v-262.05z" />
    <glyph glyph-name="uni045A" unicode="&#x45a;" horiz-adv-x="650" 
d="M72.3896 0v521.439h30.5801v-218.39h230.69v218.39h30.5703v-218.39h106.66c95.4199 0 160.34 -64.8398 160.34 -150.29c0 -87.1797 -64.21 -152.76 -160.34 -152.76h-137.23v273.76h-230.69v-273.76h-30.5801zM364.229 29.2891h106.66
c79.7695 0 129.479 52.3701 129.479 123.47c0 69.0801 -49.71 121 -129.479 121h-106.66v-244.47z" />
    <glyph glyph-name="uni0455" unicode="&#x455;" horiz-adv-x="389" 
d="M199.31 -10.5801c-95.4697 0 -156.229 54.209 -159.789 151.659h30.5801c3.55957 -82.5 50.1094 -122.08 129.209 -122.08c65.71 0 117.21 38.6797 117.21 101.79c0 150.02 -270.71 110.84 -270.71 283.02c0 75.7695 60.1602 128.21 143.08 128.21
c88.0498 0 145.24 -53.3398 148.08 -138.26h-30.5801c-2.83984 69.9697 -45.8096 108.97 -117.5 108.97c-64.8398 0 -112.21 -38.3896 -112.21 -99.5c0 -144.31 270.71 -105.84 270.71 -283.02c0 -77.7695 -65.71 -130.789 -148.08 -130.789z" />
    <glyph glyph-name="uni0454" unicode="&#x454;" horiz-adv-x="420" 
d="M342.1 166.34h30.8701c-3 -110.05 -60.7598 -176.34 -158.37 -176.34c-96.0195 0 -155.21 66.29 -155.21 169.23v203.56c0 102.94 58.4805 169.23 153.08 169.23c96.9004 0 153.66 -66.29 156.66 -174.21h-30.8701c-3 90.8496 -47.2598 144.63 -125.79 144.63
c-76.2402 0 -122.21 -53.7803 -122.21 -139.65v-82.5801h205.16v-28.71h-205.16v-92.2695c0 -85.8604 46.6797 -139.65 124.34 -139.65c79.2402 0 124.5 53.79 127.5 146.76z" />
    <glyph glyph-name="uni044D" unicode="&#x44d;" horiz-adv-x="420" 
d="M207.87 532.02c94.5996 0 153.069 -66.29 153.069 -169.23v-203.56c0 -102.94 -59.1797 -169.23 -155.21 -169.23c-97.5996 0 -155.359 66.29 -158.359 176.34h30.8604c3 -92.9697 48.2695 -146.76 127.5 -146.76c77.6602 0 124.351 53.79 124.351 139.65v92.2695
h-205.16v28.71h205.16v82.5801c0 85.8701 -45.9805 139.65 -122.211 139.65c-78.5303 0 -122.79 -53.7803 -125.79 -144.63h-30.8701c3 107.92 59.7598 174.21 156.66 174.21z" />
    <glyph glyph-name="uni0456" unicode="&#x456;" horiz-adv-x="175" 
d="M87.8896 622c-19.0498 0 -31.6602 12.5996 -31.6602 31.6592c0 19.0498 12.6104 31.6494 31.6602 31.6494s31.6602 -12.5996 31.6602 -31.6494c0 -19.0596 -12.6104 -31.6592 -31.6602 -31.6592zM72.3896 0v521.44h30.5801v-521.44h-30.5801z" />
    <glyph glyph-name="uni0457" unicode="&#x457;" horiz-adv-x="200" 
d="M48.2598 625.6c-17.3203 0 -28.3398 10.4502 -28.3398 28.0605c0 17.5996 11.0195 28.0498 28.3398 28.0498s28.0508 -10.4502 28.0508 -28.0498c0 -17.6104 -10.7305 -28.0605 -28.0508 -28.0605zM151.729 625.6c-17.5996 0 -28.6299 10.4502 -28.6299 28.0605
c0 17.5996 11.0303 28.0498 28.6299 28.0498c17.3203 0 28.3506 -10.4502 28.3506 -28.0498c0 -17.6104 -11.0303 -28.0605 -28.3506 -28.0605zM84.21 -0v521.44h30.5801v-521.44h-30.5801z" />
    <glyph glyph-name="uni0458" unicode="&#x458;" horiz-adv-x="213" 
d="M109.05 621.71c-19.0498 0 -31.6602 12.5996 -31.6602 31.6592c0 19.0498 12.6104 31.6494 31.6602 31.6494s31.6602 -12.5996 31.6602 -31.6494c0 -19.0596 -12.6104 -31.6592 -31.6602 -31.6592zM-27.1104 -189.16v29.291c84.8398 2.70996 121.08 52.0996 121.08 132.1
v549.21h30.5801v-549.21c0 -96.0703 -49.5801 -158.971 -151.66 -161.391z" />
    <glyph glyph-name="uni045B" unicode="&#x45b;" horiz-adv-x="452" 
d="M254.02 532.02c83.6104 0 132.48 -65.29 132.48 -198.68v-333.34h-30.5801v331.89c0 116.03 -38.1104 171.13 -107.66 171.13c-80.8203 0 -139.471 -73.0801 -139.471 -183.89v-319.13h-30.5801v616.39h-62.5801v26.8203h62.5801v79.0801h30.5801v-79.0801h105.52
v-26.8203h-105.52v-183.76c27.8301 61.0996 80.2402 99.3896 145.23 99.3896z" />
    <glyph glyph-name="uni044E" unicode="&#x44e;" horiz-adv-x="593" 
d="M375.5 532.02c97.7305 0 157.631 -66.291 157.631 -169.811v-202.4c0 -103.52 -59.9004 -169.81 -157.631 -169.81c-97.7402 0 -157.63 66.29 -157.63 169.81v96.8203h-114.9v-256.63h-30.5801v521.44h30.5801v-235.52h114.9v76.29
c0 103.52 59.8896 169.81 157.63 169.81zM502.26 159.809v202.4c0 86.4502 -47.3896 140.23 -126.76 140.23s-126.771 -53.7803 -126.771 -140.23v-202.4c0 -86.4404 47.4004 -140.23 126.771 -140.23s126.76 53.79 126.76 140.23z" />
    <glyph glyph-name="uni044F" unicode="&#x44f;" horiz-adv-x="390" 
d="M193.16 521.44l131.5 0.000976562v-521.44h-30.5801v207.63h-107l-131.37 -207.63h-35.9004l134.51 210.31c-70.1396 9.70996 -117.93 73.9502 -117.93 155.5c0 89.3496 61.0303 155.63 156.771 155.63zM294.08 236.342l0.000976562 255.819h-100.92
c-79.0801 0 -125.9 -53.0801 -125.9 -126.35c0 -74.5498 45.3701 -129.47 117.05 -129.47h109.77z" />
    <glyph glyph-name="uni0452" unicode="&#x452;" horiz-adv-x="461" 
d="M243.68 -192.92l-0.000976562 29.2891c84.2598 2.70996 121.08 50.3604 121.08 139.101v356.42c0 116.03 -38.0996 171.13 -107.659 171.13c-80.8096 0 -139.47 -73.0801 -139.47 -183.89v-319.13h-30.5801v617.13h-82.4697v26.0996h82.4697v79.0596h30.5801v-79.0596
h121.87v-26.0996h-121.87v-185.13c27.71 61.21 80.5303 100.02 145.24 100.02c83.5996 0 132.47 -65.29 132.47 -198.68v-357.87c0 -104.81 -50.1602 -165.97 -151.66 -168.39z" />
    <glyph glyph-name="uni0432.loclBGR" horiz-adv-x="433" 
d="M257.29 382.31c76.3398 -14.1797 130.841 -67.3398 130.841 -185.42c0 -133.63 -68.6299 -204.76 -167.95 -204.76c-93.4697 0 -150.92 65.4199 -150.92 178.76v368.53c0 117.16 54.0303 193.29 150.21 193.29c90.1904 0 145.5 -66.4502 145.5 -174.45
c0 -96.0596 -44.9805 -155.09 -107.681 -175.95zM218.161 703.42c-75.3496 0 -118.319 -63.3398 -118.319 -164v-154.79l84.0498 6.16016c110.16 8.12988 150.21 78.9199 150.21 166.18c0 92.21 -40.9404 146.45 -115.94 146.45zM219.892 21.71
c83.1104 0 137.37 57.6299 137.37 173.02c0 116.71 -54.1299 174.19 -169.32 166.061l-88.0996 -6.17969v-186.32c0 -93.5 44.5303 -146.58 120.05 -146.58z" />
    <glyph glyph-name="uni0433.loclBGR" horiz-adv-x="387" 
d="M190.76 -10c-84.3701 0 -148.95 51.5791 -148.95 130.209c0 180.23 264.98 140.181 264.98 283.601c0 60.8203 -46.79 98.9199 -108.771 98.9199c-70.9697 0 -114.21 -38.5498 -116.34 -108.68h-30.5801c2.12988 84.6299 59.7402 137.97 146.92 137.97
c80.9199 0 139.92 -51.5801 139.92 -127.63c0 -169.55 -264.97 -128.5 -264.97 -283.6c0 -62.8203 53.8203 -101.21 117.79 -101.21c77.2402 0 120.63 38.4199 125.76 121.5h30.5801c-5.12988 -97.1602 -62.8896 -151.08 -156.34 -151.08z" />
    <glyph glyph-name="uni0434.loclBGR" horiz-adv-x="445" 
d="M345.16 521.44h27.6807v-553.18c0 -99.6797 -56.0498 -159.13 -146.399 -159.13c-96.2803 0 -154.891 56.1602 -160.601 143.47h30c7.12988 -71.5195 50.6797 -114.76 130.6 -114.76c72.6904 0 115.82 46.5303 115.82 130.42v114.64
c-24.4805 -45.8604 -72.04 -73.3008 -124.53 -73.3008c-90.3398 0 -158.34 67 -158.34 169.95v179.05c0 106.13 67.29 173.42 156.34 173.42c54.5596 0 101.949 -27.2598 127.109 -76.3594zM220.631 38.6006c69.5498 0 121.63 54.0801 121.63 131.71v200.42
c0 78.21 -54.3896 132.29 -120.92 132.29c-75.4199 0 -131.08 -54.0801 -131.08 -144.42v-179.05c0 -86.8701 55.6602 -140.95 130.37 -140.95z" />
    <glyph glyph-name="uni0436.loclBGR" horiz-adv-x="587" 
d="M576.66 0h-35.4805l-185.92 276.52l-0.549805 -0.650391l-46.0498 -55.1904v-220.68h-30v220.73l-43.3203 52.1104l-3.20996 3.7998l-186 -276.64h-35.4697l201.89 299.86l-186.89 221.58h38.4697l139.37 -167.42l75.1602 -89.5098v456.07h30v-455.99l214.52 256.85
h38.4805l-186.83 -221.69z" />
    <glyph glyph-name="uni0437.loclBGR" horiz-adv-x="410" 
d="M241.85 192.81c78.6396 -20.21 112.569 -89.9707 112.569 -189.65c0 -129.82 -64 -193.45 -164.79 -193.45c-96.1904 0 -152.21 59.29 -158.92 179.6h30.5801c6.70996 -102.5 50.6797 -150.02 127.34 -150.02c82.9697 0 134.92 54 134.92 163.31
c0 107.79 -49.29 173.45 -138.55 173.45h-64.5303v29.71h63.3701c83.6797 0 125.71 60.79 125.71 146.24c0 92.5 -47.5303 150.44 -122.05 150.44c-70.4004 0 -113.21 -50.8096 -119.21 -143.63h-30.5801c5.29004 108.79 59.3096 173.21 150.79 173.21
c93.7598 0 151.34 -67.71 151.34 -182c0 -77.8604 -25.8096 -137.71 -97.9893 -157.21z" />
    <glyph glyph-name="uni0438.loclBGR" horiz-adv-x="446" 
d="M342.68 521h30.5811v-521.45h-27.6797l-2.90039 70.2598v18.3301c-27.7803 -60.9297 -80.0898 -99.1699 -145.24 -99.1699c-81.4404 0 -131.761 62.6904 -131.761 193.19v338.84h30.5801v-336.24c0 -111.68 37.2402 -166.79 106.95 -166.79
c80.8096 0 139.47 73.0801 139.47 183.61v319.42z" />
    <glyph glyph-name="uni0439.loclBGR" horiz-adv-x="446" 
d="M222.31 604.16c-60.4697 0 -100.759 40.5703 -101.629 105.34h28.5498c0.870117 -50.4004 27.4004 -78.0801 73.0801 -78.0801c45.6904 0 72.21 27.6797 73.0801 78.0801h28.5498c-0.860352 -64.7695 -41.1504 -105.34 -101.631 -105.34zM342.681 521h30.5811v-521.45
h-27.6797l-2.90039 70.2598v18.3301c-27.7803 -60.9297 -80.0898 -99.1699 -145.24 -99.1699c-81.4404 0 -131.761 62.6904 -131.761 193.19v338.84h30.5801v-336.24c0 -111.68 37.2402 -166.79 106.95 -166.79c80.8096 0 139.47 73.0801 139.47 183.61v319.42z" />
    <glyph glyph-name="uni045D.loclBGR" horiz-adv-x="452" 
d="M240.23 603.6h-30.2891l-82.7305 105.9h37.3096zM349.392 521h30.5801v-521.45h-27.6797l-2.90039 70.2598v18.3301c-27.7803 -60.9297 -80.0898 -99.1699 -145.229 -99.1699c-81.4502 0 -131.771 62.6904 -131.771 193.19v338.84h30.5801v-336.24
c0 -111.68 37.2402 -166.79 106.95 -166.79c80.8096 0 139.47 73.0801 139.47 183.61v319.42z" />
    <glyph glyph-name="uni043A.loclBGR" horiz-adv-x="405" 
d="M357.55 0l-202.061 278.8l-52.5195 -57.9199v-220.88h-30.5801v722.58h30.5801v-459.35l232.4 258.21h39.4697l-197.99 -219.03l217.59 -302.41h-36.8896z" />
    <glyph glyph-name="uni043B.loclBGR" horiz-adv-x="368" 
d="M167.66 521h32.7305l150.42 -521.45h-32.1504l-95.79 339.68c-12.4297 45.8496 -27 98.5 -38.2695 140.29h-1.16016c-11.2598 -41.79 -25.8398 -94.4404 -38.2598 -140.29l-95.79 -339.68h-32.1602z" />
    <glyph glyph-name="uni043F.loclBGR" horiz-adv-x="446" 
d="M248.21 532.02c81.4502 0 131.76 -62.6816 131.76 -193.182v-338.84h-30.5801v336.23c0 111.69 -37.2305 166.79 -106.95 166.79c-80.8096 0 -139.47 -73.0801 -139.47 -183.6v-319.42h-30.5801v521.44h27.6904l2.88965 -70.2598v-18.3203
c27.7803 60.9297 80.0898 99.1602 145.24 99.1602z" />
    <glyph glyph-name="uni0442.loclBGR" horiz-adv-x="700" 
d="M506.39 532.02c80.29 0 127.48 -65.4209 127.48 -193.761v-338.26h-30.5801v336.81c0 112.13 -35.8496 166.21 -102.08 166.21c-77.4004 0 -132.79 -73.0801 -132.79 -183.6v-319.42h-30.5801v336.81c0 112.85 -37.1299 166.21 -102.24 166.21
c-76.3896 0 -132.63 -73.0801 -132.63 -183.6v-319.42h-30.5801v521.44h27.6904l2.88965 -73.8604v-13.6699c26.5996 60.3203 76.2598 98.1104 137.819 98.1104c61.1299 0 103.75 -38.3096 120.15 -114.76c24.1602 70.1602 77.0801 114.76 145.45 114.76z" />
    <glyph glyph-name="uni0446.loclBGR" horiz-adv-x="462" 
d="M407.08 -115l-0.000976562 118.55c-35.79 16.1104 -58.0801 49.0303 -62.1104 89.7607c-26.29 -63.79 -77.9697 -103.89 -145.97 -103.89c-84.0303 0 -133.32 60.5498 -133.32 193.18v338.84h30.5801v-336.23c0 -110.98 36.2402 -166.79 107.79 -166.79
c80.1104 0 138.761 73.0801 138.761 183.6v319.42h30.5801v-404.21c0 -43.0195 17 -80.4395 62.9805 -91.8096v-140.42h-29.29z" />
    <glyph glyph-name="uni0448.loclBGR" horiz-adv-x="700" 
d="M596.58 521l30.5801 0.00195312v-521.45h-27.6904l-2.88965 73.8701v13.6699c-26.5996 -60.3203 -76.2598 -98.1201 -137.819 -98.1201c-61.1299 0 -103.75 38.3096 -120.15 114.77c-24.1699 -70.1602 -77.0801 -114.771 -145.45 -114.771
c-80.29 0 -127.48 65.4199 -127.48 193.76v338.27h30.5801v-336.82c0 -112.13 35.8398 -166.21 102.08 -166.21c77.3896 0 132.79 73.0801 132.79 183.61v319.42h30.5801v-336.82c0 -112.84 37.1299 -166.21 102.229 -166.21c76.4004 0 132.641 73.0801 132.641 183.61
v319.42z" />
    <glyph glyph-name="uni0449.loclBGR" horiz-adv-x="713" 
d="M658.26 -115l0.000976562 115c-35.79 16.8096 -55.9502 49.7295 -61.6807 92.4697c-26.8496 -62.6602 -76.9492 -103.05 -140.109 -103.05c-59.8398 0 -101.71 38.0996 -118.03 114.05c-24.4199 -69.79 -76.8096 -114.05 -145.71 -114.05
c-79.8604 0 -127.051 65.4199 -127.051 193.76v338.26h30.5801v-336.81c0 -112.13 35.8398 -166.21 101.66 -166.21c77.3896 0 131.92 73.0801 131.92 183.6v319.42h30.5801v-336.81c0 -112.84 36.8398 -166.21 101.24 -166.21c76.3896 0 132.34 73.0801 132.34 183.6
v319.42h30.5801v-404.21c0 -51.5498 22.6797 -86.8398 62.9697 -93.9395v-138.29h-29.29z" />
    <glyph glyph-name="uni044C.loclBGR" horiz-adv-x="395" 
d="M225.47 351.76c84.3398 0.580078 150.34 -70.4297 150.34 -178.33c0 -112.6 -66.5801 -184.02 -155.5 -184.02s-154.63 70.8398 -154.63 177.68v354.34h30.5801v-246c24.2197 48.0898 75.0898 76.0703 129.21 76.3301zM220.31 18.9902
c71.8496 0 124.63 58.21 124.63 154.44c0 91.8203 -52.5 149.03 -124.63 149.03c-70.9697 0 -124.05 -56.0801 -124.05 -151.311c0 -94.2402 52.79 -152.16 124.05 -152.16z" />
    <glyph glyph-name="uni044A.loclBGR" horiz-adv-x="446" 
d="M277.05 351.76c84.3398 0.580078 150.34 -70.4297 150.34 -178.33c0 -112.6 -66.5801 -184.02 -155.5 -184.02s-154.63 70.8398 -154.63 177.68v325.63h-103.16v28.71h133.74v-246c24.2197 48.0898 75.0898 76.0703 129.21 76.3301zM271.89 18.9902
c71.8398 0 124.63 58.21 124.63 154.44c0 91.8203 -52.5 149.03 -124.63 149.03c-70.9697 0 -124.05 -56.0801 -124.05 -151.311c0 -94.2402 52.79 -152.16 124.05 -152.16z" />
    <glyph glyph-name="uni044E.loclBGR" horiz-adv-x="594" 
d="M377.08 530.58c97.7305 0 157.631 -66.29 157.631 -169.82v-200.95c0 -103.52 -59.9004 -169.81 -157.631 -169.81c-97.7402 0 -157.641 66.29 -157.641 169.81v96.8203h-114.89v-256.63h-30.5801v721.42h30.5801v-435.5h114.89v74.8398
c0 103.53 59.9004 169.82 157.641 169.82zM503.84 159.811v200.95c0 86.4502 -47.4004 140.24 -126.761 140.24c-79.3701 0 -126.771 -53.79 -126.771 -140.24v-200.95c0 -86.4404 47.4004 -140.23 126.771 -140.23c79.3604 0 126.761 53.79 126.761 140.23z" />
    <glyph glyph-name="uni0432.ss01" horiz-adv-x="433" 
d="M257.29 382.31c76.3398 -14.1797 130.841 -67.3398 130.841 -185.42c0 -133.63 -68.6299 -204.76 -167.95 -204.76c-93.4697 0 -150.92 65.4199 -150.92 178.76v368.53c0 117.16 54.0303 193.29 150.21 193.29c90.1904 0 145.5 -66.4502 145.5 -174.45
c0 -96.0596 -44.9805 -155.09 -107.681 -175.95zM218.161 703.42c-75.3496 0 -118.319 -63.3398 -118.319 -164v-154.79l84.0498 6.16016c110.16 8.12988 150.21 78.9199 150.21 166.18c0 92.21 -40.9404 146.45 -115.94 146.45zM219.892 21.71
c83.1104 0 137.37 57.6299 137.37 173.02c0 116.71 -54.1299 174.19 -169.32 166.061l-88.0996 -6.17969v-186.32c0 -93.5 44.5303 -146.58 120.05 -146.58z" />
    <glyph glyph-name="uni0433.ss01" horiz-adv-x="387" 
d="M190.76 -10c-84.3701 0 -148.95 51.5791 -148.95 130.209c0 180.23 264.98 140.181 264.98 283.601c0 60.8203 -46.79 98.9199 -108.771 98.9199c-70.9697 0 -114.21 -38.5498 -116.34 -108.68h-30.5801c2.12988 84.6299 59.7402 137.97 146.92 137.97
c80.9199 0 139.92 -51.5801 139.92 -127.63c0 -169.55 -264.97 -128.5 -264.97 -283.6c0 -62.8203 53.8203 -101.21 117.79 -101.21c77.2402 0 120.63 38.4199 125.76 121.5h30.5801c-5.12988 -97.1602 -62.8896 -151.08 -156.34 -151.08z" />
    <glyph glyph-name="uni0434.ss01" horiz-adv-x="445" 
d="M345.16 521.44h27.6807v-553.18c0 -99.6797 -56.0498 -159.13 -146.399 -159.13c-96.2803 0 -154.891 56.1602 -160.601 143.47h30c7.12988 -71.5195 50.6797 -114.76 130.6 -114.76c72.6904 0 115.82 46.5303 115.82 130.42v114.64
c-24.4805 -45.8604 -72.04 -73.3008 -124.53 -73.3008c-90.3398 0 -158.34 67 -158.34 169.95v179.05c0 106.13 67.29 173.42 156.34 173.42c54.5596 0 101.949 -27.2598 127.109 -76.3594zM220.631 38.6006c69.5498 0 121.63 54.0801 121.63 131.71v200.42
c0 78.21 -54.3896 132.29 -120.92 132.29c-75.4199 0 -131.08 -54.0801 -131.08 -144.42v-179.05c0 -86.8701 55.6602 -140.95 130.37 -140.95z" />
    <glyph glyph-name="uni0436.ss01" horiz-adv-x="587" 
d="M576.66 0h-35.4805l-185.92 276.52l-0.549805 -0.650391l-46.0498 -55.1904v-220.68h-30v220.73l-43.3203 52.1104l-3.20996 3.7998l-186 -276.64h-35.4697l201.89 299.86l-186.89 221.58h38.4697l139.37 -167.42l75.1602 -89.5098v456.07h30v-455.99l214.52 256.85
h38.4805l-186.83 -221.69z" />
    <glyph glyph-name="uni0437.ss01" horiz-adv-x="410" 
d="M241.85 192.81c78.6396 -20.21 112.569 -89.9707 112.569 -189.65c0 -129.82 -64 -193.45 -164.79 -193.45c-96.1904 0 -152.21 59.29 -158.92 179.6h30.5801c6.70996 -102.5 50.6797 -150.02 127.34 -150.02c82.9697 0 134.92 54 134.92 163.31
c0 107.79 -49.29 173.45 -138.55 173.45h-64.5303v29.71h63.3701c83.6797 0 125.71 60.79 125.71 146.24c0 92.5 -47.5303 150.44 -122.05 150.44c-70.4004 0 -113.21 -50.8096 -119.21 -143.63h-30.5801c5.29004 108.79 59.3096 173.21 150.79 173.21
c93.7598 0 151.34 -67.71 151.34 -182c0 -77.8604 -25.8096 -137.71 -97.9893 -157.21z" />
    <glyph glyph-name="uni0438.ss01" horiz-adv-x="446" 
d="M342.68 521h30.5811v-521.45h-27.6797l-2.90039 70.2598v18.3301c-27.7803 -60.9297 -80.0898 -99.1699 -145.24 -99.1699c-81.4404 0 -131.761 62.6904 -131.761 193.19v338.84h30.5801v-336.24c0 -111.68 37.2402 -166.79 106.95 -166.79
c80.8096 0 139.47 73.0801 139.47 183.61v319.42z" />
    <glyph glyph-name="uni0439.ss01" horiz-adv-x="446" 
d="M222.31 604.16c-60.4697 0 -100.759 40.5703 -101.629 105.34h28.5498c0.870117 -50.4004 27.4004 -78.0801 73.0801 -78.0801c45.6904 0 72.21 27.6797 73.0801 78.0801h28.5498c-0.860352 -64.7695 -41.1504 -105.34 -101.631 -105.34zM342.681 521h30.5811v-521.45
h-27.6797l-2.90039 70.2598v18.3301c-27.7803 -60.9297 -80.0898 -99.1699 -145.24 -99.1699c-81.4404 0 -131.761 62.6904 -131.761 193.19v338.84h30.5801v-336.24c0 -111.68 37.2402 -166.79 106.95 -166.79c80.8096 0 139.47 73.0801 139.47 183.61v319.42z" />
    <glyph glyph-name="uni045D.ss01" horiz-adv-x="452" 
d="M240.23 603.6h-30.2891l-82.7305 105.9h37.3096zM349.392 521h30.5801v-521.45h-27.6797l-2.90039 70.2598v18.3301c-27.7803 -60.9297 -80.0898 -99.1699 -145.229 -99.1699c-81.4502 0 -131.771 62.6904 -131.771 193.19v338.84h30.5801v-336.24
c0 -111.68 37.2402 -166.79 106.95 -166.79c80.8096 0 139.47 73.0801 139.47 183.61v319.42z" />
    <glyph glyph-name="uni043A.ss01" horiz-adv-x="405" 
d="M357.55 0l-202.061 278.8l-52.5195 -57.9199v-220.88h-30.5801v722.58h30.5801v-459.35l232.4 258.21h39.4697l-197.99 -219.03l217.59 -302.41h-36.8896z" />
    <glyph glyph-name="uni043B.ss01" horiz-adv-x="368" 
d="M167.66 521h32.7305l150.42 -521.45h-32.1504l-95.79 339.68c-12.4297 45.8496 -27 98.5 -38.2695 140.29h-1.16016c-11.2598 -41.79 -25.8398 -94.4404 -38.2598 -140.29l-95.79 -339.68h-32.1602z" />
    <glyph glyph-name="uni043F.ss01" horiz-adv-x="446" 
d="M248.21 532.02c81.4502 0 131.76 -62.6816 131.76 -193.182v-338.84h-30.5801v336.23c0 111.69 -37.2305 166.79 -106.95 166.79c-80.8096 0 -139.47 -73.0801 -139.47 -183.6v-319.42h-30.5801v521.44h27.6904l2.88965 -70.2598v-18.3203
c27.7803 60.9297 80.0898 99.1602 145.24 99.1602z" />
    <glyph glyph-name="uni0442.ss01" horiz-adv-x="700" 
d="M506.39 532.02c80.29 0 127.48 -65.4209 127.48 -193.761v-338.26h-30.5801v336.81c0 112.13 -35.8496 166.21 -102.08 166.21c-77.4004 0 -132.79 -73.0801 -132.79 -183.6v-319.42h-30.5801v336.81c0 112.85 -37.1299 166.21 -102.24 166.21
c-76.3896 0 -132.63 -73.0801 -132.63 -183.6v-319.42h-30.5801v521.44h27.6904l2.88965 -73.8604v-13.6699c26.5996 60.3203 76.2598 98.1104 137.819 98.1104c61.1299 0 103.75 -38.3096 120.15 -114.76c24.1602 70.1602 77.0801 114.76 145.45 114.76z" />
    <glyph glyph-name="uni0446.ss01" horiz-adv-x="462" 
d="M407.08 -115l-0.000976562 118.55c-35.79 16.1104 -58.0801 49.0303 -62.1104 89.7607c-26.29 -63.79 -77.9697 -103.89 -145.97 -103.89c-84.0303 0 -133.32 60.5498 -133.32 193.18v338.84h30.5801v-336.23c0 -110.98 36.2402 -166.79 107.79 -166.79
c80.1104 0 138.761 73.0801 138.761 183.6v319.42h30.5801v-404.21c0 -43.0195 17 -80.4395 62.9805 -91.8096v-140.42h-29.29z" />
    <glyph glyph-name="uni0448.ss01" horiz-adv-x="700" 
d="M596.58 521l30.5801 0.00195312v-521.45h-27.6904l-2.88965 73.8701v13.6699c-26.5996 -60.3203 -76.2598 -98.1201 -137.819 -98.1201c-61.1299 0 -103.75 38.3096 -120.15 114.77c-24.1699 -70.1602 -77.0801 -114.771 -145.45 -114.771
c-80.29 0 -127.48 65.4199 -127.48 193.76v338.27h30.5801v-336.82c0 -112.13 35.8398 -166.21 102.08 -166.21c77.3896 0 132.79 73.0801 132.79 183.61v319.42h30.5801v-336.82c0 -112.84 37.1299 -166.21 102.229 -166.21c76.4004 0 132.641 73.0801 132.641 183.61
v319.42z" />
    <glyph glyph-name="uni0449.ss01" horiz-adv-x="713" 
d="M658.26 -115l0.000976562 115c-35.79 16.8096 -55.9502 49.7295 -61.6807 92.4697c-26.8496 -62.6602 -76.9492 -103.05 -140.109 -103.05c-59.8398 0 -101.71 38.0996 -118.03 114.05c-24.4199 -69.79 -76.8096 -114.05 -145.71 -114.05
c-79.8604 0 -127.051 65.4199 -127.051 193.76v338.26h30.5801v-336.81c0 -112.13 35.8398 -166.21 101.66 -166.21c77.3896 0 131.92 73.0801 131.92 183.6v319.42h30.5801v-336.81c0 -112.84 36.8398 -166.21 101.24 -166.21c76.3896 0 132.34 73.0801 132.34 183.6
v319.42h30.5801v-404.21c0 -51.5498 22.6797 -86.8398 62.9697 -93.9395v-138.29h-29.29z" />
    <glyph glyph-name="uni044C.ss01" horiz-adv-x="395" 
d="M225.47 351.76c84.3398 0.580078 150.34 -70.4297 150.34 -178.33c0 -112.6 -66.5801 -184.02 -155.5 -184.02s-154.63 70.8398 -154.63 177.68v354.34h30.5801v-246c24.2197 48.0898 75.0898 76.0703 129.21 76.3301zM220.31 18.9902
c71.8496 0 124.63 58.21 124.63 154.44c0 91.8203 -52.5 149.03 -124.63 149.03c-70.9697 0 -124.05 -56.0801 -124.05 -151.311c0 -94.2402 52.79 -152.16 124.05 -152.16z" />
    <glyph glyph-name="uni044A.ss01" horiz-adv-x="446" 
d="M277.05 351.76c84.3398 0.580078 150.34 -70.4297 150.34 -178.33c0 -112.6 -66.5801 -184.02 -155.5 -184.02s-154.63 70.8398 -154.63 177.68v325.63h-103.16v28.71h133.74v-246c24.2197 48.0898 75.0898 76.0703 129.21 76.3301zM271.89 18.9902
c71.8398 0 124.63 58.21 124.63 154.44c0 91.8203 -52.5 149.03 -124.63 149.03c-70.9697 0 -124.05 -56.0801 -124.05 -151.311c0 -94.2402 52.79 -152.16 124.05 -152.16z" />
    <glyph glyph-name="uni044E.ss01" horiz-adv-x="594" 
d="M377.08 530.58c97.7305 0 157.631 -66.29 157.631 -169.82v-200.95c0 -103.52 -59.9004 -169.81 -157.631 -169.81c-97.7402 0 -157.641 66.29 -157.641 169.81v96.8203h-114.89v-256.63h-30.5801v721.42h30.5801v-435.5h114.89v74.8398
c0 103.53 59.9004 169.82 157.641 169.82zM503.84 159.811v200.95c0 86.4502 -47.4004 140.24 -126.761 140.24c-79.3701 0 -126.771 -53.79 -126.771 -140.24v-200.95c0 -86.4404 47.4004 -140.23 126.771 -140.23c79.3604 0 126.761 53.79 126.761 140.23z" />
    <glyph glyph-name="zero" unicode="0" horiz-adv-x="443" 
d="M224.44 -10.71c-90.6299 0 -159.34 68.7305 -159.34 165.65v389.82c0 97.21 68.71 165.95 159.34 165.95c90.6396 0 159.35 -68.7402 159.35 -165.95v-389.82c0 -96.9199 -68.71 -165.65 -159.35 -165.65zM224.44 19.5801c73.5596 0 128.06 54.5195 128.06 135.359
v389.82c0 81.1299 -54.5 135.66 -128.06 135.66c-73.5498 0 -128.05 -54.5303 -128.05 -135.66v-389.82c0 -80.8398 54.5 -135.359 128.05 -135.359z" />
    <glyph glyph-name="one" unicode="1" horiz-adv-x="265" 
d="M155.21 700h25.8896v-700h-31.5801v655.9l-117.84 -95.3799v37.6396z" />
    <glyph glyph-name="two" unicode="2" horiz-adv-x="385" 
d="M34.8398 0v28.6787c0 211.71 278.53 338.82 278.53 524.03c0 75.0498 -51.5 126.87 -124.61 125.45c-68.8203 0 -116.34 -52.0801 -119.76 -136.061h-31.5801c6 97.9004 65.8701 165.771 151.34 165.771c91.7598 1.41992 156.18 -65.0303 156.18 -155.16
c0 -202.13 -278.52 -325.689 -278.52 -522.289h281.97v-30.4199h-313.55z" />
    <glyph glyph-name="three" unicode="3" horiz-adv-x="387" 
d="M174.34 412.55c97.2598 0 161.5 -64.1602 161.5 -166.05v-70.9004c0 -117.47 -64.0303 -183.76 -158.63 -183.76c-87.7695 0 -155.659 64.4199 -155.659 172.55h31.5801c2.58008 -93.5 54.5498 -142.26 123.79 -142.26c77.8096 0 127.63 52.3701 127.63 153.47v70.9004
c0 88.1299 -55.8203 137.5 -131.66 137.5h-49.5v24.4199l163.92 261.87h-249.58v29.71h290.35v-20.9805l-166.3 -266.47h12.5596z" />
    <glyph glyph-name="four" unicode="4" horiz-adv-x="384" 
d="M376.58 234.34v-30.29h-80.0303v-204.05h-31.5801l-1.32031 204.05h-248.39v21.6299l167.68 474.32h31.7402l-163.95 -465.66h212.9l1.33984 252.1h31.5801v-252.1h80.0303z" />
    <glyph glyph-name="five" unicode="5" horiz-adv-x="409" 
d="M212.58 469.13c85.5996 0 149.292 -66.999 149.292 -175.499v-119.74c0 -116.89 -63.8203 -183.89 -152.45 -183.89c-87.4805 0 -153.45 65.8398 -154.61 169.6h31.29c0.870117 -87.0996 53.21 -139.31 123.32 -139.31c69.8096 0 120.869 53.0801 120.869 153.6v119.45
c0 92.1299 -48.9004 145.79 -119.32 145.79c-61.0801 0 -98.0498 -35.6904 -116.45 -94.4707h-31.4199v355.34h285.87v-30.4199h-254.58v-264.68c23.9697 38.8096 65.9893 64.2295 118.189 64.2295z" />
    <glyph glyph-name="six" unicode="6" horiz-adv-x="428" 
d="M224.6 464.26c86 0 157.611 -67 157.611 -169.87v-130.52c0 -104.74 -70.7402 -171.74 -158.771 -171.74c-88.3096 0 -158.34 67 -158.34 157.53v391.47c0 102.58 66.7402 169.58 157.061 169.58c84.0195 0 151.89 -64.5801 155.34 -161.74h-31.5801
c-4 81.3701 -56.6904 131.45 -123.761 131.45c-72.6602 0 -125.48 -53.0801 -125.48 -139v-146.57c25.5098 42.2803 71.29 69.4102 127.92 69.4102zM350.631 163.87l-0.000976562 130.521c0 86.5 -57.4004 139.58 -128.92 139.58
c-70.0801 0 -125.03 -53.0801 -125.03 -125.95v-158.36c0 -74.1602 55.8203 -127.24 126.761 -127.24c70.6602 0 127.19 53.0801 127.19 141.45z" />
    <glyph glyph-name="seven" unicode="7" horiz-adv-x="360" 
d="M95.1299 0l186.711 669.71h-271.9v30.29h307.08v-22.3398l-189.44 -677.66h-32.4502z" />
    <glyph glyph-name="eight" unicode="8" horiz-adv-x="443" 
d="M286.44 360.38c61 -22.6602 99.6699 -85.04 99.6699 -160.54v-31.9199c0 -106.92 -64.5801 -175.79 -164.5 -175.79s-164.5 68.8701 -164.5 175.79v31.9199c0 75.5 38.6504 137.88 99.6504 160.54c-53.9297 23.3896 -88.3701 84.9697 -88.3701 159.75v17.6797
c0 103.77 59.8701 170.06 153.21 170.06s153.21 -66.29 153.21 -170.06v-17.6797c0 -74.7803 -34.4404 -136.36 -88.3701 -159.75zM99.9902 520.13c0 -88.1104 47.5303 -144.63 121.63 -144.63c74.1104 0 121.63 56.5195 121.63 144.63v17.6797
c0 84.8203 -47.5195 139.771 -121.63 139.771c-74.0996 0 -121.63 -54.9502 -121.63 -139.771v-17.6797zM354.54 167.92v31.9199c0 88.2598 -52.5195 145.37 -132.92 145.37c-80.3896 0 -132.92 -57.1104 -132.92 -145.37v-31.9199c0 -88.6904 52.5303 -145.5 132.92 -145.5
c80.4004 0 132.92 56.8096 132.92 145.5z" />
    <glyph glyph-name="nine" unicode="9" horiz-adv-x="443" 
d="M214.89 707.87c88.3203 0 158.339 -67 158.339 -157.53v-391.47c0 -102.58 -66.7305 -169.58 -157.051 -169.58c-84.0195 0 -151.89 64.5801 -155.34 161.73h31.5801c4 -81.3604 56.6797 -131.44 123.76 -131.44c72.6602 0 125.48 53.0801 125.48 139v146.56
c-25.5195 -42.2803 -71.2891 -69.4102 -127.929 -69.4102c-86 0 -157.6 67 -157.6 169.87v130.53c0 104.74 70.7402 171.74 158.76 171.74zM216.629 266.021c70.0801 0 125.03 53.0801 125.03 125.95v158.37c0 74.1602 -55.8203 127.24 -126.771 127.24
c-70.6602 0 -127.18 -53.0801 -127.18 -141.45v-130.53c0 -86.5 57.3896 -139.58 128.92 -139.58z" />
    <glyph glyph-name="zero.lf" horiz-adv-x="449" 
d="M224.44 -10.71c-90.6299 0 -159.34 68.7305 -159.34 165.65v389.82c0 97.21 68.71 165.95 159.34 165.95c90.6396 0 159.35 -68.7402 159.35 -165.95v-389.82c0 -96.9199 -68.71 -165.65 -159.35 -165.65zM224.44 19.5801c73.5596 0 128.06 54.5195 128.06 135.359
v389.82c0 81.1299 -54.5 135.66 -128.06 135.66c-73.5498 0 -128.05 -54.5303 -128.05 -135.66v-389.82c0 -80.8398 54.5 -135.359 128.05 -135.359z" />
    <glyph glyph-name="one.lf" horiz-adv-x="265" 
d="M155.21 700h25.8896v-700h-31.5801v655.9l-117.84 -95.3799v37.6396z" />
    <glyph glyph-name="two.lf" horiz-adv-x="385" 
d="M34.8398 0v28.6787c0 211.71 278.53 338.82 278.53 524.03c0 75.0498 -51.5 126.87 -124.61 125.45c-68.8203 0 -116.34 -52.0801 -119.76 -136.061h-31.5801c6 97.9004 65.8701 165.771 151.34 165.771c91.7598 1.41992 156.18 -65.0303 156.18 -155.16
c0 -202.13 -278.52 -325.689 -278.52 -522.289h281.97v-30.4199h-313.55z" />
    <glyph glyph-name="three.lf" horiz-adv-x="387" 
d="M174.34 412.55c97.2598 0 161.5 -64.1602 161.5 -166.05v-70.9004c0 -117.47 -64.0303 -183.76 -158.63 -183.76c-87.7695 0 -155.659 64.4199 -155.659 172.55h31.5801c2.58008 -93.5 54.5498 -142.26 123.79 -142.26c77.8096 0 127.63 52.3701 127.63 153.47v70.9004
c0 88.1299 -55.8203 137.5 -131.66 137.5h-49.5v24.4199l163.92 261.87h-249.58v29.71h290.35v-20.9805l-166.3 -266.47h12.5596z" />
    <glyph glyph-name="four.lf" horiz-adv-x="384" 
d="M376.58 234.34v-30.29h-80.0303v-204.05h-31.5801l-1.32031 204.05h-248.39v21.6299l167.68 474.32h31.7402l-163.95 -465.66h212.9l1.33984 252.1h31.5801v-252.1h80.0303z" />
    <glyph glyph-name="five.lf" horiz-adv-x="409" 
d="M212.58 469.13c85.5996 0 149.292 -66.999 149.292 -175.499v-119.74c0 -116.89 -63.8203 -183.89 -152.45 -183.89c-87.4805 0 -153.45 65.8398 -154.61 169.6h31.29c0.870117 -87.0996 53.21 -139.31 123.32 -139.31c69.8096 0 120.869 53.0801 120.869 153.6v119.45
c0 92.1299 -48.9004 145.79 -119.32 145.79c-61.0801 0 -98.0498 -35.6904 -116.45 -94.4707h-31.4199v355.34h285.87v-30.4199h-254.58v-264.68c23.9697 38.8096 65.9893 64.2295 118.189 64.2295z" />
    <glyph glyph-name="six.lf" horiz-adv-x="428" 
d="M224.6 464.26c86 0 157.611 -67 157.611 -169.87v-130.52c0 -104.74 -70.7402 -171.74 -158.771 -171.74c-88.3096 0 -158.34 67 -158.34 157.53v391.47c0 102.58 66.7402 169.58 157.061 169.58c84.0195 0 151.89 -64.5801 155.34 -161.74h-31.5801
c-4 81.3701 -56.6904 131.45 -123.761 131.45c-72.6602 0 -125.48 -53.0801 -125.48 -139v-146.57c25.5098 42.2803 71.29 69.4102 127.92 69.4102zM350.631 163.87l-0.000976562 130.521c0 86.5 -57.4004 139.58 -128.92 139.58
c-70.0801 0 -125.03 -53.0801 -125.03 -125.95v-158.36c0 -74.1602 55.8203 -127.24 126.761 -127.24c70.6602 0 127.19 53.0801 127.19 141.45z" />
    <glyph glyph-name="seven.lf" horiz-adv-x="360" 
d="M95.1299 0l186.711 669.71h-271.9v30.29h307.08v-22.3398l-189.44 -677.66h-32.4502z" />
    <glyph glyph-name="eight.lf" horiz-adv-x="443" 
d="M286.44 360.38c61 -22.6602 99.6699 -85.04 99.6699 -160.54v-31.9199c0 -106.92 -64.5801 -175.79 -164.5 -175.79s-164.5 68.8701 -164.5 175.79v31.9199c0 75.5 38.6504 137.88 99.6504 160.54c-53.9297 23.3896 -88.3701 84.9697 -88.3701 159.75v17.6797
c0 103.77 59.8701 170.06 153.21 170.06s153.21 -66.29 153.21 -170.06v-17.6797c0 -74.7803 -34.4404 -136.36 -88.3701 -159.75zM99.9902 520.13c0 -88.1104 47.5303 -144.63 121.63 -144.63c74.1104 0 121.63 56.5195 121.63 144.63v17.6797
c0 84.8203 -47.5195 139.771 -121.63 139.771c-74.0996 0 -121.63 -54.9502 -121.63 -139.771v-17.6797zM354.54 167.92v31.9199c0 88.2598 -52.5195 145.37 -132.92 145.37c-80.3896 0 -132.92 -57.1104 -132.92 -145.37v-31.9199c0 -88.6904 52.5303 -145.5 132.92 -145.5
c80.4004 0 132.92 56.8096 132.92 145.5z" />
    <glyph glyph-name="nine.lf" horiz-adv-x="428" 
d="M205 707.87c88.3096 0 158.339 -67 158.339 -157.53v-391.47c0 -102.58 -66.7402 -169.58 -157.05 -169.58c-84.0303 0 -151.9 64.5801 -155.351 161.73h31.5801c4 -81.3604 56.6904 -131.44 123.771 -131.44c72.6504 0 125.471 53.0801 125.471 139v146.56
c-25.5098 -42.2803 -71.29 -69.4102 -127.92 -69.4102c-86 0 -157.61 67 -157.61 169.87v130.53c0 104.74 70.7402 171.74 158.771 171.74zM206.729 266.021c70.0801 0 125.031 53.0801 125.031 125.95v158.37c0 74.1602 -55.8203 127.24 -126.761 127.24
c-70.6602 0 -127.19 -53.0801 -127.19 -141.45v-130.53c0 -86.5 57.4004 -139.58 128.92 -139.58z" />
    <glyph glyph-name="zero.lf.zero" horiz-adv-x="449" 
d="M224.44 710.71c90.6396 0 159.35 -68.7402 159.35 -165.95v-389.82c0 -96.9199 -68.71 -165.65 -159.35 -165.65c-90.6299 0 -159.34 68.7305 -159.34 165.65v389.82c0 97.21 68.71 165.95 159.34 165.95zM224.44 680.42c-73.5498 0 -128.051 -54.5303 -128.051 -135.66
v-327.23l256.11 306.99v20.2402c0 81.1299 -54.5 135.66 -128.06 135.66zM224.439 19.5801c73.5596 0 128.061 54.5195 128.061 135.359v326.82l-256.11 -306.99v-19.8301c0 -80.8398 54.5 -135.359 128.05 -135.359z" />
    <glyph glyph-name="zero.tf" horiz-adv-x="443" 
d="M230 -10.71c-90.6299 0 -159.34 68.7305 -159.34 165.65v389.82c0 97.21 68.71 165.95 159.34 165.95s159.34 -68.7402 159.34 -165.95v-389.82c0 -96.9199 -68.71 -165.65 -159.34 -165.65zM230 19.5801c73.5498 0 128.05 54.5195 128.05 135.359v389.82
c0 81.1299 -54.5 135.66 -128.05 135.66c-73.5596 0 -128.06 -54.5303 -128.06 -135.66v-389.82c0 -80.8398 54.5 -135.359 128.06 -135.359z" />
    <glyph glyph-name="one.tf" horiz-adv-x="443" 
d="M251.1 30.4199h116.84v-30.4199h-269.26v30.4199h120.84v625.48l-117.84 -95.3799v37.6396l123.53 101.84h25.8896v-669.58z" />
    <glyph glyph-name="two.tf" horiz-adv-x="443" 
d="M73.9697 0l0.000976562 28.6787c0 211.71 285.92 338.82 285.92 524.03c0 75.0498 -52.9199 125.45 -128.16 125.45c-71.2305 0 -120.181 -52.0801 -123.601 -136.061h-31.5801c6 97.9004 67.29 164.341 155.18 165.771c93.9004 1.41992 159.74 -65.0303 159.74 -155.16
c0 -202.13 -285.92 -325.689 -285.92 -522.289h289.37v-30.4199h-320.95z" />
    <glyph glyph-name="three.tf" horiz-adv-x="443" 
d="M212.73 412.55c97.9805 0 162.209 -64.8701 162.209 -167.47v-70.9004c0 -116.76 -64.0195 -182.34 -159.34 -182.34c-89.1797 0 -158.5 64.4199 -158.5 172.55h31.5801c2.58008 -93.5 55.9805 -142.26 126.631 -142.26c78.5303 0 128.351 51.6602 128.351 152.05
v70.9004c0 88.8398 -55.8203 138.92 -132.37 138.92h-49.5v24.4199l164.63 261.87h-253.13v29.71h293.89v-20.9805l-166.97 -266.47h12.5195z" />
    <glyph glyph-name="four.tf" horiz-adv-x="443" 
d="M404.68 234.34v-30.29h-80.0195v-204.05h-31.5801v204.05h-249.71v21.6299l167.68 474.32h31.7402l-163.95 -465.66h214.24v252.1h31.5801v-252.1h80.0195z" />
    <glyph glyph-name="five.tf" horiz-adv-x="443" 
d="M236.31 469.13c85.6104 0 149.29 -66.999 149.29 -175.499v-119.74c0 -116.89 -63.8096 -183.89 -152.439 -183.89c-87.4805 0 -153.45 65.8398 -154.61 169.6h31.29c0.870117 -87.0996 53.21 -139.31 123.32 -139.31c69.8096 0 120.859 53.0801 120.859 153.6v119.45
c0 92.1299 -48.8896 145.79 -119.31 145.79c-61.0801 0 -98.0498 -35.6904 -116.45 -94.4707h-31.4199v355.34h285.87v-30.4199h-254.58v-264.68c23.9697 38.8096 65.9893 64.2295 118.18 64.2295z" />
    <glyph glyph-name="six.tf" horiz-adv-x="443" 
d="M229.16 464.26c86 0 157.601 -67 157.601 -169.87v-130.52c0 -104.74 -70.7402 -171.74 -158.76 -171.74c-88.3203 0 -158.34 67 -158.34 157.53v391.47c0 102.58 66.7305 169.58 157.051 169.58c84.0195 0 151.89 -64.5801 155.34 -161.74h-31.5801
c-4 81.3701 -56.6797 131.45 -123.76 131.45c-72.6602 0 -125.48 -53.0801 -125.48 -139v-146.57c25.5195 42.2803 71.2891 69.4102 127.929 69.4102zM355.181 163.87v130.521c0 86.5 -57.3896 139.58 -128.92 139.58c-70.0801 0 -125.03 -53.0801 -125.03 -125.95v-158.36
c0 -74.1602 55.8203 -127.24 126.771 -127.24c70.6602 0 127.18 53.0801 127.18 141.45z" />
    <glyph glyph-name="seven.tf" horiz-adv-x="443" 
d="M138.31 0l204.71 669.71h-286.6v30.29h321.5v-22.3398l-206.45 -677.66h-33.1602z" />
    <glyph glyph-name="eight.tf" horiz-adv-x="443" 
d="M294.84 360.38c61 -22.6602 99.6699 -85.04 99.6699 -160.54v-31.9199c0 -106.92 -64.5801 -175.79 -164.5 -175.79s-164.5 68.8701 -164.5 175.79v31.9199c0 75.5 38.6504 137.88 99.6504 160.54c-53.9297 23.3896 -88.3701 84.9697 -88.3701 159.75v17.6797
c0 103.77 59.8701 170.06 153.21 170.06s153.21 -66.29 153.21 -170.06v-17.6797c0 -74.7803 -34.4404 -136.36 -88.3701 -159.75zM108.39 520.13c0 -88.1104 47.5195 -144.63 121.63 -144.63c74.0996 0 121.63 56.5195 121.63 144.63v17.6797
c0 84.8203 -47.5303 139.771 -121.63 139.771c-74.1104 0 -121.63 -54.9502 -121.63 -139.771v-17.6797zM362.939 167.92v31.9199c0 88.2598 -52.5303 145.37 -132.92 145.37c-80.4004 0 -132.92 -57.1104 -132.92 -145.37v-31.9199
c0 -88.6904 52.5195 -145.5 132.92 -145.5c80.3896 0 132.92 56.8096 132.92 145.5z" />
    <glyph glyph-name="nine.tf" horiz-adv-x="443" 
d="M214.89 712.87c88.3203 0 158.339 -67 158.339 -157.53v-391.47c0 -102.58 -66.7305 -169.58 -157.051 -169.58c-84.0195 0 -151.89 64.5801 -155.34 161.73h31.5801c4 -81.3604 56.6797 -131.44 123.76 -131.44c72.6602 0 125.48 53.0801 125.48 139v146.56
c-25.5195 -42.2803 -71.2891 -69.4102 -127.929 -69.4102c-86 0 -157.6 67 -157.6 169.87v130.53c0 104.74 70.7402 171.74 158.76 171.74zM216.629 271.021c70.0801 0 125.03 53.0801 125.03 125.95v158.37c0 74.1602 -55.8203 127.24 -126.771 127.24
c-70.6602 0 -127.18 -53.0801 -127.18 -141.45v-130.53c0 -86.5 57.3896 -139.58 128.92 -139.58z" />
    <glyph glyph-name="zero.tf.zero" horiz-adv-x="443" 
d="M230 710.71c90.6299 0 159.34 -68.7402 159.34 -165.95v-389.82c0 -96.9199 -68.71 -165.65 -159.34 -165.65s-159.34 68.7305 -159.34 165.65v389.82c0 97.21 68.71 165.95 159.34 165.95zM230 680.42c-73.5596 0 -128.061 -54.5303 -128.061 -135.66v-327.23
l256.11 306.99v20.2402c0 81.1299 -54.5 135.66 -128.05 135.66zM229.999 19.5801c73.5498 0 128.051 54.5195 128.051 135.359v326.82l-256.11 -307v-19.8203c0 -80.8398 54.5 -135.359 128.06 -135.359z" />
    <glyph glyph-name="zero.zero" horiz-adv-x="443" 
d="M224.44 710.71c90.6396 0 159.35 -68.7402 159.35 -165.95v-389.82c0 -96.9199 -68.71 -165.65 -159.35 -165.65c-90.6299 0 -159.34 68.7305 -159.34 165.65v389.82c0 97.21 68.71 165.95 159.34 165.95zM224.44 680.42c-73.5498 0 -128.051 -54.5303 -128.051 -135.66
v-327.23l256.11 306.99v20.2402c0 81.1299 -54.5 135.66 -128.06 135.66zM224.439 19.5801c73.5596 0 128.061 54.5195 128.061 135.359v326.82l-256.11 -306.99v-19.8301c0 -80.8398 54.5 -135.359 128.05 -135.359z" />
    <glyph glyph-name="fraction" unicode="&#x2044;" horiz-adv-x="542" 
d="M16.8398 0l474.741 700h33.3096l-474.73 -700h-33.3203z" />
    <glyph glyph-name="period" unicode="." horiz-adv-x="169" 
d="M84.5996 -7.87012c-18.7598 0 -30.6602 11.8896 -30.6602 30.6592c0 18.7598 11.9004 30.6494 30.6602 30.6494c18.7695 0 30.6592 -11.8896 30.6592 -30.6494c0 -18.7695 -11.8896 -30.6592 -30.6592 -30.6592z" />
    <glyph glyph-name="comma" unicode="," horiz-adv-x="128" 
d="M33.5498 -123.61l18.8701 181h42.1299l-36.7598 -181h-24.2402z" />
    <glyph glyph-name="colon" unicode=":" horiz-adv-x="184" 
d="M92.2598 341.97c-18.7598 0 -30.6602 11.9004 -30.6602 30.6602s11.9004 30.6602 30.6602 30.6602s30.6602 -11.9004 30.6602 -30.6602s-11.9004 -30.6602 -30.6602 -30.6602zM92.2598 -7.87012c-18.7598 0 -30.6602 11.8896 -30.6602 30.6592
c0 18.7598 11.9004 30.6494 30.6602 30.6494s30.6602 -11.8896 30.6602 -30.6494c0 -18.7695 -11.9004 -30.6592 -30.6602 -30.6592z" />
    <glyph glyph-name="semicolon" unicode=";" horiz-adv-x="135" 
d="M70.3398 341.26c-18.7598 0 -30.6602 11.9004 -30.6602 30.6602s11.9004 30.6602 30.6602 30.6602s30.6602 -11.9004 30.6602 -30.6602s-11.9004 -30.6602 -30.6602 -30.6602zM33.5498 -123.61l18.8701 181h42.1299l-36.7598 -181h-24.2402z" />
    <glyph glyph-name="ellipsis" unicode="&#x2026;" horiz-adv-x="461" 
d="M84.5996 -7.87012c-18.7598 0 -30.6602 11.8896 -30.6602 30.6592c0 18.7598 11.9004 30.6494 30.6602 30.6494c18.7695 0 30.6592 -11.8896 30.6592 -30.6494c0 -18.7695 -11.8896 -30.6592 -30.6592 -30.6592zM230.39 -7.87012
c-18.7598 0 -30.6602 11.8896 -30.6602 30.6592c0 18.7598 11.9004 30.6494 30.6602 30.6494c18.7695 0 30.6592 -11.8896 30.6592 -30.6494c0 -18.7695 -11.8896 -30.6592 -30.6592 -30.6592zM376.18 -7.87012c-18.7598 0 -30.6602 11.8896 -30.6602 30.6592
c0 18.7598 11.9004 30.6494 30.6602 30.6494s30.6602 -11.8896 30.6602 -30.6494c0 -18.7695 -11.9004 -30.6592 -30.6602 -30.6592z" />
    <glyph glyph-name="exclam" unicode="!" horiz-adv-x="197" 
d="M82.8398 123.39v576.61h31.5801v-576.61h-31.5801zM98.6299 -7.87012c-18.7598 0 -30.6602 11.8896 -30.6602 30.6592c0 18.7598 11.9004 30.6494 30.6602 30.6494s30.6602 -11.8896 30.6602 -30.6494c0 -18.7695 -11.9004 -30.6592 -30.6602 -30.6592z" />
    <glyph glyph-name="exclamdown" unicode="&#xa1;" horiz-adv-x="197" 
d="M98.6299 469.42c-18.7598 0 -30.6602 11.8896 -30.6602 30.6592c0 18.7598 11.9004 30.6494 30.6602 30.6494s30.6602 -11.8896 30.6602 -30.6494c0 -18.7695 -11.9004 -30.6592 -30.6602 -30.6592zM82.8398 -180v579.47h31.5801v-579.47h-31.5801z" />
    <glyph glyph-name="question" unicode="?" horiz-adv-x="368" 
d="M153.92 123.39v72.9502c0 173.82 141.74 199.63 141.74 354.6c0 76.1104 -52.5303 127.221 -122.771 127.221c-69.6602 0 -122.76 -52.6602 -122.76 -136.93h-31.5801c2.58008 99.3496 68.4502 166.64 154.34 166.64c88.9004 0 154.341 -66.0303 154.341 -156.931
c0 -163.92 -141.73 -191.26 -141.73 -356.63v-70.9199h-31.5801zM171.71 -7.87012c-18.7695 0 -30.6592 11.8896 -30.6592 30.6592c0 18.7598 11.8896 30.6494 30.6592 30.6494c18.7598 0 30.6602 -11.8896 30.6602 -30.6494
c0 -18.7695 -11.9004 -30.6592 -30.6602 -30.6592z" />
    <glyph glyph-name="questiondown" unicode="&#xbf;" horiz-adv-x="368" 
d="M196.6 469.71c-18.7598 0 -30.6602 11.8896 -30.6602 30.6592c0 18.7598 11.9004 30.6494 30.6602 30.6494c18.7695 0 30.6592 -11.8896 30.6592 -30.6494c0 -18.7695 -11.8896 -30.6592 -30.6592 -30.6592zM195.42 -184.71c-88.9004 0 -154.34 66.0195 -154.34 156.92
c0 163.92 141.73 191.26 141.73 356.63v70.9199h31.5801v-72.9502c0 -173.81 -141.73 -199.63 -141.73 -354.6c0 -76.1104 52.5195 -127.21 122.76 -127.21c69.6602 0 122.76 52.6602 122.76 136.92h31.5801c-2.58008 -99.3398 -68.4502 -166.63 -154.34 -166.63z" />
    <glyph glyph-name="periodcentered" unicode="&#xb7;" horiz-adv-x="169" 
d="M84.5996 223.79c-18.7598 0 -30.6602 11.8896 -30.6602 30.6494c0 18.7695 11.9004 30.6592 30.6602 30.6592c18.7695 0 30.6592 -11.8896 30.6592 -30.6592c0 -18.7598 -11.8896 -30.6494 -30.6592 -30.6494z" />
    <glyph glyph-name="bullet" unicode="&#x2022;" horiz-adv-x="186" 
d="M92.2598 200.21c-29.7598 0 -50.0801 20.3096 -50.0801 50.0791c0 30.8896 20.3203 51.21 50.0801 51.21c30.9004 0 51.21 -20.3203 51.21 -51.21c0 -29.7695 -20.3096 -50.0791 -51.21 -50.0791z" />
    <glyph glyph-name="asterisk" unicode="*" horiz-adv-x="284" 
d="M85.1797 503.37l-22.0791 15.3398l57.2695 78.6797l-91.8203 29.8398l8.03027 25.2402l92.0996 -30.1299v96.8203h26.5303v-96.8203l92.0996 29.8398l8.32031 -24.9502l-92.4004 -29.8398l57.2695 -78.6797l-21.79 -15.6299l-57.2695 78.6797z" />
    <glyph glyph-name="numbersign" unicode="#" horiz-adv-x="547" 
d="M97.1299 0l43 189h-121.16l7.03027 27.6797h120.87l58.2305 255.63h-121.16l6.03027 27.6904h121.16l46 200h29.8398l-46 -200h135l46 200h30.1299l-46 -200h121.45l-6.03027 -27.6904h-121.44l-58.2402 -255.63h121.74l-7.03027 -27.6797h-121.45l-43 -189h-30.1299
l43 189h-135l-43 -189h-29.8398zM176.71 216.68h135l58.2305 255.63h-135z" />
    <glyph glyph-name="slash" unicode="/" horiz-adv-x="378" 
d="M13.5498 -110.74l318.47 915.76h32l-318.47 -915.76h-32z" />
    <glyph glyph-name="backslash" unicode="\" horiz-adv-x="454" 
d="M402.16 -110.74h-32l-318.48 915.76h32z" />
    <glyph glyph-name="parenleft" unicode="(" horiz-adv-x="262" 
d="M202.81 -120c-73.21 1.44043 -118.71 56.79 -118.71 137.42v666.16c0 80.3398 44.79 134.97 118.71 136.42v-30c-55.2598 -2.58008 -87.1299 -41.8701 -87.1299 -106.42v-666.16c0 -64.5498 31.8701 -105.979 87.1299 -107.42v-30z" />
    <glyph glyph-name="parenright" unicode=")" horiz-adv-x="262" 
d="M59.3896 -120v30c55.2695 1.44043 87.1299 42.8701 87.1299 107.42v666.16c0 64.5498 -31.8604 103.84 -87.1299 106.42v30c73.9199 -1.4502 118.71 -56.0801 118.71 -136.42v-666.16c0 -80.6299 -45.5 -135.979 -118.71 -137.42z" />
    <glyph glyph-name="braceleft" unicode="{" horiz-adv-x="326" 
d="M164.16 484c0 -52.46 -22.5996 -104.242 -68.0596 -130.002c45.46 -25.7695 68.0596 -77.5391 68.0596 -129.999v-198.21c0 -65.5596 43.5498 -116.079 102.78 -116.079v-29.71c-77.0195 0 -133.779 64.1602 -133.779 145.79v198.21
c0 50.0498 -25.0801 94.2598 -73.7705 113.5v33c48.6904 19.2305 73.7705 63.4404 73.7705 113.5v190.21c0 81.6299 56.7598 145.79 133.779 145.79v-29.71c-59.2305 -2.12988 -102.78 -50.5303 -102.78 -116.08v-190.21z" />
    <glyph glyph-name="braceright" unicode="}" horiz-adv-x="326" 
d="M193.18 476.29c0 -50.0596 25.0801 -94.2676 73.7598 -113.498v-33c-48.6797 -19.2402 -73.7598 -63.4502 -73.7598 -113.5v-190.21c0 -81.6396 -56.7598 -145.79 -133.79 -145.79v29.71c59.2402 2.12988 102.79 50.5195 102.79 116.079v190.21
c0 52.46 22.5898 104.229 68.0596 129.999c-45.4697 25.7598 -68.0596 77.54 -68.0596 130v198.21c0 65.5498 -43.5498 116.08 -102.79 116.08v29.71c77.0303 0 133.79 -64.1602 133.79 -145.79v-198.21z" />
    <glyph glyph-name="bracketleft" unicode="[" horiz-adv-x="262" 
d="M84.0996 -120v940h118.71v-29.71h-87.1299v-880.58h87.1299v-29.71h-118.71z" />
    <glyph glyph-name="bracketright" unicode="]" horiz-adv-x="262" 
d="M178.1 820v-940h-118.71v29.71h87.1299v880.58h-87.1299v29.71h118.71z" />
    <glyph glyph-name="hyphen" unicode="-" horiz-adv-x="334" 
d="M48.8398 241.08v29.71h236.45v-29.71h-236.45z" />
    <glyph glyph-name="endash" unicode="&#x2013;" horiz-adv-x="434" 
d="M48.8398 241.08v29.71h336.45v-29.71h-336.45z" />
    <glyph glyph-name="emdash" unicode="&#x2014;" horiz-adv-x="554" 
d="M48.8398 241.08v29.71h456.45v-29.71h-456.45z" />
    <glyph glyph-name="underscore" unicode="_" horiz-adv-x="412" 
d="M31.5195 -37v29.4199h349.35v-29.4199h-349.35z" />
    <glyph glyph-name="hyphen.case" horiz-adv-x="334" 
d="M48.8398 341.08v29.71h236.45v-29.71h-236.45z" />
    <glyph glyph-name="endash.case" horiz-adv-x="434" 
d="M48.8398 341.08v29.71h336.45v-29.71h-336.45z" />
    <glyph glyph-name="emdash.case" horiz-adv-x="554" 
d="M48.8398 341.08v29.71h456.45v-29.71h-456.45z" />
    <glyph glyph-name="quotesinglbase" unicode="&#x201a;" horiz-adv-x="128" 
d="M33.5498 -123.61l18.8701 181h42.1299l-36.7598 -181h-24.2402z" />
    <glyph glyph-name="quotedblbase" unicode="&#x201e;" horiz-adv-x="214" 
d="M33.5498 -123.61l18.8701 181h42.1299l-36.7598 -181h-24.2402zM119.34 -123.61l18.8701 181h42.1299l-36.7598 -181h-24.2402z" />
    <glyph glyph-name="quotedblleft" unicode="&#x201c;" horiz-adv-x="193" 
d="M24.5498 519l36.7598 181h24.2402l-18.8701 -181h-42.1299zM110.34 519l36.7598 181h24.2402l-18.8701 -181h-42.1299z" />
    <glyph glyph-name="quotedblright" unicode="&#x201d;" horiz-adv-x="193" 
d="M21.6797 519l18.8701 181h42.1299l-36.7598 -181h-24.2402zM107.47 519l18.8701 181h42.1299l-36.7598 -181h-24.2402z" />
    <glyph glyph-name="quoteleft" unicode="&#x2018;" horiz-adv-x="107" 
d="M24.5498 520.42l36.7598 181h24.2402l-18.8701 -181h-42.1299z" />
    <glyph glyph-name="quoteright" unicode="&#x2019;" horiz-adv-x="107" 
d="M21.6797 519.6l18.8701 181h42.1299l-36.7598 -181h-24.2402z" />
    <glyph glyph-name="guillemotleft" unicode="&#xab;" horiz-adv-x="429" 
d="M179.37 89.71l-130.53 157.97v18.6299l130.53 157.98h33.71l-137.98 -167.29l137.98 -167.29h-33.71zM346.47 89.71l-130.53 157.97v18.6299l130.53 157.98h33.71l-137.97 -167.29l137.97 -167.29h-33.71z" />
    <glyph glyph-name="guillemotright" unicode="&#xbb;" horiz-adv-x="429" 
d="M82.5498 89.71h-33.71l137.97 167.29l-137.97 167.29h33.71l130.53 -157.98v-18.6299zM249.66 89.71h-33.7197l137.98 167.29l-137.98 167.29h33.7197l130.52 -157.98v-18.6299z" />
    <glyph glyph-name="guilsinglleft" unicode="&#x2039;" horiz-adv-x="262" 
d="M179.37 89.71l-130.53 157.97v18.6299l130.53 157.98h33.71l-137.98 -167.29l137.98 -167.29h-33.71z" />
    <glyph glyph-name="guilsinglright" unicode="&#x203a;" horiz-adv-x="262" 
d="M82.5498 89.71h-33.71l137.97 167.29l-137.97 167.29h33.71l130.53 -157.98v-18.6299z" />
    <glyph glyph-name="quotedbl" unicode="&#x22;" horiz-adv-x="193" 
d="M21.6797 519l18.8701 181h42.1299l-36.7598 -181h-24.2402zM107.47 519l18.8701 181h42.1299l-36.7598 -181h-24.2402z" />
    <glyph glyph-name="quotesingle" unicode="'" horiz-adv-x="107" 
d="M21.6797 519l18.8701 181h42.1299l-36.7598 -181h-24.2402z" />
    <glyph glyph-name="guillemotleft.case" horiz-adv-x="429" 
d="M179.37 149.71l-130.53 157.97v18.6299l130.53 157.98h33.71l-137.98 -167.29l137.98 -167.29h-33.71zM346.47 149.71l-130.53 157.97v18.6299l130.53 157.98h33.71l-137.97 -167.29l137.97 -167.29h-33.71z" />
    <glyph glyph-name="guillemotright.case" horiz-adv-x="429" 
d="M82.5498 149.71h-33.71l137.97 167.29l-137.97 167.29h33.71l130.53 -157.98v-18.6299zM249.66 149.71h-33.7197l137.98 167.29l-137.98 167.29h33.7197l130.52 -157.98v-18.6299z" />
    <glyph glyph-name="guilsinglleft.case" horiz-adv-x="262" 
d="M179.37 149.71l-130.53 157.97v18.6299l130.53 157.98h33.71l-137.98 -167.29l137.98 -167.29h-33.71z" />
    <glyph glyph-name="guilsinglright.case" horiz-adv-x="262" 
d="M82.5498 149.71h-33.71l137.97 167.29l-137.97 167.29h33.71l130.53 -157.98v-18.6299z" />
    <glyph glyph-name="space" unicode=" " horiz-adv-x="252" 
 />
    <glyph glyph-name="uni00A0" unicode="&#xa0;" horiz-adv-x="252" 
 />
    <glyph glyph-name="cent" unicode="&#xa2;" horiz-adv-x="419" 
d="M371.23 166.34c0 -105.47 -55.2725 -170.75 -145.292 -176v-62.9199h-28.1299v63.2402c-86.1299 7.11035 -138.42 71.5703 -138.42 168.57v202.11c0 97.7197 52.4297 162.41 138.42 168.73v63.0898h28.1299v-63.0596c88.6904 -6.15039 142.45 -71.1309 142.45 -173.73
h-30.8701c0 90.8398 -46.9697 144.63 -125.63 144.63c-75.9502 0 -121.63 -53.79 -121.63 -139.66v-202.11c0 -85.8604 46.4004 -139.65 123.761 -139.65c78.6602 0 126.351 53.79 126.351 146.76h30.8604z" />
    <glyph glyph-name="currency" unicode="&#xa4;" horiz-adv-x="427" 
d="M60.5195 133.16l-20.9404 18.0703l41.3398 49.21c-15.1299 24.4297 -23.1299 57.8701 -23.1299 98.6904v62.1299c0 40.8203 8 73.5508 23.1299 97.9707l-41.3398 49.9297l20.9404 18.0703l37.9004 -44.4697c24.5801 27.5498 67.4502 44.2598 115.13 44.2598
c47.3896 0 90.2598 -16.71 115.13 -44.2598l37.9004 44.4697l20.9404 -18.0703l-41.3398 -49.6396c15.1299 -24.4199 23.1299 -57.1504 23.1299 -98.2607v-62.1299c0 -41.1104 -8 -74.5508 -23.1299 -98.9707l41.3398 -48.9297l-20.9404 -18.0703l-37.9004 44.4697
c-24.8701 -27.5498 -67.7402 -44.2598 -115.13 -44.2598c-47.6797 0 -90.5498 16.71 -115.13 44.2598zM213.549 161.79c81.21 0 125.47 47.8398 125.47 137.34v62.1299c0 89.5 -44.2598 137.34 -125.47 137.34s-125.47 -47.8398 -125.47 -137.34v-62.1299
c0 -89.5 44.2598 -137.34 125.47 -137.34z" />
    <glyph glyph-name="dollar" unicode="$" horiz-adv-x="431" 
d="M386.58 156.81c0 -88.1602 -60.7002 -163.977 -162.641 -168.207v-73.5996h-25.8096v74.0498c-95.1797 7.29004 -151.41 76.96 -157.61 173.89h32.1602c7.98047 -86.2803 55.8408 -143.65 141.661 -143.65c89.2598 0 139.79 59.3896 139.79 137.52
c0 185.45 -307.16 194.98 -307.16 391.58c0 90.7803 62.0996 155.79 151.159 162.6v74.0098h25.8096v-73.6904c90.1104 -4.66016 149.601 -71.5303 156.48 -172.101h-32.1602c-8.25977 92.2598 -57.6797 141.5 -133.92 141.5c-79.5498 0 -134.92 -51.1104 -134.92 -132.32
c0 -174.08 307.16 -185.13 307.16 -391.58z" />
    <glyph glyph-name="Euro" unicode="&#x20ac;" horiz-adv-x="533" 
d="M461.5 179.34h31.5801c-8.58008 -125.87 -74.6104 -191.34 -187.48 -191.34c-106.31 0 -176.79 70.0195 -176.79 205.729v82.6602h-82.29v26.4004h82.29v93.4199h-82.29v26.3896h82.29v82.9502c0 136.42 69.9004 206.45 175.631 206.45
c111.16 0 174.93 -64.9004 184.06 -191.341h-31.5801c-9.12988 109.65 -59.9795 161.631 -152.479 161.631c-87.0703 0 -144.051 -57.1104 -144.051 -176.74v-82.9502h198.29v-26.3896h-198.29v-93.4199h198.29v-26.4004h-198.29v-82.6602
c0 -118.92 57.5498 -176.02 145.21 -176.02c94.21 0 147.32 52.5498 155.9 161.63z" />
    <glyph glyph-name="sterling" unicode="&#xa3;" horiz-adv-x="460" 
d="M97 30.1602h324.79v-30.1602h-388.37v27.8398c42.3096 6.91992 70.1299 46.0498 70.1299 111.16v201.92h-70.71v29h70.71v165.13c0 99.2402 64.29 172.82 154.47 172.82c90.4805 0 152.921 -71.5801 155.501 -171.561h-31.5801
c-2.57031 84.6104 -49.9707 141.851 -123.921 141.851c-71.5195 0 -122.89 -59.2402 -122.89 -143.11v-165.13h212.45v-29h-212.45v-200.19c0 -50.3096 -12.9502 -88.8994 -38.1299 -110.569z" />
    <glyph glyph-name="yen" unicode="&#xa5;" horiz-adv-x="406" 
d="M396.39 700l-166.021 -411.529h133.65v-27.3896h-144.71l-0.0498047 -0.139648v-75.0703h144.76v-27.4004h-144.76v-158.47h-32.1602v158.47h-144.76v27.4004h144.76v75.0703l-0.0498047 0.139648h-144.71v27.3896h133.61l-166.69 411.53h34.0303l122.02 -304.11
c12.29 -31.7305 25.5801 -62.7607 37.8701 -94.501c12.29 31.7402 24.8701 63.0498 37.1602 94.79l122.03 303.82h34.0195z" />
    <glyph glyph-name="plus" unicode="+" horiz-adv-x="423" 
d="M371.13 322.79v-29h-145.58v-146.45h-29v146.45h-144.87v29h144.87v147.15h29v-147.15h145.58z" />
    <glyph glyph-name="minus" unicode="&#x2212;" horiz-adv-x="423" 
d="M51.6797 293.79v29h319.45v-29h-319.45z" />
    <glyph glyph-name="multiply" unicode="&#xd7;" horiz-adv-x="411" 
d="M67.79 148.13l-20.1104 20.0986l138.03 137.74l-137.74 137.74l19.5303 20.3896l138.31 -138.02l138.03 137.73l19.8203 -20.0996l-137.74 -137.74l137.74 -137.74l-19.8203 -20.0996l-138.03 138.03z" />
    <glyph glyph-name="divide" unicode="&#xf7;" horiz-adv-x="423" 
d="M211.76 407.13c-16.7598 0 -31.0801 13.8896 -31.0801 31.0801c0 17.4697 14.3203 31.0801 31.0801 31.0801c17.1797 0 31.0801 -13.6104 31.0801 -31.0801c0 -17.1904 -13.9004 -31.0801 -31.0801 -31.0801zM51.6797 293.79v29h319.45v-29h-319.45zM211.76 144.97
c-16.7598 0 -31.0801 13.9004 -31.0801 31.0801c0 17.4697 14.3203 31.0801 31.0801 31.0801c17.1797 0 31.0801 -13.6104 31.0801 -31.0801c0 -17.1797 -13.9004 -31.0801 -31.0801 -31.0801z" />
    <glyph glyph-name="equal" unicode="=" horiz-adv-x="423" 
d="M51.6797 349.29v29h319.45v-29h-319.45zM51.6797 235.1v29h319.45v-29h-319.45z" />
    <glyph glyph-name="notequal" unicode="&#x2260;" horiz-adv-x="437" 
d="M378 398.42h-126.459l-44.0996 -85.1904h170.56v-29h-185.58l-35.8203 -69.1797h-28.29l35.8203 69.1797h-105.58v29h120.6l44.0996 85.1904h-164.7v29h179.71l40.9697 79.1299h28.29l-40.9697 -79.1299h111.45v-29z" />
    <glyph glyph-name="greater" unicode="&#x3e;" horiz-adv-x="376" 
d="M51.6797 465.37l272.4 -139v-34.7402l-272.4 -139v32l242.25 124.37l-242.25 124.37v32z" />
    <glyph glyph-name="less" unicode="&#x3c;" horiz-adv-x="376" 
d="M324.08 465.37v-32l-242.25 -124.37l242.25 -124.37v-32l-272.4 139v34.7402z" />
    <glyph glyph-name="greaterequal" unicode="&#x2265;" horiz-adv-x="376" 
d="M51.6797 501.05l272.4 -139v-34.7402l-272.4 -139v32l242.25 124.37l-242.25 124.37v32zM51.6797 98.29v28.71h272.4v-28.71h-272.4z" />
    <glyph glyph-name="lessequal" unicode="&#x2264;" horiz-adv-x="376" 
d="M324.08 501.05v-32l-242.25 -124.37l242.25 -124.37v-32l-272.4 139v34.7402zM51.6797 98.29v28.71h272.4v-28.71h-272.4z" />
    <glyph glyph-name="plusminus" unicode="&#xb1;" horiz-adv-x="437" 
d="M232.42 352.39h145.58v-29h-145.58v-146.45h-29v146.45h-144.87v29h144.87v147.16h29v-147.16zM58.5498 102.1v29h319.45v-29h-319.45z" />
    <glyph glyph-name="approxequal" unicode="&#x2248;" horiz-adv-x="437" 
d="M300.94 320.13c-56.4404 0 -113.631 55.0996 -161.341 55.0996c-31.8398 0 -51.71 -24.3896 -66.1299 -46.9395l-16.79 22.2598c24.4502 38.1299 51.3203 53.8398 81.7607 53.8398c56.4502 0 115.061 -55.0996 162.061 -55.0996c31.8398 0 50.29 26.5195 62.5801 47.6494
l17.79 -20.6797c-22.7402 -40.1299 -49.1904 -56.1299 -79.9307 -56.1299zM300.94 190.87c-56.4404 0 -113.631 55.0996 -161.341 55.0996c-31.8398 0 -51.71 -24.3896 -66.1299 -46.9492l-16.79 22.2695c24.4502 38.1299 51.3203 53.8398 81.7607 53.8398
c56.4502 0 115.061 -55.1104 162.061 -55.1104c31.8398 0 50.29 26.5303 62.5801 47.6602l17.79 -20.6797c-22.7402 -40.1299 -49.1904 -56.1299 -79.9307 -56.1299z" />
    <glyph glyph-name="asciitilde" unicode="~" horiz-adv-x="437" 
d="M300.66 258.37c-56.4502 0 -113.641 52.9697 -161.351 52.9697c-31.8398 0 -51.71 -22.9697 -66.1299 -44.8193l-16.79 22.2695c24.4502 36.71 51.3203 51.71 81.7705 51.71c56.4404 0 115.051 -52.9805 162.051 -52.9805c31.8398 0 50.29 25.1104 62.5801 45.5303
l17.79 -20.6797c-22.7402 -38.71 -49.1904 -54 -79.9209 -54z" />
    <glyph glyph-name="logicalnot" unicode="&#xac;" horiz-adv-x="437" 
d="M352.44 213.63l-0.000976562 79.8701h-294.6v29h322.32v-108.87h-27.7197z" />
    <glyph glyph-name="asciicircum" unicode="^" horiz-adv-x="288" 
d="M269.13 481.55h-31.1602l-93.6396 189.1l-93.9102 -189.1h-31.1602l108.84 218.45h32.1904z" />
    <glyph glyph-name="emptyset" unicode="&#x2205;" horiz-adv-x="808" 
d="M645.31 616.39c64.54 -62.8203 101.61 -154.95 101.61 -266.391c0 -214.58 -137.45 -357.58 -343.76 -357.58c-88.46 0 -164.25 26.2803 -221.98 73.2207l-87.79 -104.17h-32.71l101.75 120.74c-65.4199 62.8604 -103.04 155.53 -103.04 267.79
c0 214.58 137.45 357.58 343.771 357.58c89.2402 0 165.59 -26.7598 223.51 -74.4902l88.8496 105.43h32.71zM86.5 350c0 -103.47 34 -188.899 93.3301 -247.14l429.56 509.72c-53.3496 44.3496 -123.779 69.1797 -206.229 69.1797
c-190.4 0 -316.66 -132.39 -316.66 -331.76zM403.16 18.2305c190.39 0 316.65 132.4 316.65 331.771c0 102.63 -33.46 187.52 -91.9102 245.729l-429.44 -509.58c53.1602 -43.5596 123.03 -67.9199 204.7 -67.9199z" />
    <glyph glyph-name="infinity" unicode="&#x221e;" horiz-adv-x="638" 
d="M448.81 390.76c75 0 129.481 -60.5498 129.481 -140.47c0 -83.1904 -54.4805 -140.61 -128.061 -140.61c-76.0195 0 -107.229 49.25 -131.39 105.35c-24.1699 -56.0996 -55.3701 -105.35 -131.4 -105.35c-73.5703 0 -128.051 57.4199 -128.051 140.61
c0 79.9199 54.4805 140.47 129.48 140.47c74.5703 0 105.37 -48.5498 129.97 -102.81c24.5898 54.2598 55.3994 102.81 129.97 102.81zM187.44 138.1c67.3496 0 91.1895 54.5303 115.319 112.92c-23.8398 57.5303 -47.5498 111.32 -113.89 111.32
c-60.5 0 -99.1904 -46.3398 -99.1904 -112.05c0 -65.5303 38.6904 -112.19 97.7607 -112.19zM450.23 138.1c59.0801 0 97.7705 46.6602 97.7705 112.19c0 65.71 -38.6904 112.05 -99.1904 112.05c-66.3398 0 -90.0498 -53.79 -113.89 -111.32
c24.1299 -58.3896 47.9697 -112.92 115.31 -112.92z" />
    <glyph glyph-name="integral" unicode="&#x222b;" horiz-adv-x="313" 
d="M21.6797 -187.58v29.29c82.5303 2.70996 119.34 45.3896 119.34 123.6v588.24c0 94.29 50.1602 150.47 150.92 152.89v-29.2803c-83.5195 -2.71973 -120.34 -45.3994 -120.34 -123.609v-588.24c0 -94.29 -50.1602 -150.47 -149.92 -152.89z" />
    <glyph glyph-name="product" unicode="&#x220f;" horiz-adv-x="489" 
d="M84.0996 -98.5801v798.58h321v-798.58h-31.5801v768.29h-257.84v-768.29h-31.5801z" />
    <glyph glyph-name="summation" unicode="&#x2211;" horiz-adv-x="378" 
d="M47.0996 -1.41992v28.71l179.32 322.71l-179.32 322.71v28.71h283.71v-29.71h-250.84l174.03 -307.55v-28.3203l-174.03 -307.55h250.84v-29.71h-283.71z" />
    <glyph glyph-name="radical" unicode="&#x221a;" horiz-adv-x="470" 
d="M215.71 0l-110.291 469.159h-82.4502v29.4199h107.29l112.29 -465.56l177.24 763.4h31.5801l-182.27 -796.42h-53.3896z" />
    <glyph glyph-name="partialdiff" unicode="&#x2202;" horiz-adv-x="435" 
d="M161.42 729.16c111.24 -30.8701 213.809 -122.66 213.809 -306.19v-263.16c0 -103.52 -61.5996 -169.81 -161.76 -169.81c-95.5996 0 -154.08 66.29 -154.08 169.81v177.98c0 103.52 58.4805 169.81 150.61 169.81c60.5 0 108.96 -27.71 134.46 -72.7295
c-4.38965 144.89 -78.1699 232.71 -193.52 266.57zM344.368 159.811v177.98c0 86.4404 -48.9805 140.23 -129.19 140.23c-78.5195 0 -124.92 -53.79 -124.92 -140.23v-177.98c0 -86.4404 46.6797 -140.23 124.63 -140.23c81.0801 0 129.48 53.79 129.48 140.23z" />
    <glyph glyph-name="percent" unicode="%" horiz-adv-x="594" 
d="M114.84 396.55c-50.7402 0 -84.21 37.29 -84.21 90.2402v130.26c0 52.9502 33.4697 90.5303 84.21 90.5303c52.5801 0 84.6299 -37.5801 84.6299 -90.5303v-130.26c0 -52.9502 -32.0498 -90.2402 -84.6299 -90.2402zM35.9395 -0l490.82 700h31l-490.82 -700h-31z
M114.84 422.23c37.6602 0 57.6602 26.2402 57.6602 64.5605v130.26c0 38.6104 -20 64.8408 -57.6602 64.8408c-36.5303 0 -57.9502 -26.2305 -57.9502 -64.8408v-130.26c0 -38.3203 21.4199 -64.5605 57.9502 -64.5605zM479.439 -7.5791
c-50.7305 0 -84.2109 37.29 -84.2109 90.2402v130.26c0 52.9502 33.4805 90.5205 84.2109 90.5205c52.5801 0 84.6396 -37.5703 84.6396 -90.5205v-130.26c0 -52.9502 -32.0596 -90.2402 -84.6396 -90.2402zM479.439 18.1006c37.6602 0 57.6602 26.2402 57.6602 64.5605
v130.26c0 38.5996 -20 64.8398 -57.6602 64.8398c-36.5195 0 -57.9395 -26.2402 -57.9395 -64.8398v-130.26c0 -38.3203 21.4199 -64.5605 57.9395 -64.5605z" />
    </font>
</defs>
</svg>
